<svg width="256" height="167" viewBox="0 0 256 167" fill="none" xmlns="http://www.w3.org/2000/svg">
<g id="Frame 7">
<g id="blueLeft">
<g id="Rectangle 54">
<rect x="31" y="25" width="61" height="55" rx="10" fill="#78C8F3"/>
<rect x="31.5" y="25.5" width="60" height="54" rx="9.5" stroke="#009AEB" stroke-opacity="0.72"/>
</g>
<g id="Group">
<g id="Group_2">
<path id="Vector" d="M91.7178 71.8389V80.125H82.5908V71.8389H91.7178ZM91.2812 79.7287V72.2352H83.0274V79.7287H91.2812Z" fill="white"/>
</g>
<g id="Group_3">
<path id="Vector_2" d="M83.0276 63.9493V72.2354H73.9006V63.9493H83.0276ZM82.591 71.839V64.3456H74.3372V71.839H82.591Z" fill="white"/>
</g>
<g id="Group_4">
<path id="Vector_3" d="M83.0276 56.0637V64.3445H73.9006V56.0637H83.0276ZM82.591 63.9482V56.4601H74.3372V63.9535H82.591V63.9482Z" fill="white"/>
</g>
<g id="Group_5">
<path id="Vector_4" d="M74.3372 63.9493V72.2354H65.2161V63.9493H74.3372ZM73.9007 71.839V64.3456H65.6526V71.839H73.9007Z" fill="white"/>
</g>
<g id="Group_6">
<path id="Vector_5" d="M91.7178 63.9493V72.2354H82.5908V63.9493H91.7178ZM91.2812 71.839V64.3456H83.0274V71.839H91.2812Z" fill="white"/>
</g>
<g id="Group_7">
<path id="Vector_6" d="M91.7178 56.0637V64.3445H82.5908V56.0637H91.7178ZM91.2812 63.9482V56.4601H83.0274V63.9535H91.2812V63.9482Z" fill="white"/>
</g>
<g id="Group_8">
<path id="Vector_7" d="M91.7178 48.1741V56.4602H82.5908V48.1741H91.7178ZM91.2812 56.0639V48.5705H83.0274V56.0639H91.2812Z" fill="white"/>
</g>
<g id="Group_9">
<path id="Vector_8" d="M83.0276 71.8389V80.125H73.9006V71.8389H83.0276ZM82.591 79.7287V72.2352H74.3372V79.7287H82.591Z" fill="white"/>
</g>
<g id="Group_10">
<path id="Vector_9" d="M74.3372 71.8389V80.125H65.2161V71.8389H74.3372ZM73.9007 79.7287V72.2352H65.6526V79.7287H73.9007Z" fill="white"/>
</g>
<g id="Group_11">
<path id="Vector_10" d="M65.6529 71.8389V80.125H56.5259V71.8389H65.6529ZM65.2163 79.7287V72.2352H56.9624V79.7287H65.2163Z" fill="white"/>
</g>
</g>
<rect id="Rectangle 63" x="66" y="63" width="7" height="8" fill="white"/>
<rect id="Rectangle 64" x="73" y="72" width="9" height="8" fill="white"/>
<rect id="Rectangle 65" x="83" y="63" width="9" height="8" fill="white"/>
<rect id="Rectangle 67" x="83" y="49" width="9" height="7" fill="white"/>
<rect id="Rectangle 66" x="73" y="56" width="9" height="7" fill="white"/>
</g>
<g id="blueRight">
<g id="Rectangle 74">
<rect x="163" y="25" width="61" height="55" rx="10" fill="#78C8F3"/>
<rect x="163.5" y="25.5" width="60" height="54" rx="9.5" stroke="#009AEB" stroke-opacity="0.72"/>
</g>
<g id="Group_12">
<g id="Group_13">
<path id="Vector_11" d="M223.999 71.8389V80.125H214.872V71.8389H223.999ZM223.562 79.7287V72.2352H215.308V79.7287H223.562Z" fill="white"/>
</g>
<g id="Group_14">
<path id="Vector_12" d="M215.308 63.9493V72.2354H206.182V63.9493H215.308ZM214.872 71.839V64.3456H206.618V71.839H214.872Z" fill="white"/>
</g>
<g id="Group_15">
<path id="Vector_13" d="M215.308 56.0637V64.3445H206.182V56.0637H215.308ZM214.872 63.9482V56.4601H206.618V63.9535H214.872V63.9482Z" fill="white"/>
</g>
<g id="Group_16">
<path id="Vector_14" d="M206.618 63.9493V72.2354H197.497V63.9493H206.618ZM206.182 71.839V64.3456H197.934V71.839H206.182Z" fill="white"/>
</g>
<g id="Group_17">
<path id="Vector_15" d="M223.999 63.9493V72.2354H214.872V63.9493H223.999ZM223.562 71.839V64.3456H215.308V71.839H223.562Z" fill="white"/>
</g>
<g id="Group_18">
<path id="Vector_16" d="M223.999 56.0637V64.3445H214.872V56.0637H223.999ZM223.562 63.9482V56.4601H215.308V63.9535H223.562V63.9482Z" fill="white"/>
</g>
<g id="Group_19">
<path id="Vector_17" d="M223.999 48.1741V56.4602H214.872V48.1741H223.999ZM223.562 56.0639V48.5705H215.308V56.0639H223.562Z" fill="white"/>
</g>
<g id="Group_20">
<path id="Vector_18" d="M215.308 71.8389V80.125H206.182V71.8389H215.308ZM214.872 79.7287V72.2352H206.618V79.7287H214.872Z" fill="white"/>
</g>
<g id="Group_21">
<path id="Vector_19" d="M206.618 71.8389V80.125H197.497V71.8389H206.618ZM206.182 79.7287V72.2352H197.934V79.7287H206.182Z" fill="white"/>
</g>
<g id="Group_22">
<path id="Vector_20" d="M197.934 71.8389V80.125H188.807V71.8389H197.934ZM197.497 79.7287V72.2352H189.243V79.7287H197.497Z" fill="white"/>
</g>
</g>
<rect id="Rectangle 75" x="198" y="63" width="8" height="8" fill="white"/>
<rect id="Rectangle 76" x="206" y="72" width="8" height="8" fill="white"/>
<rect id="Rectangle 77" x="206" y="56" width="8" height="7" fill="white"/>
</g>
<g id="blueMiddle">
<g id="Rectangle 84">
<rect x="97" y="87" width="61" height="55" rx="10" fill="#78C8F3"/>
<rect x="97.5" y="87.5" width="60" height="54" rx="9.5" stroke="#009AEB" stroke-opacity="0.72"/>
</g>
<g id="Group_23">
<g id="Group_24">
<path id="Vector_21" d="M157.858 133.714V142H148.731V133.714H157.858ZM157.422 141.604V134.11H149.168V141.604H157.422Z" fill="white"/>
</g>
<g id="Group_25">
<path id="Vector_22" d="M149.168 125.824V134.11H140.041V125.824H149.168ZM148.731 133.714V126.221H140.478V133.714H148.731Z" fill="white"/>
</g>
<g id="Group_26">
<path id="Vector_23" d="M149.168 117.939V126.22H140.041V117.939H149.168ZM148.731 125.823V118.335H140.478V125.828H148.731V125.823Z" fill="white"/>
</g>
<g id="Group_27">
<path id="Vector_24" d="M140.478 125.824V134.11H131.356V125.824H140.478ZM140.041 133.714V126.221H131.793V133.714H140.041Z" fill="white"/>
</g>
<g id="Group_28">
<path id="Vector_25" d="M157.858 125.824V134.11H148.731V125.824H157.858ZM157.422 133.714V126.221H149.168V133.714H157.422Z" fill="white"/>
</g>
<g id="Group_29">
<path id="Vector_26" d="M157.858 117.939V126.22H148.731V117.939H157.858ZM157.422 125.823V118.335H149.168V125.828H157.422V125.823Z" fill="white"/>
</g>
<g id="Group_30">
<path id="Vector_27" d="M157.858 110.049V118.335H148.731V110.049H157.858ZM157.422 117.939V110.445H149.168V117.939H157.422Z" fill="white"/>
</g>
<g id="Group_31">
<path id="Vector_28" d="M149.168 133.714V142H140.041V133.714H149.168ZM148.731 141.604V134.11H140.478V141.604H148.731Z" fill="white"/>
</g>
<g id="Group_32">
<path id="Vector_29" d="M140.478 133.714V142H131.356V133.714H140.478ZM140.041 141.604V134.11H131.793V141.604H140.041Z" fill="white"/>
</g>
<g id="Group_33">
<path id="Vector_30" d="M131.793 133.714V142H122.666V133.714H131.793ZM131.357 141.604V134.11H123.103V141.604H131.357Z" fill="white"/>
</g>
</g>
<rect id="Rectangle 85" x="132" y="125" width="7" height="8" fill="white"/>
<rect id="Rectangle 86" x="139" y="134" width="9" height="8" fill="white"/>
<rect id="Rectangle 87" x="139" y="118" width="9" height="7" fill="white"/>
</g>
<g id="orangeMiddle">
<rect id="Rectangle 68" x="97.5" y="25.5" width="60" height="54" rx="9.5" fill="#FFAC81" stroke="#DD7037"/>
<g id="Group_34">
<g id="Group_35">
<path id="Vector_31" d="M157.858 71.8389V80.125H148.731V71.8389H157.858ZM157.422 79.7287V72.2352H149.168V79.7287H157.422Z" fill="white"/>
</g>
<g id="Group_36">
<path id="Vector_32" d="M149.168 63.9493V72.2354H140.041V63.9493H149.168ZM148.731 71.839V64.3456H140.478V71.839H148.731Z" fill="white"/>
</g>
<g id="Group_37">
<path id="Vector_33" d="M149.168 56.0637V64.3445H140.041V56.0637H149.168ZM148.731 63.9482V56.4601H140.478V63.9535H148.731V63.9482Z" fill="white"/>
</g>
<g id="Group_38">
<path id="Vector_34" d="M140.478 63.9493V72.2354H131.356V63.9493H140.478ZM140.041 71.839V64.3456H131.793V71.839H140.041Z" fill="white"/>
</g>
<g id="Group_39">
<path id="Vector_35" d="M157.858 63.9493V72.2354H148.731V63.9493H157.858ZM157.422 71.839V64.3456H149.168V71.839H157.422Z" fill="white"/>
</g>
<g id="Group_40">
<path id="Vector_36" d="M157.858 56.0637V64.3445H148.731V56.0637H157.858ZM157.422 63.9482V56.4601H149.168V63.9535H157.422V63.9482Z" fill="white"/>
</g>
<g id="Group_41">
<path id="Vector_37" d="M157.858 48.1741V56.4602H148.731V48.1741H157.858ZM157.422 56.0639V48.5705H149.168V56.0639H157.422Z" fill="white"/>
</g>
<g id="Group_42">
<path id="Vector_38" d="M149.168 71.8389V80.125H140.041V71.8389H149.168ZM148.731 79.7287V72.2352H140.478V79.7287H148.731Z" fill="white"/>
</g>
<g id="Group_43">
<path id="Vector_39" d="M140.478 71.8389V80.125H131.356V71.8389H140.478ZM140.041 79.7287V72.2352H131.793V79.7287H140.041Z" fill="white"/>
</g>
<g id="Group_44">
<path id="Vector_40" d="M131.793 71.8389V80.125H122.666V71.8389H131.793ZM131.357 79.7287V72.2352H123.103V79.7287H131.357Z" fill="white"/>
</g>
</g>
<rect id="Rectangle 69" x="132" y="63" width="7" height="8" fill="white"/>
<rect id="Rectangle 70" x="139" y="72" width="9" height="8" fill="white"/>
<rect id="Rectangle 71" x="149" y="63" width="9" height="8" fill="white"/>
<rect id="Rectangle 72" x="149" y="49" width="9" height="7" fill="white"/>
<rect id="Rectangle 73" x="139" y="56" width="9" height="7" fill="white"/>
</g>
<g id="orangeLeft">
<rect id="Rectangle 78" x="31.5" y="87.5" width="60" height="54" rx="9.5" fill="#FFAC81" stroke="#DD7037"/>
<g id="Group_45">
<g id="Group_46">
<path id="Vector_41" d="M91.7178 133.714V142H82.5908V133.714H91.7178ZM91.2812 141.604V134.11H83.0274V141.604H91.2812Z" fill="white"/>
</g>
<g id="Group_47">
<path id="Vector_42" d="M83.0276 125.824V134.11H73.9006V125.824H83.0276ZM82.591 133.714V126.221H74.3372V133.714H82.591Z" fill="white"/>
</g>
<g id="Group_48">
<path id="Vector_43" d="M83.0276 117.939V126.22H73.9006V117.939H83.0276ZM82.591 125.823V118.335H74.3372V125.828H82.591V125.823Z" fill="white"/>
</g>
<g id="Group_49">
<path id="Vector_44" d="M74.3372 125.824V134.11H65.2161V125.824H74.3372ZM73.9007 133.714V126.221H65.6526V133.714H73.9007Z" fill="white"/>
</g>
<g id="Group_50">
<path id="Vector_45" d="M91.7178 125.824V134.11H82.5908V125.824H91.7178ZM91.2812 133.714V126.221H83.0274V133.714H91.2812Z" fill="white"/>
</g>
<g id="Group_51">
<path id="Vector_46" d="M91.7178 117.939V126.22H82.5908V117.939H91.7178ZM91.2812 125.823V118.335H83.0274V125.828H91.2812V125.823Z" fill="white"/>
</g>
<g id="Group_52">
<path id="Vector_47" d="M91.7178 110.049V118.335H82.5908V110.049H91.7178ZM91.2812 117.939V110.445H83.0274V117.939H91.2812Z" fill="white"/>
</g>
<g id="Group_53">
<path id="Vector_48" d="M83.0276 133.714V142H73.9006V133.714H83.0276ZM82.591 141.604V134.11H74.3372V141.604H82.591Z" fill="white"/>
</g>
<g id="Group_54">
<path id="Vector_49" d="M74.3372 133.714V142H65.2161V133.714H74.3372ZM73.9007 141.604V134.11H65.6526V141.604H73.9007Z" fill="white"/>
</g>
<g id="Group_55">
<path id="Vector_50" d="M65.6529 133.714V142H56.5259V133.714H65.6529ZM65.2163 141.604V134.11H56.9624V141.604H65.2163Z" fill="white"/>
</g>
</g>
<rect id="Rectangle 79" x="66" y="125" width="7" height="8" fill="white"/>
<rect id="Rectangle 80" x="73" y="134" width="9" height="8" fill="white"/>
<rect id="Rectangle 81" x="83" y="125" width="9" height="8" fill="white"/>
<rect id="Rectangle 82" x="83" y="110" width="9" height="8" fill="white"/>
<rect id="Rectangle 83" x="73" y="118" width="9" height="7" fill="white"/>
</g>
<g id="orangeRight">
<rect id="Rectangle 88" x="163.5" y="87.5" width="60" height="54" rx="9.5" fill="#FFAC81" stroke="#DD7037"/>
<g id="Group_56">
<g id="Group_57">
<path id="Vector_51" d="M223.999 133.714V142H214.872V133.714H223.999ZM223.562 141.604V134.11H215.308V141.604H223.562Z" fill="white"/>
</g>
<g id="Group_58">
<path id="Vector_52" d="M215.308 125.824V134.11H206.182V125.824H215.308ZM214.872 133.714V126.221H206.618V133.714H214.872Z" fill="white"/>
</g>
<g id="Group_59">
<path id="Vector_53" d="M215.308 117.939V126.22H206.182V117.939H215.308ZM214.872 125.823V118.335H206.618V125.828H214.872V125.823Z" fill="white"/>
</g>
<g id="Group_60">
<path id="Vector_54" d="M206.618 125.824V134.11H197.497V125.824H206.618ZM206.182 133.714V126.221H197.934V133.714H206.182Z" fill="white"/>
</g>
<g id="Group_61">
<path id="Vector_55" d="M223.999 125.824V134.11H214.872V125.824H223.999ZM223.562 133.714V126.221H215.308V133.714H223.562Z" fill="white"/>
</g>
<g id="Group_62">
<path id="Vector_56" d="M223.999 117.939V126.22H214.872V117.939H223.999ZM223.562 125.823V118.335H215.308V125.828H223.562V125.823Z" fill="white"/>
</g>
<g id="Group_63">
<path id="Vector_57" d="M223.999 110.049V118.335H214.872V110.049H223.999ZM223.562 117.939V110.445H215.308V117.939H223.562Z" fill="white"/>
</g>
<g id="Group_64">
<path id="Vector_58" d="M215.308 133.714V142H206.182V133.714H215.308ZM214.872 141.604V134.11H206.618V141.604H214.872Z" fill="white"/>
</g>
<g id="Group_65">
<path id="Vector_59" d="M206.618 133.714V142H197.497V133.714H206.618ZM206.182 141.604V134.11H197.934V141.604H206.182Z" fill="white"/>
</g>
<g id="Group_66">
<path id="Vector_60" d="M197.934 133.714V142H188.807V133.714H197.934ZM197.497 141.604V134.11H189.243V141.604H197.497Z" fill="white"/>
</g>
</g>
<rect id="Rectangle 89" x="198" y="125" width="8" height="8" fill="white"/>
<rect id="Rectangle 90" x="206" y="134" width="8" height="8" fill="white"/>
<rect id="Rectangle 91" x="215" y="125" width="9" height="8" fill="white"/>
<rect id="Rectangle 92" x="215" y="110" width="9" height="8" fill="white"/>
<rect id="Rectangle 93" x="206" y="118" width="8" height="7" fill="white"/>
</g>
</g>
</svg>
