<svg width="237" height="206" viewBox="0 0 237 206" fill="none" xmlns="http://www.w3.org/2000/svg">
<g id="Frame 6">
<g id="Flower">
<g id="Petals">
<g id="Round Petal">
<g id="Union">
<mask id="path-1-inside-1_46_2" fill="white">
<path fill-rule="evenodd" clip-rule="evenodd" d="M152.09 106.525C159.837 108.89 166.908 113.701 172.036 120.759C184.576 138.019 180.75 162.177 163.49 174.717C146.23 187.257 122.072 183.43 109.532 166.171C104.404 159.113 102.013 150.901 102.158 142.803L102.015 142.907L102.213 141.315C102.312 139.56 102.53 137.813 102.866 136.088L107.637 97.8404L144.235 104.99C146.894 105.229 149.524 105.742 152.081 106.522L152.091 106.524L152.09 106.525Z"/>
</mask>
<path fill-rule="evenodd" clip-rule="evenodd" d="M152.09 106.525C159.837 108.89 166.908 113.701 172.036 120.759C184.576 138.019 180.75 162.177 163.49 174.717C146.23 187.257 122.072 183.43 109.532 166.171C104.404 159.113 102.013 150.901 102.158 142.803L102.015 142.907L102.213 141.315C102.312 139.56 102.53 137.813 102.866 136.088L107.637 97.8404L144.235 104.99C146.894 105.229 149.524 105.742 152.081 106.522L152.091 106.524L152.09 106.525Z" fill="#FFFAC5"/>
<path d="M172.036 120.759L171.227 121.347L171.227 121.347L172.036 120.759ZM152.09 106.525L151.502 105.716L149.879 106.895L151.798 107.481L152.09 106.525ZM163.49 174.717L162.902 173.908L162.902 173.908L163.49 174.717ZM102.158 142.803L103.158 142.821L103.194 140.814L101.57 141.994L102.158 142.803ZM102.015 142.907L101.023 142.783L100.737 145.071L102.603 143.716L102.015 142.907ZM102.213 141.315L103.206 141.439L103.21 141.406L103.212 141.372L102.213 141.315ZM102.866 136.088L103.847 136.279L103.854 136.245L103.858 136.212L102.866 136.088ZM107.637 97.8404L107.829 96.8589L106.777 96.6535L106.645 97.7166L107.637 97.8404ZM144.235 104.99L144.044 105.971L144.094 105.981L144.146 105.986L144.235 104.99ZM152.081 106.522L151.79 107.479L151.839 107.494L151.889 107.504L152.081 106.522ZM152.091 106.524L152.679 107.333L154.537 105.983L152.283 105.543L152.091 106.524ZM172.845 120.171C167.585 112.932 160.33 107.994 152.382 105.569L151.798 107.481C159.345 109.785 166.231 114.471 171.227 121.347L172.845 120.171ZM164.078 175.526C181.784 162.661 185.709 137.878 172.845 120.171L171.227 121.347C183.442 138.16 179.715 161.692 162.902 173.908L164.078 175.526ZM108.723 166.758C121.588 184.465 146.371 188.39 164.078 175.526L162.902 173.908C146.089 186.123 122.557 182.396 110.341 165.583L108.723 166.758ZM101.158 142.785C101.01 151.093 103.463 159.519 108.723 166.758L110.341 165.583C105.345 158.707 103.017 150.71 103.158 142.821L101.158 142.785ZM102.603 143.716L102.746 143.612L101.57 141.994L101.427 142.098L102.603 143.716ZM101.221 141.192L101.023 142.783L103.007 143.031L103.206 141.439L101.221 141.192ZM101.884 135.897C101.54 137.666 101.316 139.458 101.215 141.259L103.212 141.372C103.308 139.661 103.521 137.959 103.847 136.279L101.884 135.897ZM106.645 97.7166L101.873 135.964L103.858 136.212L108.629 97.9642L106.645 97.7166ZM144.427 104.008L107.829 96.8589L107.445 98.8218L144.044 105.971L144.427 104.008ZM152.373 105.566C149.75 104.766 147.052 104.239 144.325 103.994L144.146 105.986C146.736 106.219 149.299 106.719 151.79 107.479L152.373 105.566ZM152.283 105.543L152.273 105.541L151.889 107.504L151.9 107.506L152.283 105.543ZM152.678 107.334L152.679 107.333L151.503 105.715L151.502 105.716L152.678 107.334Z" fill="#FFAC81" fill-opacity="0.43" mask="url(#path-1-inside-1_46_2)"/>
</g>
</g>
<g id="Round Petal_2">
<g id="Union_2">
<mask id="path-3-inside-2_46_2" fill="white">
<path fill-rule="evenodd" clip-rule="evenodd" d="M125.775 136.217C125.92 144.315 123.529 152.527 118.401 159.585C105.861 176.844 81.7038 180.671 64.4439 168.131C47.1841 155.591 43.3579 131.433 55.8979 114.173C61.0258 107.115 68.0963 102.304 75.8435 99.9389L75.7001 99.8347L77.275 99.5318C78.9754 99.0832 80.7042 98.7508 82.4482 98.5366L120.298 91.2554L124.808 128.272C125.402 130.874 125.727 133.535 125.775 136.207L125.777 136.217L125.775 136.217Z"/>
</mask>
<path fill-rule="evenodd" clip-rule="evenodd" d="M125.775 136.217C125.92 144.315 123.529 152.527 118.401 159.585C105.861 176.844 81.7038 180.671 64.4439 168.131C47.1841 155.591 43.3579 131.433 55.8979 114.173C61.0258 107.115 68.0963 102.304 75.8435 99.9389L75.7001 99.8347L77.275 99.5318C78.9754 99.0832 80.7042 98.7508 82.4482 98.5366L120.298 91.2554L124.808 128.272C125.402 130.874 125.727 133.535 125.775 136.207L125.777 136.217L125.775 136.217Z" fill="#FFFAC5"/>
<path d="M118.401 159.585L117.592 158.997L117.592 158.997L118.401 159.585ZM125.775 136.217L126.363 135.408L124.74 134.228L124.776 136.234L125.775 136.217ZM64.4439 168.131L65.0317 167.322L65.0317 167.322L64.4439 168.131ZM75.8435 99.9389L76.1354 100.895L78.0548 100.309L76.4313 99.1299L75.8435 99.9389ZM75.7001 99.8347L75.5112 98.8527L73.2468 99.2883L75.1123 100.644L75.7001 99.8347ZM77.275 99.5318L77.4639 100.514L77.4972 100.507L77.53 100.499L77.275 99.5318ZM82.4482 98.5366L82.5702 99.5291L82.6038 99.525L82.6372 99.5186L82.4482 98.5366ZM120.298 91.2554L121.291 91.1344L121.161 90.071L120.109 90.2734L120.298 91.2554ZM124.808 128.272L123.816 128.393L123.822 128.444L123.833 128.494L124.808 128.272ZM125.775 136.207L124.775 136.225L124.776 136.277L124.783 136.328L125.775 136.207ZM125.777 136.217L125.189 137.026L127.047 138.376L126.769 136.096L125.777 136.217ZM119.21 160.172C124.47 152.933 126.924 144.507 126.775 136.199L124.776 136.234C124.917 144.123 122.588 152.121 117.592 158.997L119.21 160.172ZM63.8562 168.94C81.5628 181.804 106.346 177.879 119.21 160.172L117.592 158.997C105.377 175.81 81.8448 179.537 65.0317 167.322L63.8562 168.94ZM55.0889 113.585C42.2243 131.292 46.1495 156.075 63.8562 168.94L65.0317 167.322C48.2187 155.106 44.4915 131.574 56.7069 114.761L55.0889 113.585ZM75.5515 98.9824C67.6038 101.408 60.3489 106.346 55.0889 113.585L56.7069 114.761C61.7027 107.885 68.5889 103.199 76.1354 100.895L75.5515 98.9824ZM75.1123 100.644L75.2557 100.748L76.4313 99.1299L76.2879 99.0257L75.1123 100.644ZM77.0861 98.5498L75.5112 98.8527L75.889 100.817L77.4639 100.514L77.0861 98.5498ZM82.3263 97.544C80.5374 97.7638 78.7642 98.1048 77.0199 98.5649L77.53 100.499C79.1867 100.062 80.871 99.7379 82.5702 99.5291L82.3263 97.544ZM120.109 90.2734L82.2593 97.5546L82.6372 99.5186L120.487 92.2374L120.109 90.2734ZM125.801 128.151L121.291 91.1344L119.306 91.3763L123.816 128.393L125.801 128.151ZM126.775 136.189C126.725 133.448 126.392 130.719 125.783 128.049L123.833 128.494C124.412 131.03 124.728 133.622 124.775 136.225L126.775 136.189ZM126.769 136.096L126.768 136.086L124.783 136.328L124.784 136.338L126.769 136.096ZM125.188 137.026L125.189 137.026L126.364 135.408L126.363 135.408L125.188 137.026Z" fill="#FFAC81" fill-opacity="0.48" mask="url(#path-3-inside-2_46_2)"/>
</g>
</g>
<g id="Round Petal_3">
<g id="Union_3">
<mask id="path-5-inside-3_46_2" fill="white">
<path fill-rule="evenodd" clip-rule="evenodd" d="M89.4065 120.364C81.7489 123.004 73.2006 123.268 64.9035 120.572C44.6133 113.979 33.5093 92.1861 40.102 71.896C46.6946 51.6058 68.4875 40.5018 88.7777 47.0944C97.0748 49.7903 103.836 55.0279 108.479 61.6652L108.534 61.4967L109.308 62.9008C110.26 64.3794 111.111 65.9209 111.853 67.5133L130.475 101.261L96.6636 116.989C94.3719 118.358 91.9421 119.489 89.4153 120.361L89.4061 120.365L89.4065 120.364Z"/>
</mask>
<path fill-rule="evenodd" clip-rule="evenodd" d="M89.4065 120.364C81.7489 123.004 73.2006 123.268 64.9035 120.572C44.6133 113.979 33.5093 92.1861 40.102 71.896C46.6946 51.6058 68.4875 40.5018 88.7777 47.0944C97.0748 49.7903 103.836 55.0279 108.479 61.6652L108.534 61.4967L109.308 62.9008C110.26 64.3794 111.111 65.9209 111.853 67.5133L130.475 101.261L96.6636 116.989C94.3719 118.358 91.9421 119.489 89.4153 120.361L89.4061 120.365L89.4065 120.364Z" fill="#FFFAC5"/>
<path d="M64.9035 120.572L65.2125 119.621L65.2125 119.621L64.9035 120.572ZM89.4065 120.364L90.3575 120.673L90.9777 118.764L89.0805 119.418L89.4065 120.364ZM40.102 71.896L41.053 72.205L41.053 72.205L40.102 71.896ZM108.479 61.6652L107.659 62.2384L108.81 63.8828L109.43 61.9742L108.479 61.6652ZM108.534 61.4967L109.409 61.0135L108.295 58.9946L107.582 61.1876L108.534 61.4967ZM109.308 62.9008L108.433 63.3839L108.449 63.4136L108.468 63.4422L109.308 62.9008ZM111.853 67.5133L110.947 67.936L110.961 67.9668L110.978 67.9965L111.853 67.5133ZM130.475 101.261L130.896 102.167L131.868 101.716L131.35 100.778L130.475 101.261ZM96.6636 116.989L96.2418 116.082L96.195 116.104L96.1508 116.13L96.6636 116.989ZM89.4153 120.361L89.0891 119.415L89.0403 119.432L88.9935 119.454L89.4153 120.361ZM89.4061 120.365L88.455 120.056L87.7452 122.24L89.8278 121.272L89.4061 120.365ZM64.5945 121.523C73.1053 124.288 81.8766 124.018 89.7325 121.309L89.0805 119.418C81.6213 121.991 73.2959 122.247 65.2125 119.621L64.5945 121.523ZM39.1509 71.5869C32.3876 92.4024 43.779 114.759 64.5945 121.523L65.2125 119.621C45.4476 113.199 34.631 91.9699 41.053 72.205L39.1509 71.5869ZM89.0867 46.1434C68.2713 39.38 45.9142 50.7715 39.1509 71.5869L41.053 72.205C47.475 52.4401 68.7037 41.6235 88.4687 48.0455L89.0867 46.1434ZM109.298 61.092C104.535 54.2828 97.5975 48.9087 89.0867 46.1434L88.4687 48.0455C96.552 50.672 103.137 55.7731 107.659 62.2384L109.298 61.092ZM107.582 61.1876L107.528 61.3562L109.43 61.9742L109.485 61.8057L107.582 61.1876ZM110.184 62.4177L109.409 61.0135L107.658 61.9798L108.433 63.3839L110.184 62.4177ZM112.76 67.0907C111.998 65.4572 111.126 63.8762 110.149 62.3594L108.468 63.4422C109.395 64.8827 110.224 66.3845 110.947 67.936L112.76 67.0907ZM131.35 100.778L112.729 67.0302L110.978 67.9965L129.599 101.744L131.35 100.778ZM97.0853 117.896L130.896 102.167L130.053 100.354L96.2418 116.082L97.0853 117.896ZM89.7415 121.306C92.3335 120.411 94.8258 119.251 97.1764 117.847L96.1508 116.13C93.9181 117.464 91.5508 118.566 89.0891 119.415L89.7415 121.306ZM89.8278 121.272L89.8371 121.267L88.9935 119.454L88.9843 119.458L89.8278 121.272ZM88.4554 120.055L88.455 120.056L90.3571 120.674L90.3575 120.673L88.4554 120.055Z" fill="#FF928B" fill-opacity="0.5" mask="url(#path-5-inside-3_46_2)"/>
</g>
</g>
<g id="Round Petal_4">
<g id="Union_4">
<mask id="path-7-inside-4_46_2" fill="white">
<path fill-rule="evenodd" clip-rule="evenodd" d="M93.2451 80.8746C88.3675 74.4078 85.4755 66.3592 85.4755 57.6351C85.4755 36.3008 102.77 19.0059 124.105 19.0059C145.439 19.0059 162.734 36.3008 162.734 57.6351C162.734 66.3592 159.842 74.4078 154.964 80.8746H155.142L154.046 82.0453C152.934 83.4077 151.73 84.6928 150.445 85.8913L124.104 114.03L98.6973 86.7336C96.6873 84.9771 94.8609 83.0158 93.2508 80.8821L93.2438 80.8746H93.2451Z"/>
</mask>
<path fill-rule="evenodd" clip-rule="evenodd" d="M93.2451 80.8746C88.3675 74.4078 85.4755 66.3592 85.4755 57.6351C85.4755 36.3008 102.77 19.0059 124.105 19.0059C145.439 19.0059 162.734 36.3008 162.734 57.6351C162.734 66.3592 159.842 74.4078 154.964 80.8746H155.142L154.046 82.0453C152.934 83.4077 151.73 84.6928 150.445 85.8913L124.104 114.03L98.6973 86.7336C96.6873 84.9771 94.8609 83.0158 93.2508 80.8821L93.2438 80.8746H93.2451Z" fill="#FFFAC5"/>
<path d="M85.4755 57.6351L86.4755 57.6351L86.4755 57.6351L85.4755 57.6351ZM93.2451 80.8746V81.8746H95.252L94.0435 80.2724L93.2451 80.8746ZM124.105 19.0059L124.105 20.0059L124.105 20.0059L124.105 19.0059ZM154.964 80.8746L154.166 80.2724L152.958 81.8746H154.964V80.8746ZM155.142 80.8746L155.872 81.558L157.448 79.8746H155.142V80.8746ZM154.046 82.0453L153.316 81.3619L153.292 81.3867L153.271 81.413L154.046 82.0453ZM150.445 85.8913L149.763 85.1599L149.738 85.1831L149.715 85.2078L150.445 85.8913ZM124.104 114.03L123.372 114.711L124.102 115.495L124.834 114.713L124.104 114.03ZM98.6973 86.7336L99.4293 86.0523L99.3942 86.0146L99.3554 85.9806L98.6973 86.7336ZM93.2508 80.8821L94.049 80.2797L94.0179 80.2385L93.9828 80.2007L93.2508 80.8821ZM93.2438 80.8746V79.8746H90.9469L92.5118 81.5559L93.2438 80.8746ZM84.4755 57.6351C84.4755 66.5839 87.4428 74.8425 92.4468 81.4768L94.0435 80.2724C89.2922 73.9731 86.4755 66.1345 86.4755 57.6351L84.4755 57.6351ZM124.105 18.0059C102.218 18.0059 84.4755 35.7485 84.4755 57.6351L86.4755 57.6351C86.4755 36.8531 103.323 20.0059 124.105 20.0059V18.0059ZM163.734 57.6351C163.734 35.7485 145.991 18.0059 124.105 18.0059L124.105 20.0059C144.887 20.0059 161.734 36.8531 161.734 57.6351H163.734ZM155.763 81.4768C160.767 74.8425 163.734 66.5839 163.734 57.6351H161.734C161.734 66.1345 158.917 73.9731 154.166 80.2724L155.763 81.4768ZM155.142 79.8746H154.964V81.8746H155.142V79.8746ZM154.776 82.7288L155.872 81.558L154.412 80.1912L153.316 81.3619L154.776 82.7288ZM151.127 86.6226C152.445 85.3933 153.68 84.0752 154.82 82.6777L153.271 81.413C152.188 82.7403 151.015 83.9923 149.763 85.1599L151.127 86.6226ZM124.834 114.713L151.175 86.5747L149.715 85.2078L123.374 113.346L124.834 114.713ZM97.9653 87.4149L123.372 114.711L124.836 113.348L99.4293 86.0523L97.9653 87.4149ZM92.4526 81.4844C94.1042 83.6731 95.9776 85.6849 98.0393 87.4866L99.3554 85.9806C97.3971 84.2693 95.6177 82.3584 94.049 80.2797L92.4526 81.4844ZM92.5118 81.5559L92.5188 81.5634L93.9828 80.2007L93.9758 80.1933L92.5118 81.5559ZM93.2451 79.8746H93.2438V81.8746H93.2451V79.8746Z" fill="#FF928B" fill-opacity="0.46" mask="url(#path-7-inside-4_46_2)"/>
</g>
</g>
<g id="Round Petal_5">
<g id="Union_5">
<mask id="path-9-inside-5_46_2" fill="white">
<path fill-rule="evenodd" clip-rule="evenodd" d="M131.984 72.3217C136.627 65.6845 143.388 60.4468 151.685 57.7509C171.975 51.1583 193.768 62.2623 200.361 82.5525C206.953 102.843 195.849 124.636 175.559 131.228C167.262 133.924 158.714 133.661 151.056 131.02L151.111 131.189L149.659 130.508C148.019 129.872 146.425 129.124 144.888 128.273L109.987 111.916L128.096 79.3176C129.146 76.8631 130.447 74.5201 131.978 72.3294L131.983 72.3204L131.984 72.3217Z"/>
</mask>
<path fill-rule="evenodd" clip-rule="evenodd" d="M131.984 72.3217C136.627 65.6845 143.388 60.4468 151.685 57.7509C171.975 51.1583 193.768 62.2623 200.361 82.5525C206.953 102.843 195.849 124.636 175.559 131.228C167.262 133.924 158.714 133.661 151.056 131.02L151.111 131.189L149.659 130.508C148.019 129.872 146.425 129.124 144.888 128.273L109.987 111.916L128.096 79.3176C129.146 76.8631 130.447 74.5201 131.978 72.3294L131.983 72.3204L131.984 72.3217Z" fill="#FFFAC5"/>
<path d="M151.685 57.7509L151.994 58.702L151.994 58.702L151.685 57.7509ZM131.984 72.3217L131.033 72.6307L131.653 74.5393L132.803 72.8949L131.984 72.3217ZM200.361 82.5525L199.41 82.8615L199.41 82.8615L200.361 82.5525ZM151.056 131.02L151.382 130.075L149.485 129.421L150.105 131.329L151.056 131.02ZM151.111 131.189L150.686 132.094L152.774 133.073L152.062 130.88L151.111 131.189ZM149.659 130.508L150.083 129.603L150.052 129.588L150.021 129.576L149.659 130.508ZM144.888 128.273L145.373 127.398L145.344 127.381L145.313 127.367L144.888 128.273ZM109.987 111.916L109.113 111.43L108.593 112.366L109.563 112.821L109.987 111.916ZM128.096 79.3176L128.97 79.8032L128.995 79.7581L129.016 79.7107L128.096 79.3176ZM131.978 72.3294L132.798 72.9024L132.827 72.8601L132.853 72.815L131.978 72.3294ZM131.983 72.3204L132.934 72.0114L132.225 69.8269L131.109 71.8348L131.983 72.3204ZM151.376 56.7999C142.865 59.5652 135.928 64.9394 131.164 71.7485L132.803 72.8949C137.326 66.4296 143.91 61.3285 151.994 58.702L151.376 56.7999ZM201.312 82.2434C194.548 61.428 172.191 50.0365 151.376 56.7999L151.994 58.702C171.759 52.28 192.987 63.0966 199.41 82.8615L201.312 82.2434ZM175.868 132.179C196.684 125.416 208.075 103.059 201.312 82.2434L199.41 82.8615C205.832 102.626 195.015 123.855 175.25 130.277L175.868 132.179ZM150.73 131.966C158.586 134.675 167.357 134.945 175.868 132.179L175.25 130.277C167.167 132.904 158.841 132.647 151.382 130.075L150.73 131.966ZM152.062 130.88L152.007 130.711L150.105 131.329L150.16 131.498L152.062 130.88ZM149.234 131.414L150.686 132.094L151.535 130.283L150.083 129.603L149.234 131.414ZM144.404 129.147C145.98 130.021 147.615 130.787 149.297 131.44L150.021 129.576C148.424 128.956 146.871 128.228 145.373 127.398L144.404 129.147ZM109.563 112.821L144.464 129.178L145.313 127.367L110.412 111.01L109.563 112.821ZM127.222 78.8319L109.113 111.43L110.862 112.401L128.97 79.8032L127.222 78.8319ZM131.159 71.7563C129.588 74.0035 128.253 76.4069 127.177 78.9244L129.016 79.7107C130.038 77.3194 131.306 75.0366 132.798 72.9024L131.159 71.7563ZM131.109 71.8348L131.104 71.8437L132.853 72.815L132.858 72.8061L131.109 71.8348ZM132.935 72.0127L132.934 72.0114L131.032 72.6294L131.033 72.6307L132.935 72.0127Z" fill="#FF928B" fill-opacity="0.34" mask="url(#path-9-inside-5_46_2)"/>
</g>
</g>
</g>
<g id="Pollen Core">
<path id="Star 8" d="M115.984 80.9082C116.215 78.1184 120.298 78.1184 120.53 80.9082V80.9082C120.719 83.1924 123.781 83.8015 124.83 81.7637V81.7637C126.112 79.2748 129.884 80.8374 129.03 83.5034V83.5034C128.331 85.6861 130.927 87.4208 132.676 85.9396V85.9396C134.813 84.1305 137.7 87.0179 135.891 89.1541V89.1541C134.41 90.9032 136.144 93.4993 138.327 92.8002V92.8002C140.993 91.9463 142.556 95.7188 140.067 97.0001V97.0001C138.029 98.0493 138.638 101.112 140.922 101.301V101.301C143.712 101.532 143.712 105.616 140.922 105.847V105.847C138.638 106.036 138.029 109.099 140.067 110.148V110.148C142.556 111.429 140.993 115.202 138.327 114.348V114.348C136.144 113.649 134.41 116.245 135.891 117.994V117.994C137.7 120.13 134.813 123.017 132.676 121.208V121.208C130.927 119.727 128.331 121.462 129.03 123.645V123.645C129.884 126.311 126.112 127.873 124.83 125.384V125.384C123.781 123.347 120.719 123.956 120.53 126.24V126.24C120.298 129.03 116.215 129.03 115.984 126.24V126.24C115.794 123.956 112.732 123.347 111.683 125.384V125.384C110.401 127.873 106.629 126.311 107.483 123.645V123.645C108.182 121.462 105.586 119.727 103.837 121.208V121.208C101.7 123.017 98.8132 120.13 100.622 117.994V117.994C102.103 116.245 100.369 113.649 98.186 114.348V114.348C95.5201 115.202 93.9574 111.429 96.4463 110.148V110.148C98.4841 109.099 97.875 106.036 95.5908 105.847V105.847C92.8011 105.616 92.8011 101.532 95.5908 101.301V101.301C97.875 101.112 98.4841 98.0493 96.4463 97.0001V97.0001C93.9574 95.7188 95.5201 91.9463 98.186 92.8002V92.8002C100.369 93.4993 102.103 90.9032 100.622 89.1541V89.1541C98.8132 87.0179 101.7 84.1305 103.837 85.9396V85.9396C105.586 87.4208 108.182 85.6861 107.483 83.5034V83.5034C106.629 80.8374 110.401 79.2748 111.683 81.7637V81.7637C112.732 83.8015 115.794 83.1924 115.984 80.9082V80.9082Z" fill="#FFAC81"/>
<g id="Group 139">
<g id="Frame 4">
<path id="Vector 54" d="M144.814 77.9152L115.115 107.614" stroke="#FF928B" stroke-width="2"/>
<circle id="Ellipse 34" cx="144.814" cy="77.9152" r="6" transform="rotate(45 144.814 77.9152)" fill="#FFAC81"/>
</g>
<g id="Frame 4_2">
<path id="Vector 54_2" d="M152.61 90.0311L113.808 106.104" stroke="#FF928B" stroke-width="2"/>
<circle id="Ellipse 34_2" cx="152.611" cy="90.0311" r="6" transform="rotate(67.5 152.611 90.0311)" fill="#FFAC81"/>
</g>
<g id="Frame 4_3">
<path id="Vector 54_3" d="M155.178 104.209L113.178 104.209" stroke="#FF928B" stroke-width="2"/>
<circle id="Ellipse 34_3" cx="155.178" cy="104.209" r="6" transform="rotate(90 155.178 104.209)" fill="#FFAC81"/>
</g>
<g id="Frame 4_4">
<path id="Vector 54_4" d="M152.125 118.29L113.322 102.217" stroke="#FF928B" stroke-width="2"/>
<circle id="Ellipse 34_4" cx="152.125" cy="118.29" r="6" transform="rotate(112.5 152.125 118.29)" fill="#FFAC81"/>
</g>
<g id="Frame 4_5">
<path id="Vector 54_5" d="M143.916 130.13L114.218 100.432" stroke="#FF928B" stroke-width="2"/>
<circle id="Ellipse 34_5" cx="143.915" cy="130.13" r="6" transform="rotate(135 143.915 130.13)" fill="#FFAC81"/>
</g>
<g id="Frame 4_6">
<path id="Vector 54_6" d="M131.799 137.928L115.726 99.1253" stroke="#FF928B" stroke-width="2"/>
<circle id="Ellipse 34_6" cx="131.8" cy="137.928" r="6" transform="rotate(157.5 131.8 137.928)" fill="#FFAC81"/>
</g>
<g id="Frame 4_7">
<path id="Vector 54_7" d="M117.622 140.496L117.622 98.4958" stroke="#FF928B" stroke-width="2"/>
<circle id="Ellipse 34_7" cx="117.622" cy="140.496" r="6" transform="rotate(180 117.622 140.496)" fill="#FFAC81"/>
</g>
<g id="Frame 4_8">
<path id="Vector 54_8" d="M103.541 137.442L119.614 98.6394" stroke="#FF928B" stroke-width="2"/>
<circle id="Ellipse 34_8" cx="103.542" cy="137.442" r="6" transform="rotate(-157.5 103.542 137.442)" fill="#FFAC81"/>
</g>
<g id="Frame 4_9">
<path id="Vector 54_9" d="M91.7012 129.233L121.4 99.5343" stroke="#FF928B" stroke-width="2"/>
<circle id="Ellipse 34_9" cx="91.7012" cy="129.233" r="6" transform="rotate(-135 91.7012 129.233)" fill="#FFAC81"/>
</g>
<g id="Frame 4_10">
<path id="Vector 54_10" d="M83.9044 117.117L122.707 101.044" stroke="#FF928B" stroke-width="2"/>
<circle id="Ellipse 34_10" cx="83.903" cy="117.117" r="6" transform="rotate(-112.5 83.903 117.117)" fill="#FFAC81"/>
</g>
<g id="Frame 4_11">
<path id="Vector 54_11" d="M81.3348 102.939L123.335 102.939" stroke="#FF928B" stroke-width="2"/>
<circle id="Ellipse 34_11" cx="81.3348" cy="102.939" r="6" transform="rotate(-90 81.3348 102.939)" fill="#FFAC81"/>
</g>
<g id="Frame 4_12">
<path id="Vector 54_12" d="M84.3903 88.8582L123.193 104.931" stroke="#FF928B" stroke-width="2"/>
<circle id="Ellipse 34_12" cx="84.3898" cy="88.8582" r="6" transform="rotate(-67.5 84.3898 88.8582)" fill="#FFAC81"/>
</g>
<g id="Frame 4_13">
<path id="Vector 54_13" d="M92.5988 77.0175L122.297 106.716" stroke="#FF928B" stroke-width="2"/>
<circle id="Ellipse 34_13" cx="92.5997" cy="77.0175" r="6" transform="rotate(-45 92.5997 77.0175)" fill="#FFAC81"/>
</g>
<g id="Frame 4_14">
<path id="Vector 54_14" d="M104.716 69.2198L120.789 108.023" stroke="#FF928B" stroke-width="2"/>
<circle id="Ellipse 34_14" cx="104.716" cy="69.2198" r="6" transform="rotate(-22.5 104.716 69.2198)" fill="#FFAC81"/>
</g>
<g id="Frame 4_15">
<path id="Vector 54_15" d="M118.893 66.6522V108.652" stroke="#FF928B" stroke-width="2"/>
<circle id="Ellipse 34_15" cx="118.894" cy="66.6522" r="6" fill="#FFAC81"/>
</g>
<g id="Frame 4_16">
<path id="Vector 54_16" d="M132.972 69.7056L116.899 108.509" stroke="#FF928B" stroke-width="2"/>
<circle id="Ellipse 34_16" cx="132.971" cy="69.7056" r="6" transform="rotate(22.5 132.971 69.7056)" fill="#FFAC81"/>
</g>
</g>
</g>
</g>
<g id="Rose">
<circle id="Ellipse 44" cx="37.7734" cy="27.5" r="17.5" fill="#FF928B"/>
<g id="Rose Core">
<path id="Subtract" fill-rule="evenodd" clip-rule="evenodd" d="M46.3461 27.5481C41.5146 27.5481 37.5977 23.6322 37.5961 18.801C37.5946 23.6322 33.6776 27.5481 28.8461 27.5481C33.6786 27.5481 37.5961 31.4656 37.5961 36.2981C37.5961 31.4656 41.5136 27.5481 46.3461 27.5481Z" fill="#93141A"/>
<path id="Vector 58" d="M37.769 27.6923C37.5638 22.7778 37.6459 12.359 39.6154 10" stroke="#E76268" stroke-width="2" stroke-linecap="round"/>
<path id="Vector 59" d="M37.6923 27.7843C42.5 27.5381 52.6923 27.6366 55 30" stroke="#E76268" stroke-width="2" stroke-linecap="round"/>
<path id="Vector 60" d="M37.6004 27.6923C37.8466 32.5 37.7481 42.6923 35.3847 45" stroke="#E76268" stroke-width="2" stroke-linecap="round"/>
<path id="Vector 61" d="M37.6923 27.6003C32.7778 27.8465 22.359 27.748 20 25.3846" stroke="#E76268" stroke-width="2" stroke-linecap="round"/>
</g>
</g>
<g id="Rose_2">
<circle id="Ellipse 44_2" cx="200.078" cy="162.922" r="9.92249" fill="#FF928B"/>
<g id="Rose Core_2">
<path id="Subtract_2" fill-rule="evenodd" clip-rule="evenodd" d="M195.016 162.95C197.756 162.95 199.977 160.729 199.977 157.988C199.977 160.729 202.198 162.95 204.938 162.95C202.198 162.95 199.977 165.171 199.977 167.911C199.977 165.171 197.756 162.95 195.016 162.95Z" fill="#93141A"/>
<path id="Vector 58_2" d="M200.075 163.032C199.959 160.245 200.005 154.338 201.122 153" stroke="#E76268" stroke-width="2" stroke-linecap="round"/>
<path id="Vector 59_2" d="M200.032 163.084C202.757 162.944 208.537 163 209.845 164.34" stroke="#E76268" stroke-width="2" stroke-linecap="round"/>
<path id="Vector 60_2" d="M199.979 163.032C200.119 165.757 200.063 171.537 198.723 172.845" stroke="#E76268" stroke-width="2" stroke-linecap="round"/>
<path id="Vector 61_2" d="M200.032 162.979C197.245 163.119 191.338 163.063 190 161.723" stroke="#E76268" stroke-width="2" stroke-linecap="round"/>
</g>
</g>
</g>
</svg>
