<svg width="611" height="190" viewBox="0 0 611 190" fill="none" xmlns="http://www.w3.org/2000/svg">
<g id="Frame 8">
<g id="card">
<rect id="card_2" x="89.4054" y="27.5" width="163.189" height="108.467" fill="white" stroke="black"/>
<path id="CONTACT ME" d="M112.517 52.3678C111.464 52.3678 110.484 52.1878 109.577 51.8278C108.684 51.4545 107.897 50.9345 107.217 50.2678C106.551 49.6012 106.031 48.8278 105.657 47.9478C105.284 47.0545 105.097 46.0945 105.097 45.0678C105.097 44.0412 105.284 43.0878 105.657 42.2078C106.031 41.3145 106.551 40.5412 107.217 39.8878C107.884 39.2345 108.664 38.7278 109.557 38.3678C110.464 37.9945 111.444 37.8078 112.497 37.8078C113.617 37.8078 114.611 37.9878 115.477 38.3478C116.357 38.7078 117.124 39.2012 117.777 39.8278L115.677 41.9478C115.304 41.5478 114.851 41.2345 114.317 41.0078C113.797 40.7812 113.191 40.6678 112.497 40.6678C111.884 40.6678 111.317 40.7745 110.797 40.9878C110.291 41.1878 109.851 41.4812 109.477 41.8678C109.117 42.2545 108.831 42.7212 108.617 43.2678C108.417 43.8145 108.317 44.4145 108.317 45.0678C108.317 45.7345 108.417 46.3412 108.617 46.8878C108.831 47.4345 109.117 47.9012 109.477 48.2878C109.851 48.6745 110.291 48.9745 110.797 49.1878C111.317 49.4012 111.884 49.5078 112.497 49.5078C113.217 49.5078 113.844 49.3945 114.377 49.1678C114.911 48.9412 115.371 48.6278 115.757 48.2278L117.877 50.3478C117.197 50.9745 116.417 51.4678 115.537 51.8278C114.671 52.1878 113.664 52.3678 112.517 52.3678ZM125.78 52.3878C124.713 52.3878 123.727 52.2012 122.82 51.8278C121.927 51.4545 121.14 50.9345 120.46 50.2678C119.78 49.6012 119.253 48.8278 118.88 47.9478C118.507 47.0545 118.32 46.0945 118.32 45.0678C118.32 44.0278 118.507 43.0678 118.88 42.1878C119.253 41.3078 119.773 40.5412 120.44 39.8878C121.107 39.2212 121.887 38.7078 122.78 38.3478C123.687 37.9745 124.673 37.7878 125.74 37.7878C126.793 37.7878 127.767 37.9745 128.66 38.3478C129.567 38.7078 130.353 39.2212 131.02 39.8878C131.7 40.5412 132.227 41.3145 132.6 42.2078C132.973 43.0878 133.16 44.0478 133.16 45.0878C133.16 46.1145 132.973 47.0745 132.6 47.9678C132.227 48.8478 131.707 49.6212 131.04 50.2878C130.373 50.9412 129.587 51.4545 128.68 51.8278C127.787 52.2012 126.82 52.3878 125.78 52.3878ZM125.74 49.5278C126.58 49.5278 127.313 49.3412 127.94 48.9678C128.58 48.5945 129.073 48.0745 129.42 47.4078C129.767 46.7278 129.94 45.9478 129.94 45.0678C129.94 44.4012 129.84 43.8012 129.64 43.2678C129.44 42.7212 129.153 42.2545 128.78 41.8678C128.407 41.4678 127.96 41.1678 127.44 40.9678C126.933 40.7545 126.367 40.6478 125.74 40.6478C124.9 40.6478 124.16 40.8345 123.52 41.2078C122.893 41.5678 122.407 42.0812 122.06 42.7478C121.713 43.4012 121.54 44.1745 121.54 45.0678C121.54 45.7345 121.64 46.3412 121.84 46.8878C122.04 47.4345 122.32 47.9078 122.68 48.3078C123.053 48.6945 123.5 48.9945 124.02 49.2078C124.54 49.4212 125.113 49.5278 125.74 49.5278ZM135.153 52.1478V38.0278H137.353L138.293 40.8478V52.1478H135.153ZM144.893 52.1478L136.573 41.4878L137.353 38.0278L145.673 48.6878L144.893 52.1478ZM144.893 52.1478L144.053 49.3278V38.0278H147.193V52.1478H144.893ZM153.379 52.1478V38.2278H156.519V52.1478H153.379ZM148.959 40.7678V38.0278H160.939V40.7678H148.959ZM159.894 52.1478L165.494 38.0278H168.334L173.874 52.1478H170.554L166.314 40.4278H167.454L163.154 52.1478H159.894ZM163.074 49.5878V47.0278H170.774V49.5878H163.074ZM181.306 52.3678C180.253 52.3678 179.273 52.1878 178.366 51.8278C177.473 51.4545 176.686 50.9345 176.006 50.2678C175.34 49.6012 174.82 48.8278 174.446 47.9478C174.073 47.0545 173.886 46.0945 173.886 45.0678C173.886 44.0412 174.073 43.0878 174.446 42.2078C174.82 41.3145 175.34 40.5412 176.006 39.8878C176.673 39.2345 177.453 38.7278 178.346 38.3678C179.253 37.9945 180.233 37.8078 181.286 37.8078C182.406 37.8078 183.4 37.9878 184.266 38.3478C185.146 38.7078 185.913 39.2012 186.566 39.8278L184.466 41.9478C184.093 41.5478 183.64 41.2345 183.106 41.0078C182.586 40.7812 181.98 40.6678 181.286 40.6678C180.673 40.6678 180.106 40.7745 179.586 40.9878C179.08 41.1878 178.64 41.4812 178.266 41.8678C177.906 42.2545 177.62 42.7212 177.406 43.2678C177.206 43.8145 177.106 44.4145 177.106 45.0678C177.106 45.7345 177.206 46.3412 177.406 46.8878C177.62 47.4345 177.906 47.9012 178.266 48.2878C178.64 48.6745 179.08 48.9745 179.586 49.1878C180.106 49.4012 180.673 49.5078 181.286 49.5078C182.006 49.5078 182.633 49.3945 183.166 49.1678C183.7 48.9412 184.16 48.6278 184.546 48.2278L186.666 50.3478C185.986 50.9745 185.206 51.4678 184.326 51.8278C183.46 52.1878 182.453 52.3678 181.306 52.3678ZM191.621 52.1478V38.2278H194.761V52.1478H191.621ZM187.201 40.7678V38.0278H199.181V40.7678H187.201ZM204.43 52.1478V38.0278H206.67L212.23 46.6878H211.09L216.63 38.0278H218.89V52.1478H215.75V43.3278L216.31 43.4678L212.69 49.1078H210.61L207.01 43.4678L207.55 43.3278V52.1478H204.43ZM221.598 52.1478V38.0278H224.738V52.1478H221.598ZM223.998 52.1478V49.4278H231.738V52.1478H223.998ZM223.998 46.2478V43.6278H231.038V46.2478H223.998ZM223.998 40.7278V38.0278H231.638V40.7278H223.998Z" fill="#195100"/>
<g id="lines">
<line id="Line 10" x1="107.149" y1="78.1686" x2="233.992" y2="78.1686" stroke="black"/>
<line id="Line 11" x1="107.149" y1="92.1805" x2="233.992" y2="92.1805" stroke="black"/>
<line id="Line 12" x1="107.149" y1="107.944" x2="233.992" y2="107.944" stroke="black"/>
</g>
</g>
<g id="letter">
<rect id="Rectangle 311" x="66.6014" y="66.0325" width="208.797" height="101.462" fill="#FFF58E" stroke="black"/>
<path id="Polygon 4" d="M274.943 65.5466L184.796 115.888L274.943 166.229V65.5466Z" fill="#FFF58E" stroke="black"/>
<line id="Line 9" x1="157.318" y1="115.825" x2="184.682" y2="115.825" stroke="black"/>
<path id="Polygon 3" d="M67.2855 65.5435L158.111 115.888L67.2855 166.232L67.2855 65.5435Z" fill="#FFF58E" stroke="black"/>
</g>
<g id="logo2">
<rect id="Rectangle 313" x="438.5" y="42.5" width="65" height="47" fill="#95CD7C" stroke="#327F10"/>
<g id="Social Icons" clip-path="url(#clip0_50_201)">
<path id="Vector" fill-rule="evenodd" clip-rule="evenodd" d="M471.515 48C461.277 48 453 56.1125 453 66.1487C453 74.1713 458.303 80.9622 465.66 83.3657C466.58 83.5464 466.917 82.9752 466.917 82.4947C466.917 82.0739 466.887 80.6318 466.887 79.1291C461.736 80.211 460.664 76.9657 460.664 76.9657C459.836 74.8623 458.609 74.3217 458.609 74.3217C456.924 73.2099 458.732 73.2099 458.732 73.2099C460.602 73.3301 461.583 75.0729 461.583 75.0729C463.238 77.837 465.905 77.056 466.978 76.5751C467.131 75.4033 467.622 74.592 468.143 74.1414C464.036 73.7207 459.713 72.1583 459.713 65.1871C459.713 63.2039 460.449 61.5814 461.614 60.3196C461.43 59.8689 460.786 58.0057 461.798 55.5118C461.798 55.5118 463.361 55.0309 466.886 57.3747C468.395 56.9775 469.952 56.7754 471.515 56.7737C473.079 56.7737 474.672 56.9842 476.144 57.3747C479.669 55.0309 481.233 55.5118 481.233 55.5118C482.245 58.0057 481.6 59.8689 481.416 60.3196C482.612 61.5814 483.317 63.2039 483.317 65.1871C483.317 72.1583 478.995 73.6904 474.857 74.1414C475.531 74.7122 476.113 75.7938 476.113 77.5066C476.113 79.9404 476.083 81.8936 476.083 82.4943C476.083 82.9752 476.42 83.5464 477.34 83.366C484.697 80.9618 490 74.1713 490 66.1487C490.03 56.1125 481.723 48 471.515 48Z" fill="white"/>
</g>
</g>
<g id="logo1">
<rect id="Rectangle 312" x="356.5" y="42.5" width="65" height="47" fill="#95CD7C" stroke="#327F10"/>
<g id="Social Icons_2" clip-path="url(#clip1_50_201)">
<path id="Vector_2" d="M403.557 51H375.436C374.089 51 373 52.0313 373 53.3063V80.6875C373 81.9625 374.089 83 375.436 83H403.557C404.904 83 406 81.9625 406 80.6938V53.3063C406 52.0313 404.904 51 403.557 51ZM382.79 78.2687H377.892V62.9937H382.79V78.2687ZM380.341 60.9125C378.769 60.9125 377.499 59.6812 377.499 58.1625C377.499 56.6438 378.769 55.4125 380.341 55.4125C381.907 55.4125 383.177 56.6438 383.177 58.1625C383.177 59.675 381.907 60.9125 380.341 60.9125ZM401.121 78.2687H396.229V70.8438C396.229 69.075 396.197 66.7937 393.683 66.7937C391.137 66.7937 390.75 68.725 390.75 70.7188V78.2687H385.865V62.9937H390.557V65.0813H390.621C391.272 63.8813 392.871 62.6125 395.249 62.6125C400.206 62.6125 401.121 65.775 401.121 69.8875V78.2687V78.2687Z" fill="white"/>
</g>
</g>
<g id="logo4">
<rect id="Rectangle 315" x="438.5" y="111.5" width="65" height="47" fill="#95CD7C" stroke="#327F10"/>
<g id="Social Icons_3" clip-path="url(#clip2_50_201)">
<path id="Vector_3" d="M471.5 120.881C475.641 120.881 476.132 120.9 477.761 120.975C479.274 121.044 480.092 121.306 480.637 121.525C481.357 121.813 481.878 122.163 482.417 122.719C482.962 123.281 483.295 123.813 483.573 124.556C483.785 125.119 484.039 125.969 484.106 127.525C484.179 129.212 484.197 129.719 484.197 133.988C484.197 138.263 484.179 138.769 484.106 140.45C484.039 142.013 483.785 142.856 483.573 143.419C483.295 144.163 482.955 144.7 482.417 145.256C481.872 145.819 481.357 146.163 480.637 146.45C480.092 146.669 479.268 146.931 477.761 147C476.126 147.075 475.635 147.094 471.5 147.094C467.359 147.094 466.868 147.075 465.239 147C463.726 146.931 462.908 146.669 462.363 146.45C461.643 146.163 461.122 145.813 460.583 145.256C460.038 144.694 459.705 144.163 459.427 143.419C459.215 142.856 458.961 142.006 458.894 140.45C458.821 138.763 458.803 138.256 458.803 133.988C458.803 129.713 458.821 129.206 458.894 127.525C458.961 125.962 459.215 125.119 459.427 124.556C459.705 123.813 460.045 123.275 460.583 122.719C461.128 122.156 461.643 121.813 462.363 121.525C462.908 121.306 463.732 121.044 465.239 120.975C466.868 120.9 467.359 120.881 471.5 120.881ZM471.5 118C467.292 118 466.765 118.019 465.112 118.094C463.465 118.169 462.333 118.444 461.352 118.837C460.329 119.25 459.463 119.794 458.604 120.688C457.738 121.575 457.211 122.469 456.811 123.519C456.43 124.538 456.163 125.7 456.091 127.4C456.018 129.112 456 129.656 456 134C456 138.344 456.018 138.888 456.091 140.594C456.163 142.294 456.43 143.463 456.811 144.475C457.211 145.531 457.738 146.425 458.604 147.313C459.463 148.2 460.329 148.75 461.346 149.156C462.333 149.55 463.459 149.825 465.106 149.9C466.759 149.975 467.286 149.994 471.494 149.994C475.702 149.994 476.229 149.975 477.882 149.9C479.529 149.825 480.661 149.55 481.642 149.156C482.659 148.75 483.525 148.2 484.384 147.313C485.244 146.425 485.777 145.531 486.171 144.481C486.552 143.463 486.818 142.3 486.891 140.6C486.964 138.894 486.982 138.35 486.982 134.006C486.982 129.663 486.964 129.119 486.891 127.413C486.818 125.713 486.552 124.544 486.171 123.531C485.789 122.469 485.262 121.575 484.396 120.688C483.537 119.8 482.671 119.25 481.654 118.844C480.667 118.45 479.541 118.175 477.894 118.1C476.235 118.019 475.708 118 471.5 118Z" fill="white"/>
<path id="Vector_4" d="M471.5 125.781C467.104 125.781 463.538 129.463 463.538 134C463.538 138.538 467.104 142.219 471.5 142.219C475.896 142.219 479.462 138.538 479.462 134C479.462 129.463 475.896 125.781 471.5 125.781ZM471.5 139.331C468.648 139.331 466.335 136.944 466.335 134C466.335 131.056 468.648 128.669 471.5 128.669C474.352 128.669 476.665 131.056 476.665 134C476.665 136.944 474.352 139.331 471.5 139.331Z" fill="white"/>
<path id="Vector_5" d="M481.636 125.456C481.636 126.519 480.8 127.375 479.777 127.375C478.747 127.375 477.918 126.512 477.918 125.456C477.918 124.394 478.754 123.537 479.777 123.537C480.8 123.537 481.636 124.4 481.636 125.456Z" fill="white"/>
</g>
</g>
<g id="logo3">
<rect id="Rectangle 314" x="356.5" y="111.5" width="65" height="47" fill="#95CD7C" stroke="#327F10"/>
<path id="Subtract" fill-rule="evenodd" clip-rule="evenodd" d="M408.815 123.792C408.932 123.707 409 123.581 409 123.449C409 123.201 408.768 123 408.481 123H373.805C373.36 123 373 123.312 373 123.697C373 123.904 373.107 124.1 373.291 124.232L390.195 136.383C390.564 136.648 391.098 136.647 391.465 136.38L408.815 123.792ZM374.624 127.791C373.978 127.327 373 127.724 373 128.45V146.143C373 146.616 373.444 147 373.991 147H408.009C408.556 147 409 146.616 409 146.143V128.106C409 127.378 408.017 126.981 407.372 127.449L391.578 138.909L391.472 138.986C391.105 139.252 390.571 139.253 390.202 138.988L390.096 138.912L374.624 127.791Z" fill="white"/>
</g>
</g>
<defs>
<clipPath id="clip0_50_201">
<rect width="37" height="36" fill="white" transform="translate(453 48)"/>
</clipPath>
<clipPath id="clip1_50_201">
<rect width="33" height="32" fill="white" transform="translate(373 51)"/>
</clipPath>
<clipPath id="clip2_50_201">
<rect width="31" height="32" fill="white" transform="translate(456 118)"/>
</clipPath>
</defs>
</svg>
