<svg width="421" height="196" viewBox="0 0 421 196" fill="none" xmlns="http://www.w3.org/2000/svg">
<g id="Frame 4">
<path id="cloud4" d="M357.537 78H312.677C307.661 76.8611 305.12 74.0453 304.477 72.7798C297.917 61.3904 305.924 55.6957 310.748 54.272C310.748 45.9198 315.572 40.3516 317.983 38.6116C332.261 31.0186 341.619 41.7753 344.513 48.1028C352.617 41.2691 356.573 49.3683 357.537 54.272C362.554 54.272 366.059 58.7013 367.185 60.9159C370.658 72.3053 362.2 77.0509 357.537 78Z" fill="white" stroke="black"/>
<path id="cloud1" d="M93.281 79H55.8979C51.7173 78.2136 49.6003 76.2694 49.0644 75.3956C43.5976 67.5315 50.2703 63.5994 54.29 62.6164C54.29 56.8494 58.3097 53.0047 60.3195 51.8032C72.2178 46.5605 80.016 53.9877 82.4279 58.3567C89.181 53.6382 92.4771 59.2305 93.281 62.6164C97.4615 62.6164 100.383 65.6747 101.32 67.2038C104.215 75.0679 97.1668 78.3447 93.281 79Z" fill="white" stroke="black"/>
<path id="cloud2" d="M180.013 100H137.192C132.403 99.3221 129.979 97.646 129.365 96.8928C123.103 90.1133 130.746 86.7236 135.35 85.8762C135.35 80.9046 139.955 77.5902 142.257 76.5545C155.886 72.0349 164.818 78.4377 167.581 82.204C175.316 78.1364 179.092 82.9573 180.013 85.8762C184.801 85.8762 188.147 88.5127 189.222 89.8309C192.537 96.6103 184.464 99.435 180.013 100Z" fill="white" stroke="black"/>
<path id="cloud3" d="M183.025 38H153.118C149.774 37.3221 148.08 35.646 147.651 34.8928C143.278 28.1133 148.616 24.7236 151.832 23.8762C151.832 18.9046 155.048 15.5902 156.656 14.5545C166.174 10.0349 172.413 16.4377 174.342 20.204C179.745 16.1364 182.382 20.9573 183.025 23.8762C186.369 23.8762 188.706 26.5127 189.456 27.8309C191.772 34.6103 186.133 37.435 183.025 38Z" fill="white" stroke="black"/>
<rect id="Rectangle 53" x="174.5" y="46.5" width="91" height="130" fill="white" stroke="black"/>
<rect id="Rectangle 54" x="29.5" y="22.5" width="129" height="35" fill="#361B0D" stroke="black"/>
<rect id="Rectangle 55" x="98.5" y="111.5" width="76" height="65" fill="#FFF485" stroke="black"/>
<rect id="Rectangle 56" x="266.5" y="88.5" width="41" height="88" fill="#361B0D" stroke="black"/>
<rect id="Rectangle 57" x="198.5" y="113.5" width="44" height="63" fill="#DD7037" stroke="black"/>
<path id="Ellipse 13" d="M235.5 78.5C235.5 86.2011 228.816 92.5 220.5 92.5C212.184 92.5 205.5 86.2011 205.5 78.5C205.5 70.7989 212.184 64.5 220.5 64.5C228.816 64.5 235.5 70.7989 235.5 78.5Z" fill="#FFAC81" stroke="black"/>
<circle id="Ellipse 14" cx="281.5" cy="28.5" r="11" fill="#FFEF4F" stroke="black"/>
<rect id="Rectangle 58" x="114.5" y="128.5" width="44" height="31" fill="#C0E9FF" stroke="black"/>
<line id="Line 7" x1="135.5" y1="160" x2="135.5" y2="129" stroke="black"/>
<line id="Line 8" x1="114" y1="143.5" x2="159" y2="143.5" stroke="black"/>
<rect id="Rectangle 59" x="271.5" y="100.5" width="13" height="16" fill="#FFF58E" stroke="black"/>
<rect id="Rectangle 60" x="287.5" y="100.5" width="14" height="16" fill="#FFF58E" stroke="black"/>
<rect id="Rectangle 61" x="271.5" y="120.5" width="13" height="16" fill="#FFF58E" stroke="black"/>
<rect id="Rectangle 62" x="287.5" y="120.5" width="14" height="16" fill="#FFF58E" stroke="black"/>
<rect id="Rectangle 63" x="271.5" y="140.5" width="13" height="17" fill="#FFF58E" stroke="black"/>
<rect id="Rectangle 64" x="287.5" y="140.5" width="14" height="17" fill="#FFF58E" stroke="black"/>
<g id="treeRight">
<path id="Vector" d="M306.297 176.5V113.083C306.297 107.856 307.913 103.143 310.503 99.7473C313.093 96.3518 316.634 94.2945 320.507 94.2945C324.38 94.2945 327.921 96.3518 330.511 99.7473C333.101 103.143 334.717 107.856 334.717 113.083V176.5H306.297Z" fill="#A9D495" stroke="black"/>
<path id="Vector_2" d="M327.93 176.5V140.199C327.93 134.413 333.441 129.594 340.409 129.594C347.377 129.594 352.889 134.413 352.889 140.199V176.5H327.93Z" fill="#A9D495" stroke="black"/>
</g>
<g id="treeLeft">
<path id="Vector_3" d="M64.0133 176.5V163.151C64.0133 162.759 64.2134 162.333 64.6894 161.891C65.1661 161.448 65.8833 161.026 66.8113 160.662C68.6644 159.933 71.2584 159.472 74.1486 159.472C77.0389 159.472 79.6329 159.933 81.4859 160.662C82.414 161.026 83.1311 161.448 83.6078 161.891C84.0839 162.333 84.2839 162.759 84.2839 163.151V176.5H64.0133Z" fill="#A9D495" stroke="black"/>
<path id="Vector_4" d="M81.3193 176.5V152.466C81.3193 150.671 82.5561 148.955 84.7485 147.662C86.9296 146.375 89.9753 145.563 93.3662 145.563C96.7571 145.563 99.8028 146.375 101.984 147.662C104.176 148.955 105.413 150.671 105.413 152.466V176.5H81.3193Z" fill="#A9D495" stroke="black"/>
</g>
<path id="Education" d="M42.564 49V32.762H46.175V49H42.564ZM45.324 49V45.872H54.225V49H45.324ZM45.324 42.215V39.202H53.42V42.215H45.324ZM45.324 35.867V32.762H54.11V35.867H45.324ZM61.0635 49.23C60.0055 49.23 59.0625 48.977 58.2345 48.471C57.4219 47.965 56.7779 47.275 56.3025 46.401C55.8425 45.527 55.6125 44.5303 55.6125 43.411C55.6125 42.2917 55.8425 41.295 56.3025 40.421C56.7779 39.547 57.4219 38.857 58.2345 38.351C59.0625 37.845 60.0055 37.592 61.0635 37.592C61.8302 37.592 62.5202 37.7377 63.1335 38.029C63.7622 38.3203 64.2759 38.7267 64.6745 39.248C65.0885 39.754 65.3185 40.3367 65.3645 40.996V45.711C65.3185 46.3703 65.0962 46.9683 64.6975 47.505C64.2989 48.0263 63.7852 48.448 63.1565 48.77C62.5279 49.0767 61.8302 49.23 61.0635 49.23ZM61.6845 46.056C62.1905 46.056 62.6275 45.9487 62.9955 45.734C63.3635 45.504 63.6549 45.1897 63.8695 44.791C64.0842 44.3923 64.1915 43.9323 64.1915 43.411C64.1915 42.8897 64.0842 42.4373 63.8695 42.054C63.6702 41.6553 63.3789 41.341 62.9955 41.111C62.6275 40.881 62.1982 40.766 61.7075 40.766C61.2169 40.766 60.7799 40.881 60.3965 41.111C60.0285 41.341 59.7295 41.6553 59.4995 42.054C59.2849 42.4527 59.1775 42.905 59.1775 43.411C59.1775 43.917 59.2849 44.3693 59.4995 44.768C59.7142 45.1667 60.0132 45.481 60.3965 45.711C60.7799 45.941 61.2092 46.056 61.6845 46.056ZM67.5035 49H64.0535V45.987L64.5825 43.273L63.9845 40.559V32.302H67.5035V49ZM74.9493 49.253C73.9219 49.253 73.0096 49.046 72.2123 48.632C71.4303 48.2027 70.8169 47.62 70.3723 46.884C69.9276 46.1327 69.7053 45.274 69.7053 44.308V37.822H73.2243V44.262C73.2243 44.6453 73.2856 44.975 73.4083 45.251C73.5463 45.527 73.7456 45.7417 74.0063 45.895C74.2669 46.0483 74.5813 46.125 74.9493 46.125C75.4706 46.125 75.8846 45.964 76.1913 45.642C76.4979 45.3047 76.6513 44.8447 76.6513 44.262V37.822H80.1703V44.285C80.1703 45.2663 79.9479 46.1327 79.5033 46.884C79.0586 47.62 78.4453 48.2027 77.6633 48.632C76.8813 49.046 75.9766 49.253 74.9493 49.253ZM87.7847 49.253C86.6347 49.253 85.592 49 84.6567 48.494C83.7214 47.988 82.9854 47.2903 82.4487 46.401C81.912 45.5117 81.6437 44.515 81.6437 43.411C81.6437 42.2917 81.912 41.295 82.4487 40.421C83.0007 39.5317 83.7444 38.834 84.6797 38.328C85.615 37.822 86.6654 37.569 87.8307 37.569C88.7047 37.569 89.502 37.7223 90.2227 38.029C90.9587 38.3203 91.6104 38.765 92.1777 39.363L89.9237 41.617C89.663 41.3257 89.3564 41.111 89.0037 40.973C88.6664 40.835 88.2754 40.766 87.8307 40.766C87.3247 40.766 86.8724 40.881 86.4737 41.111C86.0904 41.3257 85.7837 41.6323 85.5537 42.031C85.339 42.4143 85.2317 42.8667 85.2317 43.388C85.2317 43.9093 85.339 44.3693 85.5537 44.768C85.7837 45.1667 86.098 45.481 86.4967 45.711C86.8954 45.941 87.34 46.056 87.8307 46.056C88.2907 46.056 88.697 45.9793 89.0497 45.826C89.4177 45.6573 89.732 45.4273 89.9927 45.136L92.2237 47.39C91.641 48.0033 90.9817 48.471 90.2457 48.793C89.5097 49.0997 88.6894 49.253 87.7847 49.253ZM98.1893 49.23C97.162 49.23 96.242 48.977 95.4293 48.471C94.632 47.965 93.9957 47.275 93.5203 46.401C93.0603 45.527 92.8303 44.5303 92.8303 43.411C92.8303 42.2917 93.0603 41.295 93.5203 40.421C93.9957 39.547 94.632 38.857 95.4293 38.351C96.242 37.845 97.162 37.592 98.1893 37.592C98.9407 37.592 99.6153 37.7377 100.213 38.029C100.827 38.3203 101.325 38.7267 101.708 39.248C102.092 39.754 102.306 40.3367 102.352 40.996V45.826C102.306 46.4853 102.092 47.0757 101.708 47.597C101.34 48.103 100.85 48.5017 100.236 48.793C99.623 49.0843 98.9407 49.23 98.1893 49.23ZM98.9023 46.056C99.6537 46.056 100.259 45.8107 100.719 45.32C101.179 44.814 101.409 44.1777 101.409 43.411C101.409 42.8897 101.302 42.4297 101.087 42.031C100.888 41.6323 100.597 41.3257 100.213 41.111C99.8453 40.881 99.416 40.766 98.9253 40.766C98.4347 40.766 97.9977 40.881 97.6143 41.111C97.2463 41.3257 96.9473 41.6323 96.7173 42.031C96.5027 42.4297 96.3953 42.8897 96.3953 43.411C96.3953 43.917 96.5027 44.3693 96.7173 44.768C96.932 45.1667 97.231 45.481 97.6143 45.711C97.9977 45.941 98.427 46.056 98.9023 46.056ZM101.271 49V45.987L101.8 43.273L101.271 40.559V37.822H104.721V49H101.271ZM108.786 49V33.199H112.305V49H108.786ZM106.256 40.812V37.822H114.835V40.812H106.256ZM116.386 49V37.822H119.905V49H116.386ZM118.157 36.281C117.605 36.281 117.145 36.097 116.777 35.729C116.424 35.3457 116.248 34.8857 116.248 34.349C116.248 33.797 116.424 33.337 116.777 32.969C117.145 32.601 117.605 32.417 118.157 32.417C118.709 32.417 119.161 32.601 119.514 32.969C119.866 33.337 120.043 33.797 120.043 34.349C120.043 34.8857 119.866 35.3457 119.514 35.729C119.161 36.097 118.709 36.281 118.157 36.281ZM127.765 49.253C126.615 49.253 125.572 49 124.637 48.494C123.717 47.9727 122.988 47.2673 122.452 46.378C121.915 45.4887 121.647 44.492 121.647 43.388C121.647 42.284 121.915 41.295 122.452 40.421C122.988 39.547 123.717 38.857 124.637 38.351C125.557 37.8297 126.599 37.569 127.765 37.569C128.93 37.569 129.973 37.822 130.893 38.328C131.813 38.834 132.541 39.5317 133.078 40.421C133.614 41.295 133.883 42.284 133.883 43.388C133.883 44.492 133.614 45.4887 133.078 46.378C132.541 47.2673 131.813 47.9727 130.893 48.494C129.973 49 128.93 49.253 127.765 49.253ZM127.765 46.056C128.271 46.056 128.715 45.9487 129.099 45.734C129.482 45.504 129.773 45.1897 129.973 44.791C130.187 44.377 130.295 43.9093 130.295 43.388C130.295 42.8667 130.187 42.4143 129.973 42.031C129.758 41.6323 129.459 41.3257 129.076 41.111C128.708 40.881 128.271 40.766 127.765 40.766C127.274 40.766 126.837 40.881 126.454 41.111C126.07 41.3257 125.771 41.6323 125.557 42.031C125.342 42.4297 125.235 42.8897 125.235 43.411C125.235 43.917 125.342 44.377 125.557 44.791C125.771 45.1897 126.07 45.504 126.454 45.734C126.837 45.9487 127.274 46.056 127.765 46.056ZM143.018 49V42.629C143.018 42.0463 142.834 41.5787 142.466 41.226C142.113 40.858 141.661 40.674 141.109 40.674C140.725 40.674 140.388 40.7583 140.097 40.927C139.805 41.0803 139.575 41.3103 139.407 41.617C139.238 41.9083 139.154 42.2457 139.154 42.629L137.797 41.962C137.797 41.088 137.988 40.3213 138.372 39.662C138.755 39.0027 139.284 38.4967 139.959 38.144C140.649 37.776 141.423 37.592 142.282 37.592C143.11 37.592 143.838 37.7913 144.467 38.19C145.111 38.5733 145.617 39.087 145.985 39.731C146.353 40.375 146.537 41.0803 146.537 41.847V49H143.018ZM135.635 49V37.822H139.154V49H135.635Z" fill="white"/>
</g>
</svg>
