<svg width="236" height="88" viewBox="0 0 236 88" fill="none" xmlns="http://www.w3.org/2000/svg">
<g id="Frame 5">
<g id="box7">
<rect id="Rectangle 301" x="0.5" y="-0.5" width="39" height="34" rx="4.5" transform="matrix(1 0 0 -1 54 79)" fill="#78C8F3" stroke="#009AEB"/>
<path id="Vector" d="M74.359 68.9611L74.5534 68.7204L74.7479 68.9611L79.2945 74.5876L79.0733 67.8097L79.062 67.4616L79.3954 67.5622L86.8907 69.8226L82.0835 64.5259L81.8028 64.2166L82.208 64.1153L89.7474 62.2312L82.2082 60.3522L81.8026 60.2511L82.0835 59.9416L86.8907 54.6448L79.3954 56.9053L79.062 57.0058L79.0733 56.6578L79.2945 49.8799L74.7479 55.5064L74.5534 55.747L74.359 55.5064L69.8124 49.8799L70.0336 56.6578L70.0449 57.0058L69.7115 56.9053L62.2162 54.6448L67.0234 59.9416L67.3043 60.2511L66.8987 60.3522L59.3595 62.2312L66.8989 64.1153L67.3041 64.2166L67.0234 64.5259L62.2162 69.8226L69.7115 67.5622L70.0449 67.4616L70.0336 67.8097L69.8124 74.5876L74.359 68.9611Z" fill="#EAF8FF" stroke="#009AEB" stroke-width="0.5"/>
</g>
<g id="box9">
<rect id="Rectangle 303" x="0.5" y="-0.5" width="39" height="34" rx="4.5" transform="matrix(1 0 0 -1 142 79)" fill="#78C8F3" stroke="#009AEB"/>
<path id="Vector_2" d="M161.982 68.9611L162.176 68.7204L162.371 68.9611L166.917 74.5876L166.696 67.8097L166.685 67.4616L167.018 67.5622L174.513 69.8226L169.706 64.5259L169.425 64.2166L169.831 64.1153L177.37 62.2312L169.831 60.3522L169.425 60.2511L169.706 59.9416L174.513 54.6448L167.018 56.9053L166.685 57.0058L166.696 56.6578L166.917 49.8799L162.371 55.5064L162.176 55.747L161.982 55.5064L157.435 49.8799L157.656 56.6578L157.668 57.0058L157.334 56.9053L149.839 54.6448L154.646 59.9416L154.927 60.2511L154.521 60.3522L146.982 62.2312L154.522 64.1153L154.927 64.2166L154.646 64.5259L149.839 69.8226L157.334 67.5622L157.668 67.4616L157.656 67.8097L157.435 74.5876L161.982 68.9611Z" fill="#EAF8FF" stroke="#009AEB" stroke-width="0.5"/>
</g>
<g id="box2">
<rect id="Rectangle 305" x="0.5" y="-0.5" width="39" height="34" rx="4.5" transform="matrix(1 0 0 -1 54 42)" fill="#78C8F3" stroke="#009AEB"/>
<path id="Vector_3" d="M74.359 31.5585L74.5534 31.3179L74.7479 31.5585L79.2945 37.185L79.0733 30.4071L79.062 30.059L79.3954 30.1596L86.8907 32.4201L82.0835 27.1233L81.8028 26.814L82.208 26.7128L89.7474 24.8287L82.2082 22.9496L81.8026 22.8485L82.0835 22.539L86.8907 17.2422L79.3954 19.5027L79.062 19.6033L79.0733 19.2552L79.2945 12.4773L74.7479 18.1038L74.5534 18.3444L74.359 18.1038L69.8124 12.4773L70.0336 19.2552L70.0449 19.6033L69.7115 19.5027L62.2162 17.2422L67.0234 22.539L67.3043 22.8485L66.8987 22.9496L59.3595 24.8287L66.8989 26.7128L67.3041 26.814L67.0234 27.1233L62.2162 32.4201L69.7115 30.1596L70.0449 30.059L70.0336 30.4071L69.8124 37.185L74.359 31.5585Z" fill="#EAF8FF" stroke="#009AEB" stroke-width="0.5"/>
</g>
<g id="box4">
<rect id="Rectangle 307" x="0.5" y="-0.5" width="39" height="34" rx="4.5" transform="matrix(1 0 0 -1 142 42)" fill="#78C8F3" stroke="#009AEB"/>
<path id="Vector_4" d="M161.982 31.5585L162.176 31.3179L162.371 31.5585L166.917 37.185L166.696 30.4071L166.685 30.059L167.018 30.1596L174.513 32.4201L169.706 27.1233L169.425 26.814L169.831 26.7128L177.37 24.8287L169.831 22.9496L169.425 22.8485L169.706 22.539L174.513 17.2422L167.018 19.5027L166.685 19.6033L166.696 19.2552L166.917 12.4773L162.371 18.1038L162.176 18.3444L161.982 18.1038L157.435 12.4773L157.656 19.2552L157.668 19.6033L157.334 19.5027L149.839 17.2422L154.646 22.539L154.927 22.8485L154.521 22.9496L146.982 24.8287L154.522 26.7128L154.927 26.814L154.646 27.1233L149.839 32.4201L157.334 30.1596L157.668 30.059L157.656 30.4071L157.435 37.185L161.982 31.5585Z" fill="#EAF8FF" stroke="#009AEB" stroke-width="0.5"/>
</g>
<g id="box8">
<rect id="Rectangle 302" x="0.5" y="-0.5" width="39" height="34" rx="4.5" transform="matrix(1 0 0 -1 98 79)" fill="#78C8F3" stroke="#009AEB"/>
<g id="Group 4">
<path id="Vector_5" d="M119.87 52.679C119.87 53.5506 118.043 62.9142 118.043 62.9142C118.043 62.9142 116.215 53.5506 116.215 52.679C116.215 52.2593 116.407 51.8568 116.75 51.56C117.093 51.2633 117.558 51.0966 118.043 51.0966C118.527 51.0966 118.992 51.2633 119.335 51.56C119.678 51.8568 119.87 52.2593 119.87 52.679Z" fill="white"/>
<path id="Vector_6" d="M116.215 72.9226C116.215 72.051 118.043 62.6873 118.043 62.6873C118.043 62.6873 119.87 72.051 119.87 72.9226C119.87 73.3423 119.678 73.7448 119.335 74.0415C118.992 74.3383 118.527 74.505 118.043 74.505C117.558 74.505 117.093 74.3383 116.75 74.0415C116.407 73.7448 116.215 73.3423 116.215 72.9226Z" fill="white"/>
<path id="Vector_7" d="M129.752 64.3805C128.744 64.3805 117.911 62.8008 117.911 62.8008C117.911 62.8008 128.744 61.221 129.752 61.221C130.238 61.221 130.703 61.3874 131.047 61.6837C131.39 61.98 131.583 62.3818 131.583 62.8008C131.583 63.2198 131.39 63.6216 131.047 63.9178C130.703 64.2141 130.238 64.3805 129.752 64.3805Z" fill="white"/>
<path id="Vector_8" d="M106.333 61.221C107.341 61.221 118.174 62.8008 118.174 62.8008C118.174 62.8008 107.341 64.3805 106.333 64.3805C105.847 64.3805 105.382 64.2141 105.038 63.9178C104.695 63.6216 104.502 63.2198 104.502 62.8008C104.502 62.3818 104.695 61.98 105.038 61.6837C105.382 61.3874 105.847 61.221 106.333 61.221Z" fill="white"/>
<path id="Vector_9" d="M127.633 56.7654C126.914 57.3818 117.952 62.8793 117.952 62.8793C117.952 62.8793 124.324 55.1473 125.039 54.5275C125.209 54.3806 125.411 54.264 125.634 54.1845C125.856 54.105 126.095 54.064 126.336 54.064C126.577 54.064 126.815 54.105 127.038 54.1845C127.26 54.264 127.463 54.3806 127.633 54.5275C127.803 54.6744 127.938 54.8489 128.03 55.0409C128.123 55.2329 128.17 55.4386 128.17 55.6464C128.17 55.8542 128.123 56.06 128.03 56.252C127.938 56.444 127.803 56.6184 127.633 56.7654Z" fill="white"/>
<path id="Vector_10" d="M108.471 68.8482C109.188 68.2306 118.133 62.7222 118.133 62.7222C118.133 62.7222 111.773 70.4695 111.06 71.0905C110.717 71.3878 110.251 71.5549 109.766 71.5549C109.28 71.5549 108.815 71.3878 108.471 71.0905C108.128 70.7931 107.935 70.3899 107.935 69.9693C107.935 69.5488 108.128 69.1455 108.471 68.8482Z" fill="white"/>
<path id="Vector_11" d="M125.039 71.0905C124.324 70.4695 117.952 62.7222 117.952 62.7222C117.952 62.7222 126.914 68.2306 127.633 68.8482C127.977 69.1455 128.17 69.5488 128.17 69.9693C128.17 70.3899 127.977 70.7931 127.633 71.0905C127.289 71.3878 126.822 71.5549 126.336 71.5549C125.849 71.5549 125.383 71.3878 125.039 71.0905Z" fill="white"/>
<path id="Vector_12" d="M111.06 54.5275C111.773 55.1473 118.133 62.8793 118.133 62.8793C118.133 62.8793 109.188 57.3818 108.471 56.7654C108.301 56.6184 108.167 56.444 108.075 56.252C107.983 56.06 107.935 55.8542 107.935 55.6464C107.935 55.4386 107.983 55.2329 108.075 55.0409C108.167 54.8489 108.301 54.6744 108.471 54.5275C108.641 54.3806 108.843 54.264 109.065 54.1845C109.287 54.105 109.525 54.064 109.766 54.064C110.006 54.064 110.244 54.105 110.466 54.1845C110.689 54.264 110.89 54.3806 111.06 54.5275Z" fill="white"/>
</g>
</g>
<g id="box10">
<rect id="Rectangle 304" x="0.5" y="-0.5" width="39" height="34" rx="4.5" transform="matrix(1 0 0 -1 186 79)" fill="#78C8F3" stroke="#009AEB"/>
<g id="Group 5">
<path id="Vector_13" d="M207.7 52.679C207.7 53.5506 205.872 62.9142 205.872 62.9142C205.872 62.9142 204.045 53.5506 204.045 52.679C204.045 52.2593 204.237 51.8568 204.58 51.56C204.923 51.2633 205.388 51.0966 205.872 51.0966C206.357 51.0966 206.822 51.2633 207.165 51.56C207.507 51.8568 207.7 52.2593 207.7 52.679Z" fill="white"/>
<path id="Vector_14" d="M204.045 72.9226C204.045 72.051 205.872 62.6873 205.872 62.6873C205.872 62.6873 207.7 72.051 207.7 72.9226C207.7 73.3423 207.507 73.7448 207.165 74.0415C206.822 74.3383 206.357 74.505 205.872 74.505C205.388 74.505 204.923 74.3383 204.58 74.0415C204.237 73.7448 204.045 73.3423 204.045 72.9226Z" fill="white"/>
<path id="Vector_15" d="M217.582 64.3805C216.574 64.3805 205.741 62.8008 205.741 62.8008C205.741 62.8008 216.574 61.221 217.582 61.221C218.068 61.221 218.533 61.3874 218.877 61.6837C219.22 61.98 219.413 62.3818 219.413 62.8008C219.413 63.2198 219.22 63.6216 218.877 63.9178C218.533 64.2141 218.068 64.3805 217.582 64.3805Z" fill="white"/>
<path id="Vector_16" d="M194.163 61.221C195.171 61.221 206.004 62.8008 206.004 62.8008C206.004 62.8008 195.171 64.3805 194.163 64.3805C193.677 64.3805 193.211 64.2141 192.868 63.9178C192.525 63.6216 192.332 63.2198 192.332 62.8008C192.332 62.3818 192.525 61.98 192.868 61.6837C193.211 61.3874 193.677 61.221 194.163 61.221Z" fill="white"/>
<path id="Vector_17" d="M215.463 56.7654C214.744 57.3818 205.781 62.8793 205.781 62.8793C205.781 62.8793 212.154 55.1473 212.869 54.5275C213.039 54.3806 213.241 54.264 213.464 54.1845C213.686 54.105 213.925 54.064 214.166 54.064C214.406 54.064 214.645 54.105 214.868 54.1845C215.09 54.264 215.292 54.3806 215.463 54.5275C215.633 54.6744 215.768 54.8489 215.86 55.0409C215.952 55.2329 216 55.4386 216 55.6464C216 55.8542 215.952 56.06 215.86 56.252C215.768 56.444 215.633 56.6184 215.463 56.7654Z" fill="white"/>
<path id="Vector_18" d="M196.301 68.8482C197.018 68.2306 205.963 62.7222 205.963 62.7222C205.963 62.7222 199.603 70.4695 198.89 71.0905C198.547 71.3878 198.081 71.5549 197.596 71.5549C197.11 71.5549 196.644 71.3878 196.301 71.0905C195.958 70.7931 195.765 70.3899 195.765 69.9693C195.765 69.5488 195.958 69.1455 196.301 68.8482Z" fill="white"/>
<path id="Vector_19" d="M212.869 71.0905C212.154 70.4695 205.781 62.7222 205.781 62.7222C205.781 62.7222 214.744 68.2306 215.463 68.8482C215.807 69.1455 216 69.5488 216 69.9693C216 70.3899 215.807 70.7931 215.463 71.0905C215.119 71.3878 214.652 71.5549 214.166 71.5549C213.679 71.5549 213.213 71.3878 212.869 71.0905Z" fill="white"/>
<path id="Vector_20" d="M198.89 54.5275C199.603 55.1473 205.963 62.8793 205.963 62.8793C205.963 62.8793 197.018 57.3818 196.301 56.7654C196.131 56.6184 195.996 56.444 195.904 56.252C195.812 56.06 195.765 55.8542 195.765 55.6464C195.765 55.4386 195.812 55.2329 195.904 55.0409C195.996 54.8489 196.131 54.6744 196.301 54.5275C196.471 54.3806 196.673 54.264 196.895 54.1845C197.117 54.105 197.355 54.064 197.596 54.064C197.836 54.064 198.074 54.105 198.296 54.1845C198.518 54.264 198.72 54.3806 198.89 54.5275Z" fill="white"/>
</g>
</g>
<g id="box3">
<rect id="Rectangle 306" x="0.5" y="-0.5" width="39" height="34" rx="4.5" transform="matrix(1 0 0 -1 98 42)" fill="#78C8F3" stroke="#009AEB"/>
<g id="Group 6">
<path id="Vector_21" d="M119.87 15.2764C119.87 16.148 118.043 25.5117 118.043 25.5117C118.043 25.5117 116.215 16.148 116.215 15.2764C116.215 14.8567 116.407 14.4542 116.75 14.1574C117.093 13.8607 117.558 13.694 118.043 13.694C118.527 13.694 118.992 13.8607 119.335 14.1574C119.678 14.4542 119.87 14.8567 119.87 15.2764Z" fill="white"/>
<path id="Vector_22" d="M116.215 35.52C116.215 34.6484 118.043 25.2847 118.043 25.2847C118.043 25.2847 119.87 34.6484 119.87 35.52C119.87 35.9397 119.678 36.3422 119.335 36.6389C118.992 36.9357 118.527 37.1024 118.043 37.1024C117.558 37.1024 117.093 36.9357 116.75 36.6389C116.407 36.3422 116.215 35.9397 116.215 35.52Z" fill="white"/>
<path id="Vector_23" d="M129.752 26.978C128.744 26.978 117.911 25.3982 117.911 25.3982C117.911 25.3982 128.744 23.8184 129.752 23.8184C130.238 23.8184 130.703 23.9849 131.047 24.2811C131.39 24.5774 131.583 24.9792 131.583 25.3982C131.583 25.8172 131.39 26.219 131.047 26.5152C130.703 26.8115 130.238 26.978 129.752 26.978Z" fill="white"/>
<path id="Vector_24" d="M106.333 23.8184C107.341 23.8184 118.174 25.3982 118.174 25.3982C118.174 25.3982 107.341 26.978 106.333 26.978C105.847 26.978 105.382 26.8115 105.038 26.5152C104.695 26.219 104.502 25.8172 104.502 25.3982C104.502 24.9792 104.695 24.5774 105.038 24.2811C105.382 23.9849 105.847 23.8184 106.333 23.8184Z" fill="white"/>
<path id="Vector_25" d="M127.633 19.3628C126.914 19.9792 117.952 25.4767 117.952 25.4767C117.952 25.4767 124.324 17.7447 125.039 17.1249C125.209 16.978 125.411 16.8614 125.634 16.7819C125.856 16.7024 126.095 16.6614 126.336 16.6614C126.577 16.6614 126.815 16.7024 127.038 16.7819C127.26 16.8614 127.463 16.978 127.633 17.1249C127.803 17.2719 127.938 17.4463 128.03 17.6383C128.123 17.8303 128.17 18.036 128.17 18.2438C128.17 18.4517 128.123 18.6574 128.03 18.8494C127.938 19.0414 127.803 19.2158 127.633 19.3628Z" fill="white"/>
<path id="Vector_26" d="M108.471 31.4456C109.188 30.828 118.133 25.3196 118.133 25.3196C118.133 25.3196 111.773 33.0669 111.06 33.6879C110.717 33.9853 110.251 34.1523 109.766 34.1523C109.28 34.1523 108.815 33.9853 108.471 33.6879C108.128 33.3906 107.935 32.9873 107.935 32.5668C107.935 32.1462 108.128 31.743 108.471 31.4456Z" fill="white"/>
<path id="Vector_27" d="M125.039 33.6879C124.324 33.0669 117.952 25.3196 117.952 25.3196C117.952 25.3196 126.914 30.828 127.633 31.4456C127.977 31.743 128.17 32.1462 128.17 32.5668C128.17 32.9873 127.977 33.3906 127.633 33.6879C127.289 33.9853 126.822 34.1523 126.336 34.1523C125.849 34.1523 125.383 33.9853 125.039 33.6879Z" fill="white"/>
<path id="Vector_28" d="M111.06 17.1249C111.773 17.7447 118.133 25.4767 118.133 25.4767C118.133 25.4767 109.188 19.9792 108.471 19.3628C108.301 19.2158 108.167 19.0414 108.075 18.8494C107.983 18.6574 107.935 18.4517 107.935 18.2438C107.935 18.036 107.983 17.8303 108.075 17.6383C108.167 17.4463 108.301 17.2719 108.471 17.1249C108.641 16.978 108.843 16.8614 109.065 16.7819C109.287 16.7024 109.525 16.6614 109.766 16.6614C110.006 16.6614 110.244 16.7024 110.466 16.7819C110.689 16.8614 110.89 16.978 111.06 17.1249Z" fill="white"/>
</g>
</g>
<g id="box5">
<rect id="Rectangle 308" x="0.5" y="-0.5" width="39" height="34" rx="4.5" transform="matrix(1 0 0 -1 186 42)" fill="#78C8F3" stroke="#009AEB"/>
<g id="Group 7">
<path id="Vector_29" d="M207.7 15.2764C207.7 16.148 205.872 25.5117 205.872 25.5117C205.872 25.5117 204.045 16.148 204.045 15.2764C204.045 14.8567 204.237 14.4542 204.58 14.1574C204.923 13.8607 205.388 13.694 205.872 13.694C206.357 13.694 206.822 13.8607 207.165 14.1574C207.507 14.4542 207.7 14.8567 207.7 15.2764Z" fill="white"/>
<path id="Vector_30" d="M204.045 35.52C204.045 34.6484 205.872 25.2847 205.872 25.2847C205.872 25.2847 207.7 34.6484 207.7 35.52C207.7 35.9397 207.507 36.3422 207.165 36.6389C206.822 36.9357 206.357 37.1024 205.872 37.1024C205.388 37.1024 204.923 36.9357 204.58 36.6389C204.237 36.3422 204.045 35.9397 204.045 35.52Z" fill="white"/>
<path id="Vector_31" d="M217.582 26.978C216.574 26.978 205.741 25.3982 205.741 25.3982C205.741 25.3982 216.574 23.8184 217.582 23.8184C218.068 23.8184 218.533 23.9849 218.877 24.2811C219.22 24.5774 219.413 24.9792 219.413 25.3982C219.413 25.8172 219.22 26.219 218.877 26.5152C218.533 26.8115 218.068 26.978 217.582 26.978Z" fill="white"/>
<path id="Vector_32" d="M194.163 23.8184C195.171 23.8184 206.004 25.3982 206.004 25.3982C206.004 25.3982 195.171 26.978 194.163 26.978C193.677 26.978 193.211 26.8115 192.868 26.5152C192.525 26.219 192.332 25.8172 192.332 25.3982C192.332 24.9792 192.525 24.5774 192.868 24.2811C193.211 23.9849 193.677 23.8184 194.163 23.8184Z" fill="white"/>
<path id="Vector_33" d="M215.463 19.3628C214.744 19.9792 205.781 25.4767 205.781 25.4767C205.781 25.4767 212.154 17.7447 212.869 17.1249C213.039 16.978 213.241 16.8614 213.464 16.7819C213.686 16.7024 213.925 16.6614 214.166 16.6614C214.406 16.6614 214.645 16.7024 214.868 16.7819C215.09 16.8614 215.292 16.978 215.463 17.1249C215.633 17.2719 215.768 17.4463 215.86 17.6383C215.952 17.8303 216 18.036 216 18.2438C216 18.4517 215.952 18.6574 215.86 18.8494C215.768 19.0414 215.633 19.2158 215.463 19.3628Z" fill="white"/>
<path id="Vector_34" d="M196.301 31.4456C197.018 30.828 205.963 25.3196 205.963 25.3196C205.963 25.3196 199.603 33.0669 198.89 33.6879C198.547 33.9853 198.081 34.1523 197.596 34.1523C197.11 34.1523 196.644 33.9853 196.301 33.6879C195.958 33.3906 195.765 32.9873 195.765 32.5668C195.765 32.1462 195.958 31.743 196.301 31.4456Z" fill="white"/>
<path id="Vector_35" d="M212.869 33.6879C212.154 33.0669 205.781 25.3196 205.781 25.3196C205.781 25.3196 214.744 30.828 215.463 31.4456C215.807 31.743 216 32.1462 216 32.5668C216 32.9873 215.807 33.3906 215.463 33.6879C215.119 33.9853 214.652 34.1523 214.166 34.1523C213.679 34.1523 213.213 33.9853 212.869 33.6879Z" fill="white"/>
<path id="Vector_36" d="M198.89 17.1249C199.603 17.7447 205.963 25.4767 205.963 25.4767C205.963 25.4767 197.018 19.9792 196.301 19.3628C196.131 19.2158 195.996 19.0414 195.904 18.8494C195.812 18.6574 195.765 18.4517 195.765 18.2438C195.765 18.036 195.812 17.8303 195.904 17.6383C195.996 17.4463 196.131 17.2719 196.301 17.1249C196.471 16.978 196.673 16.8614 196.895 16.7819C197.117 16.7024 197.355 16.6614 197.596 16.6614C197.836 16.6614 198.074 16.7024 198.296 16.7819C198.518 16.8614 198.72 16.978 198.89 17.1249Z" fill="white"/>
</g>
</g>
<g id="box6">
<rect id="Rectangle 309" x="0.5" y="-0.5" width="39" height="34" rx="4.5" transform="matrix(1 0 0 -1 10 79)" fill="#78C8F3" stroke="#009AEB"/>
<g id="Group 4_2">
<path id="Vector_37" d="M31.8701 52.679C31.8701 53.5506 30.0425 62.9142 30.0425 62.9142C30.0425 62.9142 28.2149 53.5506 28.2149 52.679C28.2149 52.2593 28.4075 51.8568 28.7502 51.56C29.0929 51.2633 29.5578 51.0966 30.0425 51.0966C30.5272 51.0966 30.9921 51.2633 31.3348 51.56C31.6776 51.8568 31.8701 52.2593 31.8701 52.679Z" fill="white"/>
<path id="Vector_38" d="M28.2149 72.9226C28.2149 72.051 30.0425 62.6873 30.0425 62.6873C30.0425 62.6873 31.8701 72.051 31.8701 72.9226C31.8701 73.3423 31.6776 73.7448 31.3348 74.0415C30.9921 74.3383 30.5272 74.505 30.0425 74.505C29.5578 74.505 29.0929 74.3383 28.7502 74.0415C28.4075 73.7448 28.2149 73.3423 28.2149 72.9226Z" fill="white"/>
<path id="Vector_39" d="M41.7523 64.3805C40.7439 64.3805 29.9113 62.8008 29.9113 62.8008C29.9113 62.8008 40.7439 61.221 41.7523 61.221C42.2378 61.221 42.7034 61.3874 43.0468 61.6837C43.3901 61.98 43.5829 62.3818 43.5829 62.8008C43.5829 63.2198 43.3901 63.6216 43.0468 63.9178C42.7034 64.2141 42.2378 64.3805 41.7523 64.3805Z" fill="white"/>
<path id="Vector_40" d="M18.3328 61.221C19.3412 61.221 30.1738 62.8008 30.1738 62.8008C30.1738 62.8008 19.3412 64.3805 18.3328 64.3805C17.8473 64.3805 17.3816 64.2141 17.0383 63.9178C16.695 63.6216 16.5021 63.2198 16.5021 62.8008C16.5021 62.3818 16.695 61.98 17.0383 61.6837C17.3816 61.3874 17.8473 61.221 18.3328 61.221Z" fill="white"/>
<path id="Vector_41" d="M39.6328 56.7654C38.9144 57.3818 29.9517 62.8793 29.9517 62.8793C29.9517 62.8793 36.3242 55.1473 37.0388 54.5275C37.2091 54.3806 37.4113 54.264 37.6338 54.1845C37.8564 54.105 38.0949 54.064 38.3358 54.064C38.5767 54.064 38.8152 54.105 39.0377 54.1845C39.2603 54.264 39.4625 54.3806 39.6328 54.5275C39.8032 54.6744 39.9383 54.8489 40.0305 55.0409C40.1226 55.2329 40.1701 55.4386 40.1701 55.6464C40.1701 55.8542 40.1226 56.06 40.0305 56.252C39.9383 56.444 39.8032 56.6184 39.6328 56.7654Z" fill="white"/>
<path id="Vector_42" d="M20.4714 68.8482C21.1884 68.2306 30.1334 62.7222 30.1334 62.7222C30.1334 62.7222 23.7734 70.4695 23.0603 71.0905C22.717 71.3878 22.2514 71.5549 21.7659 71.5549C21.2803 71.5549 20.8147 71.3878 20.4714 71.0905C20.1281 70.7931 19.9352 70.3899 19.9352 69.9693C19.9352 69.5488 20.1281 69.1455 20.4714 68.8482Z" fill="white"/>
<path id="Vector_43" d="M37.0388 71.0905C36.3242 70.4695 29.9517 62.7222 29.9517 62.7222C29.9517 62.7222 38.9144 68.2306 39.6328 68.8482C39.9768 69.1455 40.1701 69.5488 40.1701 69.9693C40.1701 70.3899 39.9768 70.7931 39.6328 71.0905C39.2888 71.3878 38.8223 71.5549 38.3358 71.5549C37.8493 71.5549 37.3828 71.3878 37.0388 71.0905Z" fill="white"/>
<path id="Vector_44" d="M23.0603 54.5275C23.7734 55.1473 30.1334 62.8793 30.1334 62.8793C30.1334 62.8793 21.1884 57.3818 20.4714 56.7654C20.3014 56.6184 20.1665 56.444 20.0745 56.252C19.9825 56.06 19.9352 55.8542 19.9352 55.6464C19.9352 55.4386 19.9825 55.2329 20.0745 55.0409C20.1665 54.8489 20.3014 54.6744 20.4714 54.5275C20.6414 54.3806 20.8432 54.264 21.0653 54.1845C21.2874 54.105 21.5255 54.064 21.7659 54.064C22.0063 54.064 22.2443 54.105 22.4664 54.1845C22.6885 54.264 22.8903 54.3806 23.0603 54.5275Z" fill="white"/>
</g>
</g>
<g id="box1">
<rect id="Rectangle 310" x="0.5" y="-0.5" width="39" height="34" rx="4.5" transform="matrix(1 0 0 -1 10 42)" fill="#78C8F3" stroke="#009AEB"/>
<g id="Group 6_2">
<path id="Vector_45" d="M31.8701 15.2764C31.8701 16.148 30.0425 25.5117 30.0425 25.5117C30.0425 25.5117 28.2149 16.148 28.2149 15.2764C28.2149 14.8567 28.4075 14.4542 28.7502 14.1574C29.0929 13.8607 29.5578 13.694 30.0425 13.694C30.5272 13.694 30.9921 13.8607 31.3348 14.1574C31.6776 14.4542 31.8701 14.8567 31.8701 15.2764Z" fill="white"/>
<path id="Vector_46" d="M28.2149 35.52C28.2149 34.6484 30.0425 25.2847 30.0425 25.2847C30.0425 25.2847 31.8701 34.6484 31.8701 35.52C31.8701 35.9397 31.6776 36.3422 31.3348 36.6389C30.9921 36.9357 30.5272 37.1024 30.0425 37.1024C29.5578 37.1024 29.0929 36.9357 28.7502 36.6389C28.4075 36.3422 28.2149 35.9397 28.2149 35.52Z" fill="white"/>
<path id="Vector_47" d="M41.7523 26.978C40.7439 26.978 29.9113 25.3982 29.9113 25.3982C29.9113 25.3982 40.7439 23.8184 41.7523 23.8184C42.2378 23.8184 42.7034 23.9849 43.0468 24.2811C43.3901 24.5774 43.5829 24.9792 43.5829 25.3982C43.5829 25.8172 43.3901 26.219 43.0468 26.5152C42.7034 26.8115 42.2378 26.978 41.7523 26.978Z" fill="white"/>
<path id="Vector_48" d="M18.3328 23.8184C19.3412 23.8184 30.1738 25.3982 30.1738 25.3982C30.1738 25.3982 19.3412 26.978 18.3328 26.978C17.8473 26.978 17.3816 26.8115 17.0383 26.5152C16.695 26.219 16.5021 25.8172 16.5021 25.3982C16.5021 24.9792 16.695 24.5774 17.0383 24.2811C17.3816 23.9849 17.8473 23.8184 18.3328 23.8184Z" fill="white"/>
<path id="Vector_49" d="M39.6328 19.3628C38.9144 19.9792 29.9517 25.4767 29.9517 25.4767C29.9517 25.4767 36.3242 17.7447 37.0388 17.1249C37.2091 16.978 37.4113 16.8614 37.6338 16.7819C37.8564 16.7024 38.0949 16.6614 38.3358 16.6614C38.5767 16.6614 38.8152 16.7024 39.0377 16.7819C39.2603 16.8614 39.4625 16.978 39.6328 17.1249C39.8032 17.2719 39.9383 17.4463 40.0305 17.6383C40.1226 17.8303 40.1701 18.036 40.1701 18.2438C40.1701 18.4517 40.1226 18.6574 40.0305 18.8494C39.9383 19.0414 39.8032 19.2158 39.6328 19.3628Z" fill="white"/>
<path id="Vector_50" d="M20.4714 31.4456C21.1884 30.828 30.1334 25.3196 30.1334 25.3196C30.1334 25.3196 23.7734 33.0669 23.0603 33.6879C22.717 33.9853 22.2514 34.1523 21.7659 34.1523C21.2803 34.1523 20.8147 33.9853 20.4714 33.6879C20.1281 33.3906 19.9352 32.9873 19.9352 32.5668C19.9352 32.1462 20.1281 31.743 20.4714 31.4456Z" fill="white"/>
<path id="Vector_51" d="M37.0388 33.6879C36.3242 33.0669 29.9517 25.3196 29.9517 25.3196C29.9517 25.3196 38.9144 30.828 39.6328 31.4456C39.9768 31.743 40.1701 32.1462 40.1701 32.5668C40.1701 32.9873 39.9768 33.3906 39.6328 33.6879C39.2888 33.9853 38.8223 34.1523 38.3358 34.1523C37.8493 34.1523 37.3828 33.9853 37.0388 33.6879Z" fill="white"/>
<path id="Vector_52" d="M23.0603 17.1249C23.7734 17.7447 30.1334 25.4767 30.1334 25.4767C30.1334 25.4767 21.1884 19.9792 20.4714 19.3628C20.3014 19.2158 20.1665 19.0414 20.0745 18.8494C19.9825 18.6574 19.9352 18.4517 19.9352 18.2438C19.9352 18.036 19.9825 17.8303 20.0745 17.6383C20.1665 17.4463 20.3014 17.2719 20.4714 17.1249C20.6414 16.978 20.8432 16.8614 21.0653 16.7819C21.2874 16.7024 21.5255 16.6614 21.7659 16.6614C22.0063 16.6614 22.2443 16.7024 22.4664 16.7819C22.6885 16.8614 22.8903 16.978 23.0603 17.1249Z" fill="white"/>
</g>
</g>
<rect id="Rectangle 309_2" x="51.85" y="27.85" width="132.3" height="29.3" rx="4.15" fill="#FFAC81" stroke="#DD7037" stroke-width="1.7"/>
<path id="Experience" d="M61.564 50V33.762H65.175V50H61.564ZM64.324 50V46.872H73.225V50H64.324ZM64.324 43.215V40.202H72.42V43.215H64.324ZM64.324 36.867V33.762H73.11V36.867H64.324ZM82.3154 50L79.6244 45.653L78.8654 45.17L74.4724 38.822H78.5894L81.0964 42.893L81.8324 43.353L86.3864 50H82.3154ZM74.2654 50L78.8424 43.491L80.8434 45.745L78.1064 50H74.2654ZM81.8094 45.147L79.8084 42.893L82.3384 38.822H86.1564L81.8094 45.147ZM94.1634 50.23C93.4121 50.23 92.7221 50.0843 92.0934 49.793C91.4648 49.5017 90.9511 49.103 90.5524 48.597C90.1538 48.0757 89.9238 47.4853 89.8624 46.826V42.111C89.9238 41.4517 90.1538 40.8537 90.5524 40.317C90.9511 39.7803 91.4648 39.3587 92.0934 39.052C92.7221 38.7453 93.4121 38.592 94.1634 38.592C95.2214 38.592 96.1568 38.845 96.9694 39.351C97.7974 39.857 98.4414 40.547 98.9014 41.421C99.3768 42.295 99.6144 43.2917 99.6144 44.411C99.6144 45.5303 99.3768 46.527 98.9014 47.401C98.4414 48.275 97.7974 48.965 96.9694 49.471C96.1568 49.977 95.2214 50.23 94.1634 50.23ZM87.7234 54.715V38.822H91.2424V41.697L90.6674 44.411L91.1964 47.125V54.715H87.7234ZM93.5194 47.056C94.0254 47.056 94.4624 46.941 94.8304 46.711C95.2138 46.481 95.5128 46.1667 95.7274 45.768C95.9421 45.3693 96.0494 44.917 96.0494 44.411C96.0494 43.8897 95.9421 43.4297 95.7274 43.031C95.5128 42.6323 95.2138 42.3257 94.8304 42.111C94.4624 41.881 94.0331 41.766 93.5424 41.766C93.0518 41.766 92.6148 41.881 92.2314 42.111C91.8634 42.3257 91.5721 42.6323 91.3574 43.031C91.1428 43.4297 91.0354 43.8897 91.0354 44.411C91.0354 44.917 91.1351 45.3693 91.3344 45.768C91.5491 46.1667 91.8481 46.481 92.2314 46.711C92.6148 46.941 93.0441 47.056 93.5194 47.056ZM106.922 50.253C105.711 50.253 104.63 50.0077 103.679 49.517C102.744 49.011 102.008 48.3133 101.471 47.424C100.934 46.5347 100.666 45.5303 100.666 44.411C100.666 43.2917 100.927 42.295 101.448 41.421C101.985 40.5317 102.705 39.834 103.61 39.328C104.515 38.822 105.534 38.569 106.669 38.569C107.773 38.569 108.747 38.8067 109.59 39.282C110.433 39.7573 111.093 40.4167 111.568 41.26C112.059 42.1033 112.304 43.0693 112.304 44.158C112.304 44.3573 112.289 44.572 112.258 44.802C112.243 45.0167 112.204 45.2697 112.143 45.561L102.506 45.584V43.169L110.648 43.146L109.13 44.158C109.115 43.514 109.015 42.985 108.831 42.571C108.647 42.1417 108.371 41.8197 108.003 41.605C107.65 41.375 107.213 41.26 106.692 41.26C106.14 41.26 105.657 41.3903 105.243 41.651C104.844 41.8963 104.53 42.249 104.3 42.709C104.085 43.169 103.978 43.7287 103.978 44.388C103.978 45.0473 104.093 45.6147 104.323 46.09C104.568 46.55 104.906 46.9103 105.335 47.171C105.78 47.4163 106.301 47.539 106.899 47.539C107.451 47.539 107.949 47.447 108.394 47.263C108.839 47.0637 109.23 46.7723 109.567 46.389L111.499 48.321C110.947 48.965 110.28 49.448 109.498 49.77C108.716 50.092 107.857 50.253 106.922 50.253ZM114.003 50V38.822H117.522V50H114.003ZM117.522 43.859L116.05 42.709C116.341 41.4057 116.832 40.3937 117.522 39.673C118.212 38.9523 119.17 38.592 120.397 38.592C120.933 38.592 121.401 38.6763 121.8 38.845C122.214 38.9983 122.574 39.2437 122.881 39.581L120.788 42.226C120.634 42.0573 120.443 41.927 120.213 41.835C119.983 41.743 119.722 41.697 119.431 41.697C118.848 41.697 118.38 41.881 118.028 42.249C117.69 42.6017 117.522 43.1383 117.522 43.859ZM123.818 50V38.822H127.337V50H123.818ZM125.589 37.281C125.037 37.281 124.577 37.097 124.209 36.729C123.857 36.3457 123.68 35.8857 123.68 35.349C123.68 34.797 123.857 34.337 124.209 33.969C124.577 33.601 125.037 33.417 125.589 33.417C126.141 33.417 126.594 33.601 126.946 33.969C127.299 34.337 127.475 34.797 127.475 35.349C127.475 35.8857 127.299 36.3457 126.946 36.729C126.594 37.097 126.141 37.281 125.589 37.281ZM135.335 50.253C134.124 50.253 133.043 50.0077 132.092 49.517C131.157 49.011 130.421 48.3133 129.884 47.424C129.348 46.5347 129.079 45.5303 129.079 44.411C129.079 43.2917 129.34 42.295 129.861 41.421C130.398 40.5317 131.119 39.834 132.023 39.328C132.928 38.822 133.948 38.569 135.082 38.569C136.186 38.569 137.16 38.8067 138.003 39.282C138.847 39.7573 139.506 40.4167 139.981 41.26C140.472 42.1033 140.717 43.0693 140.717 44.158C140.717 44.3573 140.702 44.572 140.671 44.802C140.656 45.0167 140.618 45.2697 140.556 45.561L130.919 45.584V43.169L139.061 43.146L137.543 44.158C137.528 43.514 137.428 42.985 137.244 42.571C137.06 42.1417 136.784 41.8197 136.416 41.605C136.064 41.375 135.627 41.26 135.105 41.26C134.553 41.26 134.07 41.3903 133.656 41.651C133.258 41.8963 132.943 42.249 132.713 42.709C132.499 43.169 132.391 43.7287 132.391 44.388C132.391 45.0473 132.506 45.6147 132.736 46.09C132.982 46.55 133.319 46.9103 133.748 47.171C134.193 47.4163 134.714 47.539 135.312 47.539C135.864 47.539 136.363 47.447 136.807 47.263C137.252 47.0637 137.643 46.7723 137.98 46.389L139.912 48.321C139.36 48.965 138.693 49.448 137.911 49.77C137.129 50.092 136.271 50.253 135.335 50.253ZM149.799 50V43.629C149.799 43.0463 149.615 42.5787 149.247 42.226C148.894 41.858 148.442 41.674 147.89 41.674C147.506 41.674 147.169 41.7583 146.878 41.927C146.586 42.0803 146.356 42.3103 146.188 42.617C146.019 42.9083 145.935 43.2457 145.935 43.629L144.578 42.962C144.578 42.088 144.769 41.3213 145.153 40.662C145.536 40.0027 146.065 39.4967 146.74 39.144C147.43 38.776 148.204 38.592 149.063 38.592C149.891 38.592 150.619 38.7913 151.248 39.19C151.892 39.5733 152.398 40.087 152.766 40.731C153.134 41.375 153.318 42.0803 153.318 42.847V50H149.799ZM142.416 50V38.822H145.935V50H142.416ZM160.983 50.253C159.833 50.253 158.79 50 157.855 49.494C156.92 48.988 156.184 48.2903 155.647 47.401C155.11 46.5117 154.842 45.515 154.842 44.411C154.842 43.2917 155.11 42.295 155.647 41.421C156.199 40.5317 156.943 39.834 157.878 39.328C158.813 38.822 159.864 38.569 161.029 38.569C161.903 38.569 162.7 38.7223 163.421 39.029C164.157 39.3203 164.809 39.765 165.376 40.363L163.122 42.617C162.861 42.3257 162.555 42.111 162.202 41.973C161.865 41.835 161.474 41.766 161.029 41.766C160.523 41.766 160.071 41.881 159.672 42.111C159.289 42.3257 158.982 42.6323 158.752 43.031C158.537 43.4143 158.43 43.8667 158.43 44.388C158.43 44.9093 158.537 45.3693 158.752 45.768C158.982 46.1667 159.296 46.481 159.695 46.711C160.094 46.941 160.538 47.056 161.029 47.056C161.489 47.056 161.895 46.9793 162.248 46.826C162.616 46.6573 162.93 46.4273 163.191 46.136L165.422 48.39C164.839 49.0033 164.18 49.471 163.444 49.793C162.708 50.0997 161.888 50.253 160.983 50.253ZM172.239 50.253C171.027 50.253 169.946 50.0077 168.996 49.517C168.06 49.011 167.324 48.3133 166.788 47.424C166.251 46.5347 165.983 45.5303 165.983 44.411C165.983 43.2917 166.243 42.295 166.765 41.421C167.301 40.5317 168.022 39.834 168.927 39.328C169.831 38.822 170.851 38.569 171.986 38.569C173.09 38.569 174.063 38.8067 174.907 39.282C175.75 39.7573 176.409 40.4167 176.885 41.26C177.375 42.1033 177.621 43.0693 177.621 44.158C177.621 44.3573 177.605 44.572 177.575 44.802C177.559 45.0167 177.521 45.2697 177.46 45.561L167.823 45.584V43.169L175.965 43.146L174.447 44.158C174.431 43.514 174.332 42.985 174.148 42.571C173.964 42.1417 173.688 41.8197 173.32 41.605C172.967 41.375 172.53 41.26 172.009 41.26C171.457 41.26 170.974 41.3903 170.56 41.651C170.161 41.8963 169.847 42.249 169.617 42.709C169.402 43.169 169.295 43.7287 169.295 44.388C169.295 45.0473 169.41 45.6147 169.64 46.09C169.885 46.55 170.222 46.9103 170.652 47.171C171.096 47.4163 171.618 47.539 172.216 47.539C172.768 47.539 173.266 47.447 173.711 47.263C174.155 47.0637 174.546 46.7723 174.884 46.389L176.816 48.321C176.264 48.965 175.597 49.448 174.815 49.77C174.033 50.092 173.174 50.253 172.239 50.253Z" fill="white"/>
</g>
</svg>
