<svg width="312" height="312" viewBox="0 0 312 312" fill="none" xmlns="http://www.w3.org/2000/svg">
<g id="Frame 3">
<g id="resume">
<rect id="Rectangle 51" x="0.565996" y="0.421216" width="176.31" height="234.296" transform="matrix(0.989091 -0.147305 0.142901 0.989737 73.946 61.2063)" fill="#C0E9FF" stroke="black"/>
<rect id="Rectangle 52" x="0.565996" y="0.421216" width="149.765" height="208.292" transform="matrix(0.989091 -0.147305 0.142901 0.989737 89.2488 71.9026)" fill="white" stroke="black"/>
<g id="prfpic">
<path id="Ellipse 10" d="M162.431 105.34C164.691 120.993 154.029 135.53 138.635 137.822C123.24 140.115 108.918 129.299 106.658 113.646C104.398 97.9931 115.06 83.4561 130.454 81.1634C145.848 78.8708 160.171 89.6869 162.431 105.34Z" fill="#FFF58E" stroke="black"/>
<path id="Ellipse 11" d="M140.137 100.675C140.683 104.456 138.107 107.958 134.402 108.509C130.697 109.061 127.241 106.458 126.695 102.677C126.149 98.8961 128.724 95.3945 132.429 94.8427C136.134 94.291 139.591 96.8942 140.137 100.675Z" fill="white" stroke="black"/>
<path id="Ellipse 12" d="M152.438 117.807C152.77 120.107 151.389 122.548 148.648 124.634C145.923 126.707 141.947 128.346 137.365 129.028C132.783 129.711 128.511 129.3 125.315 128.109C122.1 126.91 120.087 124.974 119.755 122.675C119.423 120.375 120.804 117.934 123.545 115.848C126.27 113.775 130.245 112.136 134.827 111.453C139.409 110.771 143.681 111.182 146.877 112.373C150.093 113.572 152.106 115.507 152.438 117.807Z" fill="#FF928B" stroke="black"/>
</g>
<line id="Line 4" y1="-0.85" x2="64.2261" y2="-0.85" transform="matrix(0.989091 -0.147305 0.142901 0.989737 167.6 90.0974)" stroke="black" stroke-width="1.7"/>
<line id="Line 6" y1="-0.85" x2="64.2261" y2="-0.85" transform="matrix(0.989091 -0.147305 0.142901 0.989737 121.868 215.683)" stroke="black" stroke-width="1.7"/>
<line id="line1" y1="-0.85" x2="126.448" y2="-0.85" transform="matrix(0.989091 -0.147305 0.142901 0.989737 124.125 231.316)" stroke="black" stroke-width="1.7"/>
<line id="line2" y1="-0.85" x2="126.448" y2="-0.85" transform="matrix(0.989091 -0.147305 0.142901 0.989737 124.433 240.253)" stroke="black" stroke-width="1.7"/>
<line id="line3" y1="-0.85" x2="126.448" y2="-0.85" transform="matrix(0.989091 -0.147305 0.142901 0.989737 125.702 249.047)" stroke="black" stroke-width="1.7"/>
<line id="line4" y1="-0.85" x2="126.448" y2="-0.85" transform="matrix(0.989091 -0.147305 0.142901 0.989737 127.254 259.795)" stroke="black" stroke-width="1.7"/>
<line id="Line 5" y1="-0.85" x2="46.6884" y2="-0.85" transform="matrix(0.989091 -0.147305 0.142901 0.989737 169.025 99.8662)" stroke="black" stroke-width="1.7"/>
<rect id="barsA" x="0.565996" y="0.421216" width="126.42" height="12.8212" transform="matrix(0.989091 -0.147305 0.142901 0.989737 113.49 158.122)" fill="#CDEAC0" stroke="black"/>
<rect id="barsB" x="0.565996" y="0.421216" width="126.42" height="12.8212" transform="matrix(0.989091 -0.147305 0.142901 0.989737 116.876 181.572)" fill="#CDEAC0" stroke="black"/>
</g>
<rect id="Rectangle 50" x="31.5" y="26.5" width="140" height="48" fill="#361B0D" stroke="black"/>
<path id="Resume" d="M52.64 50.27V46.79H57.11C58.05 46.79 58.77 46.55 59.27 46.07C59.79 45.59 60.05 44.94 60.05 44.12C60.05 43.36 59.8 42.73 59.3 42.23C58.8 41.73 58.08 41.48 57.14 41.48H52.64V37.82H57.68C59.08 37.82 60.31 38.09 61.37 38.63C62.43 39.15 63.26 39.88 63.86 40.82C64.46 41.76 64.76 42.84 64.76 44.06C64.76 45.3 64.46 46.39 63.86 47.33C63.26 48.25 62.42 48.97 61.34 49.49C60.26 50.01 58.99 50.27 57.53 50.27H52.64ZM49.04 59V37.82H53.75V59H49.04ZM60.56 59L53.96 49.88L58.28 48.71L66.14 59H60.56ZM74.5993 59.33C73.0193 59.33 71.6093 59.01 70.3693 58.37C69.1493 57.71 68.1893 56.8 67.4893 55.64C66.7893 54.48 66.4393 53.17 66.4393 51.71C66.4393 50.25 66.7793 48.95 67.4593 47.81C68.1593 46.65 69.0993 45.74 70.2793 45.08C71.4593 44.42 72.7893 44.09 74.2693 44.09C75.7093 44.09 76.9793 44.4 78.0793 45.02C79.1793 45.64 80.0393 46.5 80.6593 47.6C81.2993 48.7 81.6193 49.96 81.6193 51.38C81.6193 51.64 81.5993 51.92 81.5593 52.22C81.5393 52.5 81.4893 52.83 81.4093 53.21L68.8393 53.24V50.09L79.4593 50.06L77.4793 51.38C77.4593 50.54 77.3293 49.85 77.0893 49.31C76.8493 48.75 76.4893 48.33 76.0093 48.05C75.5493 47.75 74.9793 47.6 74.2993 47.6C73.5793 47.6 72.9493 47.77 72.4093 48.11C71.8893 48.43 71.4793 48.89 71.1793 49.49C70.8993 50.09 70.7593 50.82 70.7593 51.68C70.7593 52.54 70.9093 53.28 71.2093 53.9C71.5293 54.5 71.9693 54.97 72.5293 55.31C73.1093 55.63 73.7893 55.79 74.5693 55.79C75.2893 55.79 75.9393 55.67 76.5193 55.43C77.0993 55.17 77.6093 54.79 78.0493 54.29L80.5693 56.81C79.8493 57.65 78.9793 58.28 77.9593 58.7C76.9393 59.12 75.8193 59.33 74.5993 59.33ZM89.1448 59.36C88.2848 59.36 87.4348 59.25 86.5948 59.03C85.7748 58.81 85.0048 58.5 84.2848 58.1C83.5848 57.68 82.9848 57.2 82.4848 56.66L85.0948 54.02C85.5748 54.54 86.1448 54.95 86.8048 55.25C87.4648 55.53 88.1848 55.67 88.9648 55.67C89.5048 55.67 89.9148 55.59 90.1948 55.43C90.4948 55.27 90.6448 55.05 90.6448 54.77C90.6448 54.41 90.4648 54.14 90.1048 53.96C89.7648 53.76 89.3248 53.59 88.7848 53.45C88.2448 53.29 87.6748 53.12 87.0748 52.94C86.4748 52.76 85.9048 52.51 85.3648 52.19C84.8248 51.87 84.3848 51.43 84.0448 50.87C83.7048 50.29 83.5348 49.56 83.5348 48.68C83.5348 47.74 83.7748 46.93 84.2548 46.25C84.7348 45.55 85.4148 45 86.2948 44.6C87.1748 44.2 88.2048 44 89.3848 44C90.6248 44 91.7648 44.22 92.8048 44.66C93.8648 45.08 94.7248 45.71 95.3848 46.55L92.7748 49.19C92.3148 48.65 91.7948 48.27 91.2148 48.05C90.6548 47.83 90.1048 47.72 89.5648 47.72C89.0448 47.72 88.6548 47.8 88.3948 47.96C88.1348 48.1 88.0048 48.31 88.0048 48.59C88.0048 48.89 88.1748 49.13 88.5148 49.31C88.8548 49.49 89.2948 49.65 89.8348 49.79C90.3748 49.93 90.9448 50.1 91.5448 50.3C92.1448 50.5 92.7148 50.77 93.2548 51.11C93.7948 51.45 94.2348 51.91 94.5748 52.49C94.9148 53.05 95.0848 53.79 95.0848 54.71C95.0848 56.13 94.5448 57.26 93.4648 58.1C92.4048 58.94 90.9648 59.36 89.1448 59.36ZM104.055 59.33C102.715 59.33 101.525 59.06 100.485 58.52C99.4651 57.96 98.6651 57.2 98.0851 56.24C97.5051 55.26 97.2151 54.14 97.2151 52.88V44.42H101.805V52.82C101.805 53.32 101.885 53.75 102.045 54.11C102.225 54.47 102.485 54.75 102.825 54.95C103.165 55.15 103.575 55.25 104.055 55.25C104.735 55.25 105.275 55.04 105.675 54.62C106.075 54.18 106.275 53.58 106.275 52.82V44.42H110.865V52.85C110.865 54.13 110.575 55.26 109.995 56.24C109.415 57.2 108.615 57.96 107.595 58.52C106.575 59.06 105.395 59.33 104.055 59.33ZM113.747 59V44.42H118.337V59H113.747ZM123.077 59V50.48C123.077 49.74 122.847 49.17 122.387 48.77C121.947 48.35 121.397 48.14 120.737 48.14C120.277 48.14 119.867 48.24 119.507 48.44C119.147 48.62 118.857 48.88 118.637 49.22C118.437 49.56 118.337 49.98 118.337 50.48L116.567 49.7C116.567 48.54 116.817 47.55 117.317 46.73C117.817 45.89 118.497 45.25 119.357 44.81C120.217 44.35 121.187 44.12 122.267 44.12C123.287 44.12 124.197 44.35 124.997 44.81C125.817 45.27 126.467 45.91 126.947 46.73C127.427 47.55 127.667 48.53 127.667 49.67V59H123.077ZM132.407 59V50.48C132.407 49.74 132.177 49.17 131.717 48.77C131.277 48.35 130.727 48.14 130.067 48.14C129.607 48.14 129.197 48.24 128.837 48.44C128.477 48.62 128.187 48.88 127.967 49.22C127.767 49.56 127.667 49.98 127.667 50.48L125.027 50.12C125.067 48.88 125.357 47.82 125.897 46.94C126.457 46.04 127.187 45.35 128.087 44.87C129.007 44.37 130.037 44.12 131.177 44.12C132.297 44.12 133.287 44.36 134.147 44.84C135.027 45.3 135.717 45.97 136.217 46.85C136.737 47.71 136.997 48.75 136.997 49.97V59H132.407ZM147.138 59.33C145.558 59.33 144.148 59.01 142.908 58.37C141.688 57.71 140.728 56.8 140.028 55.64C139.328 54.48 138.978 53.17 138.978 51.71C138.978 50.25 139.318 48.95 139.998 47.81C140.698 46.65 141.638 45.74 142.818 45.08C143.998 44.42 145.328 44.09 146.808 44.09C148.248 44.09 149.518 44.4 150.618 45.02C151.718 45.64 152.578 46.5 153.198 47.6C153.838 48.7 154.158 49.96 154.158 51.38C154.158 51.64 154.138 51.92 154.098 52.22C154.078 52.5 154.028 52.83 153.948 53.21L141.378 53.24V50.09L151.998 50.06L150.018 51.38C149.998 50.54 149.868 49.85 149.628 49.31C149.388 48.75 149.028 48.33 148.548 48.05C148.088 47.75 147.518 47.6 146.838 47.6C146.118 47.6 145.488 47.77 144.948 48.11C144.428 48.43 144.018 48.89 143.718 49.49C143.438 50.09 143.298 50.82 143.298 51.68C143.298 52.54 143.448 53.28 143.748 53.9C144.068 54.5 144.508 54.97 145.068 55.31C145.648 55.63 146.328 55.79 147.108 55.79C147.828 55.79 148.478 55.67 149.058 55.43C149.638 55.17 150.148 54.79 150.588 54.29L153.108 56.81C152.388 57.65 151.518 58.28 150.498 58.7C149.478 59.12 148.358 59.33 147.138 59.33Z" fill="white"/>
</g>
</svg>
