<svg width="412" height="412" viewBox="0 0 412 412" fill="none" xmlns="http://www.w3.org/2000/svg">
<g id="Frame 1">
<g id="grid">
<g id="square1">
<g id="Rectangle 7">
<path d="M93 105C93 104.448 93.4477 104 94 104H113.244C113.796 104 114.244 104.448 114.244 105V121.884C114.244 122.436 113.796 122.884 113.244 122.884H94C93.4477 122.884 93 122.436 93 121.884V105Z" fill="#D8FF9E"/>
<path d="M120.145 105C120.145 104.448 120.593 104 121.145 104H140.39C140.942 104 141.39 104.448 141.39 105V121.884C141.39 122.436 140.942 122.884 140.39 122.884H121.145C120.593 122.884 120.145 122.436 120.145 121.884V105Z" fill="#B8FF98"/>
<path d="M147.291 105C147.291 104.448 147.738 104 148.291 104H167.535C168.087 104 168.535 104.448 168.535 105V121.884C168.535 122.436 168.087 122.884 167.535 122.884H148.291C147.738 122.884 147.291 122.436 147.291 121.884V105Z" fill="#D8FF9E"/>
<path d="M174.436 105C174.436 104.448 174.884 104 175.436 104H194.68C195.233 104 195.68 104.448 195.68 105V121.884C195.68 122.436 195.233 122.884 194.68 122.884H175.436C174.884 122.884 174.436 122.436 174.436 121.884V105Z" fill="#FFF58E"/>
<path d="M94 104.35H113.244C113.603 104.35 113.894 104.641 113.894 105V121.884C113.894 122.243 113.603 122.534 113.244 122.534H94C93.641 122.534 93.35 122.243 93.35 121.884V105C93.35 104.641 93.641 104.35 94 104.35ZM121.145 104.35H140.39C140.749 104.35 141.04 104.641 141.04 105V121.884C141.04 122.243 140.749 122.534 140.39 122.534H121.145C120.786 122.534 120.495 122.243 120.495 121.884V105C120.495 104.641 120.786 104.35 121.145 104.35ZM148.291 104.35H167.535C167.894 104.35 168.185 104.641 168.185 105V121.884C168.185 122.243 167.894 122.534 167.535 122.534H148.291C147.932 122.534 147.641 122.243 147.641 121.884V105C147.641 104.641 147.932 104.35 148.291 104.35ZM175.436 104.35H194.68C195.039 104.35 195.33 104.641 195.33 105V121.884C195.33 122.243 195.039 122.534 194.68 122.534H175.436C175.077 122.534 174.786 122.243 174.786 121.884V105C174.786 104.641 175.077 104.35 175.436 104.35Z" stroke="black" stroke-width="0.7"/>
</g>
<g id="Rectangle 8">
<path d="M93 129.785C93 129.233 93.4477 128.785 94 128.785H113.244C113.796 128.785 114.244 129.233 114.244 129.785V146.669C114.244 147.221 113.796 147.669 113.244 147.669H94C93.4477 147.669 93 147.221 93 146.669V129.785Z" fill="#FFF484"/>
<path d="M120.145 129.785C120.145 129.233 120.593 128.785 121.145 128.785H140.39C140.942 128.785 141.39 129.233 141.39 129.785V146.669C141.39 147.221 140.942 147.669 140.39 147.669H121.145C120.593 147.669 120.145 147.221 120.145 146.669V129.785Z" fill="#94D677"/>
<path d="M147.291 129.785C147.291 129.233 147.738 128.785 148.291 128.785H167.535C168.087 128.785 168.535 129.233 168.535 129.785V146.669C168.535 147.221 168.087 147.669 167.535 147.669H148.291C147.738 147.669 147.291 147.221 147.291 146.669V129.785Z" fill="#EFD900"/>
<path d="M174.436 129.785C174.436 129.233 174.884 128.785 175.436 128.785H194.68C195.233 128.785 195.68 129.233 195.68 129.785V146.669C195.68 147.221 195.233 147.669 194.68 147.669H175.436C174.884 147.669 174.436 147.221 174.436 146.669V129.785Z" fill="#B8FF98"/>
<path d="M94 129.135H113.244C113.603 129.135 113.894 129.426 113.894 129.785V146.669C113.894 147.028 113.603 147.319 113.244 147.319H94C93.641 147.319 93.35 147.028 93.35 146.669V129.785C93.35 129.426 93.641 129.135 94 129.135ZM121.145 129.135H140.39C140.749 129.135 141.04 129.426 141.04 129.785V146.669C141.04 147.028 140.749 147.319 140.39 147.319H121.145C120.786 147.319 120.495 147.028 120.495 146.669V129.785C120.495 129.426 120.786 129.135 121.145 129.135ZM148.291 129.135H167.535C167.894 129.135 168.185 129.426 168.185 129.785V146.669C168.185 147.028 167.894 147.319 167.535 147.319H148.291C147.932 147.319 147.641 147.028 147.641 146.669V129.785C147.641 129.426 147.932 129.135 148.291 129.135ZM175.436 129.135H194.68C195.039 129.135 195.33 129.426 195.33 129.785V146.669C195.33 147.028 195.039 147.319 194.68 147.319H175.436C175.077 147.319 174.786 147.028 174.786 146.669V129.785C174.786 129.426 175.077 129.135 175.436 129.135Z" stroke="black" stroke-width="0.7"/>
</g>
<g id="Rectangle 9">
<path d="M93 179.355C93 178.802 93.4477 178.355 94 178.355H113.244C113.796 178.355 114.244 178.802 114.244 179.355V196.238C114.244 196.791 113.796 197.238 113.244 197.238H94C93.4477 197.238 93 196.791 93 196.238V179.355Z" fill="#FFF485"/>
<path d="M120.145 179.355C120.145 178.802 120.593 178.355 121.145 178.355H140.39C140.942 178.355 141.39 178.802 141.39 179.355V196.238C141.39 196.791 140.942 197.238 140.39 197.238H121.145C120.593 197.238 120.145 196.791 120.145 196.238V179.355Z" fill="#94D677"/>
<path d="M147.291 179.355C147.291 178.802 147.738 178.355 148.291 178.355H167.535C168.087 178.355 168.535 178.802 168.535 179.355V196.238C168.535 196.791 168.087 197.238 167.535 197.238H148.291C147.738 197.238 147.291 196.791 147.291 196.238V179.355Z" fill="#EFD900"/>
<path d="M174.436 179.355C174.436 178.802 174.884 178.355 175.436 178.355H194.68C195.233 178.355 195.68 178.802 195.68 179.355V196.238C195.68 196.791 195.233 197.238 194.68 197.238H175.436C174.884 197.238 174.436 196.791 174.436 196.238V179.355Z" fill="#B8FF98"/>
<path d="M94 178.705H113.244C113.603 178.705 113.894 178.996 113.894 179.355V196.238C113.894 196.597 113.603 196.888 113.244 196.888H94C93.641 196.888 93.35 196.597 93.35 196.238V179.355C93.35 178.996 93.641 178.705 94 178.705ZM121.145 178.705H140.39C140.749 178.705 141.04 178.996 141.04 179.355V196.238C141.04 196.597 140.749 196.888 140.39 196.888H121.145C120.786 196.888 120.495 196.597 120.495 196.238V179.355C120.495 178.996 120.786 178.705 121.145 178.705ZM148.291 178.705H167.535C167.894 178.705 168.185 178.996 168.185 179.355V196.238C168.185 196.597 167.894 196.888 167.535 196.888H148.291C147.932 196.888 147.641 196.597 147.641 196.238V179.355C147.641 178.996 147.932 178.705 148.291 178.705ZM175.436 178.705H194.68C195.039 178.705 195.33 178.996 195.33 179.355V196.238C195.33 196.597 195.039 196.888 194.68 196.888H175.436C175.077 196.888 174.786 196.597 174.786 196.238V179.355C174.786 178.996 175.077 178.705 175.436 178.705Z" stroke="black" stroke-width="0.7"/>
</g>
<g id="Rectangle 10">
<path d="M93 154.57C93 154.017 93.4477 153.57 94 153.57H113.244C113.796 153.57 114.244 154.017 114.244 154.57V171.453C114.244 172.006 113.796 172.453 113.244 172.453H94C93.4477 172.453 93 172.006 93 171.453V154.57Z" fill="#BCEC74"/>
<path d="M120.145 154.57C120.145 154.017 120.593 153.57 121.145 153.57H140.39C140.942 153.57 141.39 154.017 141.39 154.57V171.453C141.39 172.006 140.942 172.453 140.39 172.453H121.145C120.593 172.453 120.145 172.006 120.145 171.453V154.57Z" fill="#B8FF98"/>
<path d="M147.291 154.57C147.291 154.017 147.738 153.57 148.291 153.57H167.535C168.087 153.57 168.535 154.017 168.535 154.57V171.453C168.535 172.006 168.087 172.453 167.535 172.453H148.291C147.738 172.453 147.291 172.006 147.291 171.453V154.57Z" fill="#BCEC74"/>
<path d="M174.436 154.57C174.436 154.017 174.884 153.57 175.436 153.57H194.68C195.233 153.57 195.68 154.017 195.68 154.57V171.453C195.68 172.006 195.233 172.453 194.68 172.453H175.436C174.884 172.453 174.436 172.006 174.436 171.453V154.57Z" fill="#FFF58E"/>
<path d="M94 153.92H113.244C113.603 153.92 113.894 154.211 113.894 154.57V171.453C113.894 171.812 113.603 172.103 113.244 172.103H94C93.641 172.103 93.35 171.812 93.35 171.453V154.57C93.35 154.211 93.641 153.92 94 153.92ZM121.145 153.92H140.39C140.749 153.92 141.04 154.211 141.04 154.57V171.453C141.04 171.812 140.749 172.103 140.39 172.103H121.145C120.786 172.103 120.495 171.812 120.495 171.453V154.57C120.495 154.211 120.786 153.92 121.145 153.92ZM148.291 153.92H167.535C167.894 153.92 168.185 154.211 168.185 154.57V171.453C168.185 171.812 167.894 172.103 167.535 172.103H148.291C147.932 172.103 147.641 171.812 147.641 171.453V154.57C147.641 154.211 147.932 153.92 148.291 153.92ZM175.436 153.92H194.68C195.039 153.92 195.33 154.211 195.33 154.57V171.453C195.33 171.812 195.039 172.103 194.68 172.103H175.436C175.077 172.103 174.786 171.812 174.786 171.453V154.57C174.786 154.211 175.077 153.92 175.436 153.92Z" stroke="black" stroke-width="0.7"/>
</g>
</g>
<g id="Rectangle 11">
<path d="M215.744 105C215.744 104.448 216.192 104 216.744 104H235.988C236.541 104 236.988 104.448 236.988 105V121.884C236.988 122.436 236.541 122.884 235.988 122.884H216.744C216.192 122.884 215.744 122.436 215.744 121.884V105Z" fill="#D8FF9E"/>
<path d="M242.89 105C242.89 104.448 243.337 104 243.89 104H263.134C263.686 104 264.134 104.448 264.134 105V121.884C264.134 122.436 263.686 122.884 263.134 122.884H243.89C243.337 122.884 242.89 122.436 242.89 121.884V105Z" fill="#B8FF98"/>
<path d="M270.035 105C270.035 104.448 270.483 104 271.035 104H290.279C290.831 104 291.279 104.448 291.279 105V121.884C291.279 122.436 290.831 122.884 290.279 122.884H271.035C270.483 122.884 270.035 122.436 270.035 121.884V105Z" fill="#D8FF9E"/>
<path d="M297.18 105C297.18 104.448 297.628 104 298.18 104H317.424C317.977 104 318.424 104.448 318.424 105V121.884C318.424 122.436 317.977 122.884 317.424 122.884H298.18C297.628 122.884 297.18 122.436 297.18 121.884V105Z" fill="#FFF58E"/>
<path d="M216.744 104.35H235.988C236.347 104.35 236.638 104.641 236.638 105V121.884C236.638 122.243 236.347 122.534 235.988 122.534H216.744C216.385 122.534 216.094 122.243 216.094 121.884V105C216.094 104.641 216.385 104.35 216.744 104.35ZM243.89 104.35H263.134C263.493 104.35 263.784 104.641 263.784 105V121.884C263.784 122.243 263.493 122.534 263.134 122.534H243.89C243.531 122.534 243.24 122.243 243.24 121.884V105C243.24 104.641 243.531 104.35 243.89 104.35ZM271.035 104.35H290.279C290.638 104.35 290.929 104.641 290.929 105V121.884C290.929 122.243 290.638 122.534 290.279 122.534H271.035C270.676 122.534 270.385 122.243 270.385 121.884V105C270.385 104.641 270.676 104.35 271.035 104.35ZM298.18 104.35H317.424C317.783 104.35 318.074 104.641 318.074 105V121.884C318.074 122.243 317.783 122.534 317.424 122.534H298.18C297.821 122.534 297.53 122.243 297.53 121.884V105C297.53 104.641 297.821 104.35 298.18 104.35Z" stroke="black" stroke-width="0.7"/>
</g>
<g id="Rectangle 12">
<path d="M215.744 129.785C215.744 129.233 216.192 128.785 216.744 128.785H235.988C236.541 128.785 236.988 129.233 236.988 129.785V146.669C236.988 147.221 236.541 147.669 235.988 147.669H216.744C216.192 147.669 215.744 147.221 215.744 146.669V129.785Z" fill="#FFF484"/>
<path d="M242.89 129.785C242.89 129.233 243.337 128.785 243.89 128.785H263.134C263.686 128.785 264.134 129.233 264.134 129.785V146.669C264.134 147.221 263.686 147.669 263.134 147.669H243.89C243.337 147.669 242.89 147.221 242.89 146.669V129.785Z" fill="#94D677"/>
<path d="M270.035 129.785C270.035 129.233 270.483 128.785 271.035 128.785H290.279C290.831 128.785 291.279 129.233 291.279 129.785V146.669C291.279 147.221 290.831 147.669 290.279 147.669H271.035C270.483 147.669 270.035 147.221 270.035 146.669V129.785Z" fill="#EFD900"/>
<path d="M297.18 129.785C297.18 129.233 297.628 128.785 298.18 128.785H317.424C317.977 128.785 318.424 129.233 318.424 129.785V146.669C318.424 147.221 317.977 147.669 317.424 147.669H298.18C297.628 147.669 297.18 147.221 297.18 146.669V129.785Z" fill="#B8FF98"/>
<path d="M216.744 129.135H235.988C236.347 129.135 236.638 129.426 236.638 129.785V146.669C236.638 147.028 236.347 147.319 235.988 147.319H216.744C216.385 147.319 216.094 147.028 216.094 146.669V129.785C216.094 129.426 216.385 129.135 216.744 129.135ZM243.89 129.135H263.134C263.493 129.135 263.784 129.426 263.784 129.785V146.669C263.784 147.028 263.493 147.319 263.134 147.319H243.89C243.531 147.319 243.24 147.028 243.24 146.669V129.785C243.24 129.426 243.531 129.135 243.89 129.135ZM271.035 129.135H290.279C290.638 129.135 290.929 129.426 290.929 129.785V146.669C290.929 147.028 290.638 147.319 290.279 147.319H271.035C270.676 147.319 270.385 147.028 270.385 146.669V129.785C270.385 129.426 270.676 129.135 271.035 129.135ZM298.18 129.135H317.424C317.783 129.135 318.074 129.426 318.074 129.785V146.669C318.074 147.028 317.783 147.319 317.424 147.319H298.18C297.821 147.319 297.53 147.028 297.53 146.669V129.785C297.53 129.426 297.821 129.135 298.18 129.135Z" stroke="black" stroke-width="0.7"/>
</g>
<g id="Rectangle 13">
<path d="M215.744 179.355C215.744 178.802 216.192 178.355 216.744 178.355H235.988C236.541 178.355 236.988 178.802 236.988 179.355V196.238C236.988 196.791 236.541 197.238 235.988 197.238H216.744C216.192 197.238 215.744 196.791 215.744 196.238V179.355Z" fill="#FFF485"/>
<path d="M242.89 179.355C242.89 178.802 243.337 178.355 243.89 178.355H263.134C263.686 178.355 264.134 178.802 264.134 179.355V196.238C264.134 196.791 263.686 197.238 263.134 197.238H243.89C243.337 197.238 242.89 196.791 242.89 196.238V179.355Z" fill="#94D677"/>
<path d="M270.035 179.355C270.035 178.802 270.483 178.355 271.035 178.355H290.279C290.831 178.355 291.279 178.802 291.279 179.355V196.238C291.279 196.791 290.831 197.238 290.279 197.238H271.035C270.483 197.238 270.035 196.791 270.035 196.238V179.355Z" fill="#EFD900"/>
<path d="M297.18 179.355C297.18 178.802 297.628 178.355 298.18 178.355H317.424C317.977 178.355 318.424 178.802 318.424 179.355V196.238C318.424 196.791 317.977 197.238 317.424 197.238H298.18C297.628 197.238 297.18 196.791 297.18 196.238V179.355Z" fill="#B8FF98"/>
<path d="M216.744 178.705H235.988C236.347 178.705 236.638 178.996 236.638 179.355V196.238C236.638 196.597 236.347 196.888 235.988 196.888H216.744C216.385 196.888 216.094 196.597 216.094 196.238V179.355C216.094 178.996 216.385 178.705 216.744 178.705ZM243.89 178.705H263.134C263.493 178.705 263.784 178.996 263.784 179.355V196.238C263.784 196.597 263.493 196.888 263.134 196.888H243.89C243.531 196.888 243.24 196.597 243.24 196.238V179.355C243.24 178.996 243.531 178.705 243.89 178.705ZM271.035 178.705H290.279C290.638 178.705 290.929 178.996 290.929 179.355V196.238C290.929 196.597 290.638 196.888 290.279 196.888H271.035C270.676 196.888 270.385 196.597 270.385 196.238V179.355C270.385 178.996 270.676 178.705 271.035 178.705ZM298.18 178.705H317.424C317.783 178.705 318.074 178.996 318.074 179.355V196.238C318.074 196.597 317.783 196.888 317.424 196.888H298.18C297.821 196.888 297.53 196.597 297.53 196.238V179.355C297.53 178.996 297.821 178.705 298.18 178.705Z" stroke="black" stroke-width="0.7"/>
</g>
<g id="Rectangle 14">
<path d="M215.744 154.57C215.744 154.017 216.192 153.57 216.744 153.57H235.988C236.541 153.57 236.988 154.017 236.988 154.57V171.453C236.988 172.006 236.541 172.453 235.988 172.453H216.744C216.192 172.453 215.744 172.006 215.744 171.453V154.57Z" fill="#BCEC74"/>
<path d="M242.89 154.57C242.89 154.017 243.337 153.57 243.89 153.57H263.134C263.686 153.57 264.134 154.017 264.134 154.57V171.453C264.134 172.006 263.686 172.453 263.134 172.453H243.89C243.337 172.453 242.89 172.006 242.89 171.453V154.57Z" fill="#B8FF98"/>
<path d="M270.035 154.57C270.035 154.017 270.483 153.57 271.035 153.57H290.279C290.831 153.57 291.279 154.017 291.279 154.57V171.453C291.279 172.006 290.831 172.453 290.279 172.453H271.035C270.483 172.453 270.035 172.006 270.035 171.453V154.57Z" fill="#BCEC74"/>
<path d="M297.18 154.57C297.18 154.017 297.628 153.57 298.18 153.57H317.424C317.977 153.57 318.424 154.017 318.424 154.57V171.453C318.424 172.006 317.977 172.453 317.424 172.453H298.18C297.628 172.453 297.18 172.006 297.18 171.453V154.57Z" fill="#FFF58E"/>
<path d="M216.744 153.92H235.988C236.347 153.92 236.638 154.211 236.638 154.57V171.453C236.638 171.812 236.347 172.103 235.988 172.103H216.744C216.385 172.103 216.094 171.812 216.094 171.453V154.57C216.094 154.211 216.385 153.92 216.744 153.92ZM243.89 153.92H263.134C263.493 153.92 263.784 154.211 263.784 154.57V171.453C263.784 171.812 263.493 172.103 263.134 172.103H243.89C243.531 172.103 243.24 171.812 243.24 171.453V154.57C243.24 154.211 243.531 153.92 243.89 153.92ZM271.035 153.92H290.279C290.638 153.92 290.929 154.211 290.929 154.57V171.453C290.929 171.812 290.638 172.103 290.279 172.103H271.035C270.676 172.103 270.385 171.812 270.385 171.453V154.57C270.385 154.211 270.676 153.92 271.035 153.92ZM298.18 153.92H317.424C317.783 153.92 318.074 154.211 318.074 154.57V171.453C318.074 171.812 317.783 172.103 317.424 172.103H298.18C297.821 172.103 297.53 171.812 297.53 171.453V154.57C297.53 154.211 297.821 153.92 298.18 153.92Z" stroke="black" stroke-width="0.7"/>
</g>
<g id="square2">
<g id="Rectangle 15">
<path d="M215.744 105C215.744 104.448 216.192 104 216.744 104H235.988C236.541 104 236.988 104.448 236.988 105V121.884C236.988 122.436 236.541 122.884 235.988 122.884H216.744C216.192 122.884 215.744 122.436 215.744 121.884V105Z" fill="#D8FF9E"/>
<path d="M242.89 105C242.89 104.448 243.337 104 243.89 104H263.134C263.686 104 264.134 104.448 264.134 105V121.884C264.134 122.436 263.686 122.884 263.134 122.884H243.89C243.337 122.884 242.89 122.436 242.89 121.884V105Z" fill="#B8FF98"/>
<path d="M270.035 105C270.035 104.448 270.483 104 271.035 104H290.279C290.831 104 291.279 104.448 291.279 105V121.884C291.279 122.436 290.831 122.884 290.279 122.884H271.035C270.483 122.884 270.035 122.436 270.035 121.884V105Z" fill="#D8FF9E"/>
<path d="M297.18 105C297.18 104.448 297.628 104 298.18 104H317.424C317.977 104 318.424 104.448 318.424 105V121.884C318.424 122.436 317.977 122.884 317.424 122.884H298.18C297.628 122.884 297.18 122.436 297.18 121.884V105Z" fill="#FFF58E"/>
<path d="M216.744 104.35H235.988C236.347 104.35 236.638 104.641 236.638 105V121.884C236.638 122.243 236.347 122.534 235.988 122.534H216.744C216.385 122.534 216.094 122.243 216.094 121.884V105C216.094 104.641 216.385 104.35 216.744 104.35ZM243.89 104.35H263.134C263.493 104.35 263.784 104.641 263.784 105V121.884C263.784 122.243 263.493 122.534 263.134 122.534H243.89C243.531 122.534 243.24 122.243 243.24 121.884V105C243.24 104.641 243.531 104.35 243.89 104.35ZM271.035 104.35H290.279C290.638 104.35 290.929 104.641 290.929 105V121.884C290.929 122.243 290.638 122.534 290.279 122.534H271.035C270.676 122.534 270.385 122.243 270.385 121.884V105C270.385 104.641 270.676 104.35 271.035 104.35ZM298.18 104.35H317.424C317.783 104.35 318.074 104.641 318.074 105V121.884C318.074 122.243 317.783 122.534 317.424 122.534H298.18C297.821 122.534 297.53 122.243 297.53 121.884V105C297.53 104.641 297.821 104.35 298.18 104.35Z" stroke="black" stroke-width="0.7"/>
</g>
<g id="Rectangle 16">
<path d="M215.744 129.785C215.744 129.233 216.192 128.785 216.744 128.785H235.988C236.541 128.785 236.988 129.233 236.988 129.785V146.669C236.988 147.221 236.541 147.669 235.988 147.669H216.744C216.192 147.669 215.744 147.221 215.744 146.669V129.785Z" fill="#FFF484"/>
<path d="M242.89 129.785C242.89 129.233 243.337 128.785 243.89 128.785H263.134C263.686 128.785 264.134 129.233 264.134 129.785V146.669C264.134 147.221 263.686 147.669 263.134 147.669H243.89C243.337 147.669 242.89 147.221 242.89 146.669V129.785Z" fill="#94D677"/>
<path d="M270.035 129.785C270.035 129.233 270.483 128.785 271.035 128.785H290.279C290.831 128.785 291.279 129.233 291.279 129.785V146.669C291.279 147.221 290.831 147.669 290.279 147.669H271.035C270.483 147.669 270.035 147.221 270.035 146.669V129.785Z" fill="#EFD900"/>
<path d="M297.18 129.785C297.18 129.233 297.628 128.785 298.18 128.785H317.424C317.977 128.785 318.424 129.233 318.424 129.785V146.669C318.424 147.221 317.977 147.669 317.424 147.669H298.18C297.628 147.669 297.18 147.221 297.18 146.669V129.785Z" fill="#B8FF98"/>
<path d="M216.744 129.135H235.988C236.347 129.135 236.638 129.426 236.638 129.785V146.669C236.638 147.028 236.347 147.319 235.988 147.319H216.744C216.385 147.319 216.094 147.028 216.094 146.669V129.785C216.094 129.426 216.385 129.135 216.744 129.135ZM243.89 129.135H263.134C263.493 129.135 263.784 129.426 263.784 129.785V146.669C263.784 147.028 263.493 147.319 263.134 147.319H243.89C243.531 147.319 243.24 147.028 243.24 146.669V129.785C243.24 129.426 243.531 129.135 243.89 129.135ZM271.035 129.135H290.279C290.638 129.135 290.929 129.426 290.929 129.785V146.669C290.929 147.028 290.638 147.319 290.279 147.319H271.035C270.676 147.319 270.385 147.028 270.385 146.669V129.785C270.385 129.426 270.676 129.135 271.035 129.135ZM298.18 129.135H317.424C317.783 129.135 318.074 129.426 318.074 129.785V146.669C318.074 147.028 317.783 147.319 317.424 147.319H298.18C297.821 147.319 297.53 147.028 297.53 146.669V129.785C297.53 129.426 297.821 129.135 298.18 129.135Z" stroke="black" stroke-width="0.7"/>
</g>
<g id="Rectangle 17">
<path d="M215.744 179.355C215.744 178.802 216.192 178.355 216.744 178.355H235.988C236.541 178.355 236.988 178.802 236.988 179.355V196.238C236.988 196.791 236.541 197.238 235.988 197.238H216.744C216.192 197.238 215.744 196.791 215.744 196.238V179.355Z" fill="#FFF485"/>
<path d="M242.89 179.355C242.89 178.802 243.337 178.355 243.89 178.355H263.134C263.686 178.355 264.134 178.802 264.134 179.355V196.238C264.134 196.791 263.686 197.238 263.134 197.238H243.89C243.337 197.238 242.89 196.791 242.89 196.238V179.355Z" fill="#94D677"/>
<path d="M270.035 179.355C270.035 178.802 270.483 178.355 271.035 178.355H290.279C290.831 178.355 291.279 178.802 291.279 179.355V196.238C291.279 196.791 290.831 197.238 290.279 197.238H271.035C270.483 197.238 270.035 196.791 270.035 196.238V179.355Z" fill="#EFD900"/>
<path d="M297.18 179.355C297.18 178.802 297.628 178.355 298.18 178.355H317.424C317.977 178.355 318.424 178.802 318.424 179.355V196.238C318.424 196.791 317.977 197.238 317.424 197.238H298.18C297.628 197.238 297.18 196.791 297.18 196.238V179.355Z" fill="#B8FF98"/>
<path d="M216.744 178.705H235.988C236.347 178.705 236.638 178.996 236.638 179.355V196.238C236.638 196.597 236.347 196.888 235.988 196.888H216.744C216.385 196.888 216.094 196.597 216.094 196.238V179.355C216.094 178.996 216.385 178.705 216.744 178.705ZM243.89 178.705H263.134C263.493 178.705 263.784 178.996 263.784 179.355V196.238C263.784 196.597 263.493 196.888 263.134 196.888H243.89C243.531 196.888 243.24 196.597 243.24 196.238V179.355C243.24 178.996 243.531 178.705 243.89 178.705ZM271.035 178.705H290.279C290.638 178.705 290.929 178.996 290.929 179.355V196.238C290.929 196.597 290.638 196.888 290.279 196.888H271.035C270.676 196.888 270.385 196.597 270.385 196.238V179.355C270.385 178.996 270.676 178.705 271.035 178.705ZM298.18 178.705H317.424C317.783 178.705 318.074 178.996 318.074 179.355V196.238C318.074 196.597 317.783 196.888 317.424 196.888H298.18C297.821 196.888 297.53 196.597 297.53 196.238V179.355C297.53 178.996 297.821 178.705 298.18 178.705Z" stroke="black" stroke-width="0.7"/>
</g>
<g id="Rectangle 18">
<path d="M215.744 154.57C215.744 154.017 216.192 153.57 216.744 153.57H235.988C236.541 153.57 236.988 154.017 236.988 154.57V171.453C236.988 172.006 236.541 172.453 235.988 172.453H216.744C216.192 172.453 215.744 172.006 215.744 171.453V154.57Z" fill="#BCEC74"/>
<path d="M242.89 154.57C242.89 154.017 243.337 153.57 243.89 153.57H263.134C263.686 153.57 264.134 154.017 264.134 154.57V171.453C264.134 172.006 263.686 172.453 263.134 172.453H243.89C243.337 172.453 242.89 172.006 242.89 171.453V154.57Z" fill="#B8FF98"/>
<path d="M270.035 154.57C270.035 154.017 270.483 153.57 271.035 153.57H290.279C290.831 153.57 291.279 154.017 291.279 154.57V171.453C291.279 172.006 290.831 172.453 290.279 172.453H271.035C270.483 172.453 270.035 172.006 270.035 171.453V154.57Z" fill="#BCEC74"/>
<path d="M297.18 154.57C297.18 154.017 297.628 153.57 298.18 153.57H317.424C317.977 153.57 318.424 154.017 318.424 154.57V171.453C318.424 172.006 317.977 172.453 317.424 172.453H298.18C297.628 172.453 297.18 172.006 297.18 171.453V154.57Z" fill="#FFF58E"/>
<path d="M216.744 153.92H235.988C236.347 153.92 236.638 154.211 236.638 154.57V171.453C236.638 171.812 236.347 172.103 235.988 172.103H216.744C216.385 172.103 216.094 171.812 216.094 171.453V154.57C216.094 154.211 216.385 153.92 216.744 153.92ZM243.89 153.92H263.134C263.493 153.92 263.784 154.211 263.784 154.57V171.453C263.784 171.812 263.493 172.103 263.134 172.103H243.89C243.531 172.103 243.24 171.812 243.24 171.453V154.57C243.24 154.211 243.531 153.92 243.89 153.92ZM271.035 153.92H290.279C290.638 153.92 290.929 154.211 290.929 154.57V171.453C290.929 171.812 290.638 172.103 290.279 172.103H271.035C270.676 172.103 270.385 171.812 270.385 171.453V154.57C270.385 154.211 270.676 153.92 271.035 153.92ZM298.18 153.92H317.424C317.783 153.92 318.074 154.211 318.074 154.57V171.453C318.074 171.812 317.783 172.103 317.424 172.103H298.18C297.821 172.103 297.53 171.812 297.53 171.453V154.57C297.53 154.211 297.821 153.92 298.18 153.92Z" stroke="black" stroke-width="0.7"/>
</g>
</g>
<g id="Rectangle 19">
<path d="M93 214.762C93 214.209 93.4477 213.762 94 213.762H113.244C113.796 213.762 114.244 214.209 114.244 214.762V231.645C114.244 232.198 113.796 232.645 113.244 232.645H94C93.4477 232.645 93 232.198 93 231.645V214.762Z" fill="#D8FF9E"/>
<path d="M120.145 214.762C120.145 214.209 120.593 213.762 121.145 213.762H140.39C140.942 213.762 141.39 214.209 141.39 214.762V231.645C141.39 232.198 140.942 232.645 140.39 232.645H121.145C120.593 232.645 120.145 232.198 120.145 231.645V214.762Z" fill="#B8FF98"/>
<path d="M147.291 214.762C147.291 214.209 147.738 213.762 148.291 213.762H167.535C168.087 213.762 168.535 214.209 168.535 214.762V231.645C168.535 232.198 168.087 232.645 167.535 232.645H148.291C147.738 232.645 147.291 232.198 147.291 231.645V214.762Z" fill="#D8FF9E"/>
<path d="M174.436 214.762C174.436 214.209 174.884 213.762 175.436 213.762H194.68C195.233 213.762 195.68 214.209 195.68 214.762V231.645C195.68 232.198 195.233 232.645 194.68 232.645H175.436C174.884 232.645 174.436 232.198 174.436 231.645V214.762Z" fill="#FFF58E"/>
<path d="M94 214.112H113.244C113.603 214.112 113.894 214.403 113.894 214.762V231.645C113.894 232.004 113.603 232.295 113.244 232.295H94C93.641 232.295 93.35 232.004 93.35 231.645V214.762C93.35 214.403 93.641 214.112 94 214.112ZM121.145 214.112H140.39C140.749 214.112 141.04 214.403 141.04 214.762V231.645C141.04 232.004 140.749 232.295 140.39 232.295H121.145C120.786 232.295 120.495 232.004 120.495 231.645V214.762C120.495 214.403 120.786 214.112 121.145 214.112ZM148.291 214.112H167.535C167.894 214.112 168.185 214.403 168.185 214.762V231.645C168.185 232.004 167.894 232.295 167.535 232.295H148.291C147.932 232.295 147.641 232.004 147.641 231.645V214.762C147.641 214.403 147.932 214.112 148.291 214.112ZM175.436 214.112H194.68C195.039 214.112 195.33 214.403 195.33 214.762V231.645C195.33 232.004 195.039 232.295 194.68 232.295H175.436C175.077 232.295 174.786 232.004 174.786 231.645V214.762C174.786 214.403 175.077 214.112 175.436 214.112Z" stroke="black" stroke-width="0.7"/>
</g>
<g id="Rectangle 20">
<path d="M93 239.547C93 238.994 93.4477 238.547 94 238.547H113.244C113.796 238.547 114.244 238.994 114.244 239.547V256.43C114.244 256.983 113.796 257.43 113.244 257.43H94C93.4477 257.43 93 256.983 93 256.43V239.547Z" fill="#FFF484"/>
<path d="M120.145 239.547C120.145 238.994 120.593 238.547 121.145 238.547H140.39C140.942 238.547 141.39 238.994 141.39 239.547V256.43C141.39 256.983 140.942 257.43 140.39 257.43H121.145C120.593 257.43 120.145 256.983 120.145 256.43V239.547Z" fill="#94D677"/>
<path d="M147.291 239.547C147.291 238.994 147.738 238.547 148.291 238.547H167.535C168.087 238.547 168.535 238.994 168.535 239.547V256.43C168.535 256.983 168.087 257.43 167.535 257.43H148.291C147.738 257.43 147.291 256.983 147.291 256.43V239.547Z" fill="#EFD900"/>
<path d="M174.436 239.547C174.436 238.994 174.884 238.547 175.436 238.547H194.68C195.233 238.547 195.68 238.994 195.68 239.547V256.43C195.68 256.983 195.233 257.43 194.68 257.43H175.436C174.884 257.43 174.436 256.983 174.436 256.43V239.547Z" fill="#B8FF98"/>
<path d="M94 238.897H113.244C113.603 238.897 113.894 239.188 113.894 239.547V256.43C113.894 256.789 113.603 257.08 113.244 257.08H94C93.641 257.08 93.35 256.789 93.35 256.43V239.547C93.35 239.188 93.641 238.897 94 238.897ZM121.145 238.897H140.39C140.749 238.897 141.04 239.188 141.04 239.547V256.43C141.04 256.789 140.749 257.08 140.39 257.08H121.145C120.786 257.08 120.495 256.789 120.495 256.43V239.547C120.495 239.188 120.786 238.897 121.145 238.897ZM148.291 238.897H167.535C167.894 238.897 168.185 239.188 168.185 239.547V256.43C168.185 256.789 167.894 257.08 167.535 257.08H148.291C147.932 257.08 147.641 256.789 147.641 256.43V239.547C147.641 239.188 147.932 238.897 148.291 238.897ZM175.436 238.897H194.68C195.039 238.897 195.33 239.188 195.33 239.547V256.43C195.33 256.789 195.039 257.08 194.68 257.08H175.436C175.077 257.08 174.786 256.789 174.786 256.43V239.547C174.786 239.188 175.077 238.897 175.436 238.897Z" stroke="black" stroke-width="0.7"/>
</g>
<g id="Rectangle 21">
<path d="M93 289.116C93 288.564 93.4477 288.116 94 288.116H113.244C113.796 288.116 114.244 288.564 114.244 289.116V306C114.244 306.552 113.796 307 113.244 307H94C93.4477 307 93 306.552 93 306V289.116Z" fill="#FFF485"/>
<path d="M120.145 289.116C120.145 288.564 120.593 288.116 121.145 288.116H140.39C140.942 288.116 141.39 288.564 141.39 289.116V306C141.39 306.552 140.942 307 140.39 307H121.145C120.593 307 120.145 306.552 120.145 306V289.116Z" fill="#94D677"/>
<path d="M147.291 289.116C147.291 288.564 147.738 288.116 148.291 288.116H167.535C168.087 288.116 168.535 288.564 168.535 289.116V306C168.535 306.552 168.087 307 167.535 307H148.291C147.738 307 147.291 306.552 147.291 306V289.116Z" fill="#EFD900"/>
<path d="M174.436 289.116C174.436 288.564 174.884 288.116 175.436 288.116H194.68C195.233 288.116 195.68 288.564 195.68 289.116V306C195.68 306.552 195.233 307 194.68 307H175.436C174.884 307 174.436 306.552 174.436 306V289.116Z" fill="#B8FF98"/>
<path d="M94 288.466H113.244C113.603 288.466 113.894 288.757 113.894 289.116V306C113.894 306.359 113.603 306.65 113.244 306.65H94C93.641 306.65 93.35 306.359 93.35 306V289.116C93.35 288.757 93.641 288.466 94 288.466ZM121.145 288.466H140.39C140.749 288.466 141.04 288.757 141.04 289.116V306C141.04 306.359 140.749 306.65 140.39 306.65H121.145C120.786 306.65 120.495 306.359 120.495 306V289.116C120.495 288.757 120.786 288.466 121.145 288.466ZM148.291 288.466H167.535C167.894 288.466 168.185 288.757 168.185 289.116V306C168.185 306.359 167.894 306.65 167.535 306.65H148.291C147.932 306.65 147.641 306.359 147.641 306V289.116C147.641 288.757 147.932 288.466 148.291 288.466ZM175.436 288.466H194.68C195.039 288.466 195.33 288.757 195.33 289.116V306C195.33 306.359 195.039 306.65 194.68 306.65H175.436C175.077 306.65 174.786 306.359 174.786 306V289.116C174.786 288.757 175.077 288.466 175.436 288.466Z" stroke="black" stroke-width="0.7"/>
</g>
<g id="Rectangle 22">
<path d="M93 264.331C93 263.779 93.4477 263.331 94 263.331H113.244C113.796 263.331 114.244 263.779 114.244 264.331V281.215C114.244 281.767 113.796 282.215 113.244 282.215H94C93.4477 282.215 93 281.767 93 281.215V264.331Z" fill="#BCEC74"/>
<path d="M120.145 264.331C120.145 263.779 120.593 263.331 121.145 263.331H140.39C140.942 263.331 141.39 263.779 141.39 264.331V281.215C141.39 281.767 140.942 282.215 140.39 282.215H121.145C120.593 282.215 120.145 281.767 120.145 281.215V264.331Z" fill="#B8FF98"/>
<path d="M147.291 264.331C147.291 263.779 147.738 263.331 148.291 263.331H167.535C168.087 263.331 168.535 263.779 168.535 264.331V281.215C168.535 281.767 168.087 282.215 167.535 282.215H148.291C147.738 282.215 147.291 281.767 147.291 281.215V264.331Z" fill="#BCEC74"/>
<path d="M174.436 264.331C174.436 263.779 174.884 263.331 175.436 263.331H194.68C195.233 263.331 195.68 263.779 195.68 264.331V281.215C195.68 281.767 195.233 282.215 194.68 282.215H175.436C174.884 282.215 174.436 281.767 174.436 281.215V264.331Z" fill="#FFF58E"/>
<path d="M94 263.681H113.244C113.603 263.681 113.894 263.972 113.894 264.331V281.215C113.894 281.574 113.603 281.865 113.244 281.865H94C93.641 281.865 93.35 281.574 93.35 281.215V264.331C93.35 263.972 93.641 263.681 94 263.681ZM121.145 263.681H140.39C140.749 263.681 141.04 263.972 141.04 264.331V281.215C141.04 281.574 140.749 281.865 140.39 281.865H121.145C120.786 281.865 120.495 281.574 120.495 281.215V264.331C120.495 263.972 120.786 263.681 121.145 263.681ZM148.291 263.681H167.535C167.894 263.681 168.185 263.972 168.185 264.331V281.215C168.185 281.574 167.894 281.865 167.535 281.865H148.291C147.932 281.865 147.641 281.574 147.641 281.215V264.331C147.641 263.972 147.932 263.681 148.291 263.681ZM175.436 263.681H194.68C195.039 263.681 195.33 263.972 195.33 264.331V281.215C195.33 281.574 195.039 281.865 194.68 281.865H175.436C175.077 281.865 174.786 281.574 174.786 281.215V264.331C174.786 263.972 175.077 263.681 175.436 263.681Z" stroke="black" stroke-width="0.7"/>
</g>
<g id="square3">
<g id="Rectangle 23">
<path d="M93 214.762C93 214.209 93.4477 213.762 94 213.762H113.244C113.796 213.762 114.244 214.209 114.244 214.762V231.645C114.244 232.198 113.796 232.645 113.244 232.645H94C93.4477 232.645 93 232.198 93 231.645V214.762Z" fill="#D8FF9E"/>
<path d="M120.145 214.762C120.145 214.209 120.593 213.762 121.145 213.762H140.39C140.942 213.762 141.39 214.209 141.39 214.762V231.645C141.39 232.198 140.942 232.645 140.39 232.645H121.145C120.593 232.645 120.145 232.198 120.145 231.645V214.762Z" fill="#B8FF98"/>
<path d="M147.291 214.762C147.291 214.209 147.738 213.762 148.291 213.762H167.535C168.087 213.762 168.535 214.209 168.535 214.762V231.645C168.535 232.198 168.087 232.645 167.535 232.645H148.291C147.738 232.645 147.291 232.198 147.291 231.645V214.762Z" fill="#D8FF9E"/>
<path d="M174.436 214.762C174.436 214.209 174.884 213.762 175.436 213.762H194.68C195.233 213.762 195.68 214.209 195.68 214.762V231.645C195.68 232.198 195.233 232.645 194.68 232.645H175.436C174.884 232.645 174.436 232.198 174.436 231.645V214.762Z" fill="#FFF58E"/>
<path d="M94 214.112H113.244C113.603 214.112 113.894 214.403 113.894 214.762V231.645C113.894 232.004 113.603 232.295 113.244 232.295H94C93.641 232.295 93.35 232.004 93.35 231.645V214.762C93.35 214.403 93.641 214.112 94 214.112ZM121.145 214.112H140.39C140.749 214.112 141.04 214.403 141.04 214.762V231.645C141.04 232.004 140.749 232.295 140.39 232.295H121.145C120.786 232.295 120.495 232.004 120.495 231.645V214.762C120.495 214.403 120.786 214.112 121.145 214.112ZM148.291 214.112H167.535C167.894 214.112 168.185 214.403 168.185 214.762V231.645C168.185 232.004 167.894 232.295 167.535 232.295H148.291C147.932 232.295 147.641 232.004 147.641 231.645V214.762C147.641 214.403 147.932 214.112 148.291 214.112ZM175.436 214.112H194.68C195.039 214.112 195.33 214.403 195.33 214.762V231.645C195.33 232.004 195.039 232.295 194.68 232.295H175.436C175.077 232.295 174.786 232.004 174.786 231.645V214.762C174.786 214.403 175.077 214.112 175.436 214.112Z" stroke="black" stroke-width="0.7"/>
</g>
<g id="Rectangle 24">
<path d="M93 239.547C93 238.994 93.4477 238.547 94 238.547H113.244C113.796 238.547 114.244 238.994 114.244 239.547V256.43C114.244 256.983 113.796 257.43 113.244 257.43H94C93.4477 257.43 93 256.983 93 256.43V239.547Z" fill="#FFF484"/>
<path d="M120.145 239.547C120.145 238.994 120.593 238.547 121.145 238.547H140.39C140.942 238.547 141.39 238.994 141.39 239.547V256.43C141.39 256.983 140.942 257.43 140.39 257.43H121.145C120.593 257.43 120.145 256.983 120.145 256.43V239.547Z" fill="#94D677"/>
<path d="M147.291 239.547C147.291 238.994 147.738 238.547 148.291 238.547H167.535C168.087 238.547 168.535 238.994 168.535 239.547V256.43C168.535 256.983 168.087 257.43 167.535 257.43H148.291C147.738 257.43 147.291 256.983 147.291 256.43V239.547Z" fill="#EFD900"/>
<path d="M174.436 239.547C174.436 238.994 174.884 238.547 175.436 238.547H194.68C195.233 238.547 195.68 238.994 195.68 239.547V256.43C195.68 256.983 195.233 257.43 194.68 257.43H175.436C174.884 257.43 174.436 256.983 174.436 256.43V239.547Z" fill="#B8FF98"/>
<path d="M94 238.897H113.244C113.603 238.897 113.894 239.188 113.894 239.547V256.43C113.894 256.789 113.603 257.08 113.244 257.08H94C93.641 257.08 93.35 256.789 93.35 256.43V239.547C93.35 239.188 93.641 238.897 94 238.897ZM121.145 238.897H140.39C140.749 238.897 141.04 239.188 141.04 239.547V256.43C141.04 256.789 140.749 257.08 140.39 257.08H121.145C120.786 257.08 120.495 256.789 120.495 256.43V239.547C120.495 239.188 120.786 238.897 121.145 238.897ZM148.291 238.897H167.535C167.894 238.897 168.185 239.188 168.185 239.547V256.43C168.185 256.789 167.894 257.08 167.535 257.08H148.291C147.932 257.08 147.641 256.789 147.641 256.43V239.547C147.641 239.188 147.932 238.897 148.291 238.897ZM175.436 238.897H194.68C195.039 238.897 195.33 239.188 195.33 239.547V256.43C195.33 256.789 195.039 257.08 194.68 257.08H175.436C175.077 257.08 174.786 256.789 174.786 256.43V239.547C174.786 239.188 175.077 238.897 175.436 238.897Z" stroke="black" stroke-width="0.7"/>
</g>
<g id="Rectangle 25">
<path d="M93 289.116C93 288.564 93.4477 288.116 94 288.116H113.244C113.796 288.116 114.244 288.564 114.244 289.116V306C114.244 306.552 113.796 307 113.244 307H94C93.4477 307 93 306.552 93 306V289.116Z" fill="#FFF485"/>
<path d="M120.145 289.116C120.145 288.564 120.593 288.116 121.145 288.116H140.39C140.942 288.116 141.39 288.564 141.39 289.116V306C141.39 306.552 140.942 307 140.39 307H121.145C120.593 307 120.145 306.552 120.145 306V289.116Z" fill="#94D677"/>
<path d="M147.291 289.116C147.291 288.564 147.738 288.116 148.291 288.116H167.535C168.087 288.116 168.535 288.564 168.535 289.116V306C168.535 306.552 168.087 307 167.535 307H148.291C147.738 307 147.291 306.552 147.291 306V289.116Z" fill="#EFD900"/>
<path d="M174.436 289.116C174.436 288.564 174.884 288.116 175.436 288.116H194.68C195.233 288.116 195.68 288.564 195.68 289.116V306C195.68 306.552 195.233 307 194.68 307H175.436C174.884 307 174.436 306.552 174.436 306V289.116Z" fill="#B8FF98"/>
<path d="M94 288.466H113.244C113.603 288.466 113.894 288.757 113.894 289.116V306C113.894 306.359 113.603 306.65 113.244 306.65H94C93.641 306.65 93.35 306.359 93.35 306V289.116C93.35 288.757 93.641 288.466 94 288.466ZM121.145 288.466H140.39C140.749 288.466 141.04 288.757 141.04 289.116V306C141.04 306.359 140.749 306.65 140.39 306.65H121.145C120.786 306.65 120.495 306.359 120.495 306V289.116C120.495 288.757 120.786 288.466 121.145 288.466ZM148.291 288.466H167.535C167.894 288.466 168.185 288.757 168.185 289.116V306C168.185 306.359 167.894 306.65 167.535 306.65H148.291C147.932 306.65 147.641 306.359 147.641 306V289.116C147.641 288.757 147.932 288.466 148.291 288.466ZM175.436 288.466H194.68C195.039 288.466 195.33 288.757 195.33 289.116V306C195.33 306.359 195.039 306.65 194.68 306.65H175.436C175.077 306.65 174.786 306.359 174.786 306V289.116C174.786 288.757 175.077 288.466 175.436 288.466Z" stroke="black" stroke-width="0.7"/>
</g>
<g id="Rectangle 26">
<path d="M93 264.331C93 263.779 93.4477 263.331 94 263.331H113.244C113.796 263.331 114.244 263.779 114.244 264.331V281.215C114.244 281.767 113.796 282.215 113.244 282.215H94C93.4477 282.215 93 281.767 93 281.215V264.331Z" fill="#BCEC74"/>
<path d="M120.145 264.331C120.145 263.779 120.593 263.331 121.145 263.331H140.39C140.942 263.331 141.39 263.779 141.39 264.331V281.215C141.39 281.767 140.942 282.215 140.39 282.215H121.145C120.593 282.215 120.145 281.767 120.145 281.215V264.331Z" fill="#B8FF98"/>
<path d="M147.291 264.331C147.291 263.779 147.738 263.331 148.291 263.331H167.535C168.087 263.331 168.535 263.779 168.535 264.331V281.215C168.535 281.767 168.087 282.215 167.535 282.215H148.291C147.738 282.215 147.291 281.767 147.291 281.215V264.331Z" fill="#BCEC74"/>
<path d="M174.436 264.331C174.436 263.779 174.884 263.331 175.436 263.331H194.68C195.233 263.331 195.68 263.779 195.68 264.331V281.215C195.68 281.767 195.233 282.215 194.68 282.215H175.436C174.884 282.215 174.436 281.767 174.436 281.215V264.331Z" fill="#FFF58E"/>
<path d="M94 263.681H113.244C113.603 263.681 113.894 263.972 113.894 264.331V281.215C113.894 281.574 113.603 281.865 113.244 281.865H94C93.641 281.865 93.35 281.574 93.35 281.215V264.331C93.35 263.972 93.641 263.681 94 263.681ZM121.145 263.681H140.39C140.749 263.681 141.04 263.972 141.04 264.331V281.215C141.04 281.574 140.749 281.865 140.39 281.865H121.145C120.786 281.865 120.495 281.574 120.495 281.215V264.331C120.495 263.972 120.786 263.681 121.145 263.681ZM148.291 263.681H167.535C167.894 263.681 168.185 263.972 168.185 264.331V281.215C168.185 281.574 167.894 281.865 167.535 281.865H148.291C147.932 281.865 147.641 281.574 147.641 281.215V264.331C147.641 263.972 147.932 263.681 148.291 263.681ZM175.436 263.681H194.68C195.039 263.681 195.33 263.972 195.33 264.331V281.215C195.33 281.574 195.039 281.865 194.68 281.865H175.436C175.077 281.865 174.786 281.574 174.786 281.215V264.331C174.786 263.972 175.077 263.681 175.436 263.681Z" stroke="black" stroke-width="0.7"/>
</g>
</g>
<g id="Rectangle 27">
<path d="M215.744 214.762C215.744 214.209 216.192 213.762 216.744 213.762H235.988C236.541 213.762 236.988 214.209 236.988 214.762V231.645C236.988 232.198 236.541 232.645 235.988 232.645H216.744C216.192 232.645 215.744 232.198 215.744 231.645V214.762Z" fill="#D8FF9E"/>
<path d="M242.89 214.762C242.89 214.209 243.337 213.762 243.89 213.762H263.134C263.686 213.762 264.134 214.209 264.134 214.762V231.645C264.134 232.198 263.686 232.645 263.134 232.645H243.89C243.337 232.645 242.89 232.198 242.89 231.645V214.762Z" fill="#B8FF98"/>
<path d="M270.035 214.762C270.035 214.209 270.483 213.762 271.035 213.762H290.279C290.831 213.762 291.279 214.209 291.279 214.762V231.645C291.279 232.198 290.831 232.645 290.279 232.645H271.035C270.483 232.645 270.035 232.198 270.035 231.645V214.762Z" fill="#D8FF9E"/>
<path d="M297.18 214.762C297.18 214.209 297.628 213.762 298.18 213.762H317.424C317.977 213.762 318.424 214.209 318.424 214.762V231.645C318.424 232.198 317.977 232.645 317.424 232.645H298.18C297.628 232.645 297.18 232.198 297.18 231.645V214.762Z" fill="#FFF58E"/>
<path d="M216.744 214.112H235.988C236.347 214.112 236.638 214.403 236.638 214.762V231.645C236.638 232.004 236.347 232.295 235.988 232.295H216.744C216.385 232.295 216.094 232.004 216.094 231.645V214.762C216.094 214.403 216.385 214.112 216.744 214.112ZM243.89 214.112H263.134C263.493 214.112 263.784 214.403 263.784 214.762V231.645C263.784 232.004 263.493 232.295 263.134 232.295H243.89C243.531 232.295 243.24 232.004 243.24 231.645V214.762C243.24 214.403 243.531 214.112 243.89 214.112ZM271.035 214.112H290.279C290.638 214.112 290.929 214.403 290.929 214.762V231.645C290.929 232.004 290.638 232.295 290.279 232.295H271.035C270.676 232.295 270.385 232.004 270.385 231.645V214.762C270.385 214.403 270.676 214.112 271.035 214.112ZM298.18 214.112H317.424C317.783 214.112 318.074 214.403 318.074 214.762V231.645C318.074 232.004 317.783 232.295 317.424 232.295H298.18C297.821 232.295 297.53 232.004 297.53 231.645V214.762C297.53 214.403 297.821 214.112 298.18 214.112Z" stroke="black" stroke-width="0.7"/>
</g>
<g id="Rectangle 28">
<path d="M215.744 239.547C215.744 238.994 216.192 238.547 216.744 238.547H235.988C236.541 238.547 236.988 238.994 236.988 239.547V256.43C236.988 256.983 236.541 257.43 235.988 257.43H216.744C216.192 257.43 215.744 256.983 215.744 256.43V239.547Z" fill="#FFF484"/>
<path d="M242.89 239.547C242.89 238.994 243.337 238.547 243.89 238.547H263.134C263.686 238.547 264.134 238.994 264.134 239.547V256.43C264.134 256.983 263.686 257.43 263.134 257.43H243.89C243.337 257.43 242.89 256.983 242.89 256.43V239.547Z" fill="#94D677"/>
<path d="M270.035 239.547C270.035 238.994 270.483 238.547 271.035 238.547H290.279C290.831 238.547 291.279 238.994 291.279 239.547V256.43C291.279 256.983 290.831 257.43 290.279 257.43H271.035C270.483 257.43 270.035 256.983 270.035 256.43V239.547Z" fill="#EFD900"/>
<path d="M297.18 239.547C297.18 238.994 297.628 238.547 298.18 238.547H317.424C317.977 238.547 318.424 238.994 318.424 239.547V256.43C318.424 256.983 317.977 257.43 317.424 257.43H298.18C297.628 257.43 297.18 256.983 297.18 256.43V239.547Z" fill="#B8FF98"/>
<path d="M216.744 238.897H235.988C236.347 238.897 236.638 239.188 236.638 239.547V256.43C236.638 256.789 236.347 257.08 235.988 257.08H216.744C216.385 257.08 216.094 256.789 216.094 256.43V239.547C216.094 239.188 216.385 238.897 216.744 238.897ZM243.89 238.897H263.134C263.493 238.897 263.784 239.188 263.784 239.547V256.43C263.784 256.789 263.493 257.08 263.134 257.08H243.89C243.531 257.08 243.24 256.789 243.24 256.43V239.547C243.24 239.188 243.531 238.897 243.89 238.897ZM271.035 238.897H290.279C290.638 238.897 290.929 239.188 290.929 239.547V256.43C290.929 256.789 290.638 257.08 290.279 257.08H271.035C270.676 257.08 270.385 256.789 270.385 256.43V239.547C270.385 239.188 270.676 238.897 271.035 238.897ZM298.18 238.897H317.424C317.783 238.897 318.074 239.188 318.074 239.547V256.43C318.074 256.789 317.783 257.08 317.424 257.08H298.18C297.821 257.08 297.53 256.789 297.53 256.43V239.547C297.53 239.188 297.821 238.897 298.18 238.897Z" stroke="black" stroke-width="0.7"/>
</g>
<g id="Rectangle 29">
<path d="M215.744 289.116C215.744 288.564 216.192 288.116 216.744 288.116H235.988C236.541 288.116 236.988 288.564 236.988 289.116V306C236.988 306.552 236.541 307 235.988 307H216.744C216.192 307 215.744 306.552 215.744 306V289.116Z" fill="#FFF485"/>
<path d="M242.89 289.116C242.89 288.564 243.337 288.116 243.89 288.116H263.134C263.686 288.116 264.134 288.564 264.134 289.116V306C264.134 306.552 263.686 307 263.134 307H243.89C243.337 307 242.89 306.552 242.89 306V289.116Z" fill="#94D677"/>
<path d="M270.035 289.116C270.035 288.564 270.483 288.116 271.035 288.116H290.279C290.831 288.116 291.279 288.564 291.279 289.116V306C291.279 306.552 290.831 307 290.279 307H271.035C270.483 307 270.035 306.552 270.035 306V289.116Z" fill="#EFD900"/>
<path d="M297.18 289.116C297.18 288.564 297.628 288.116 298.18 288.116H317.424C317.977 288.116 318.424 288.564 318.424 289.116V306C318.424 306.552 317.977 307 317.424 307H298.18C297.628 307 297.18 306.552 297.18 306V289.116Z" fill="#B8FF98"/>
<path d="M216.744 288.466H235.988C236.347 288.466 236.638 288.757 236.638 289.116V306C236.638 306.359 236.347 306.65 235.988 306.65H216.744C216.385 306.65 216.094 306.359 216.094 306V289.116C216.094 288.757 216.385 288.466 216.744 288.466ZM243.89 288.466H263.134C263.493 288.466 263.784 288.757 263.784 289.116V306C263.784 306.359 263.493 306.65 263.134 306.65H243.89C243.531 306.65 243.24 306.359 243.24 306V289.116C243.24 288.757 243.531 288.466 243.89 288.466ZM271.035 288.466H290.279C290.638 288.466 290.929 288.757 290.929 289.116V306C290.929 306.359 290.638 306.65 290.279 306.65H271.035C270.676 306.65 270.385 306.359 270.385 306V289.116C270.385 288.757 270.676 288.466 271.035 288.466ZM298.18 288.466H317.424C317.783 288.466 318.074 288.757 318.074 289.116V306C318.074 306.359 317.783 306.65 317.424 306.65H298.18C297.821 306.65 297.53 306.359 297.53 306V289.116C297.53 288.757 297.821 288.466 298.18 288.466Z" stroke="black" stroke-width="0.7"/>
</g>
<g id="Rectangle 30">
<path d="M215.744 264.331C215.744 263.779 216.192 263.331 216.744 263.331H235.988C236.541 263.331 236.988 263.779 236.988 264.331V281.215C236.988 281.767 236.541 282.215 235.988 282.215H216.744C216.192 282.215 215.744 281.767 215.744 281.215V264.331Z" fill="#BCEC74"/>
<path d="M242.89 264.331C242.89 263.779 243.337 263.331 243.89 263.331H263.134C263.686 263.331 264.134 263.779 264.134 264.331V281.215C264.134 281.767 263.686 282.215 263.134 282.215H243.89C243.337 282.215 242.89 281.767 242.89 281.215V264.331Z" fill="#B8FF98"/>
<path d="M270.035 264.331C270.035 263.779 270.483 263.331 271.035 263.331H290.279C290.831 263.331 291.279 263.779 291.279 264.331V281.215C291.279 281.767 290.831 282.215 290.279 282.215H271.035C270.483 282.215 270.035 281.767 270.035 281.215V264.331Z" fill="#BCEC74"/>
<path d="M297.18 264.331C297.18 263.779 297.628 263.331 298.18 263.331H317.424C317.977 263.331 318.424 263.779 318.424 264.331V281.215C318.424 281.767 317.977 282.215 317.424 282.215H298.18C297.628 282.215 297.18 281.767 297.18 281.215V264.331Z" fill="#FFF58E"/>
<path d="M216.744 263.681H235.988C236.347 263.681 236.638 263.972 236.638 264.331V281.215C236.638 281.574 236.347 281.865 235.988 281.865H216.744C216.385 281.865 216.094 281.574 216.094 281.215V264.331C216.094 263.972 216.385 263.681 216.744 263.681ZM243.89 263.681H263.134C263.493 263.681 263.784 263.972 263.784 264.331V281.215C263.784 281.574 263.493 281.865 263.134 281.865H243.89C243.531 281.865 243.24 281.574 243.24 281.215V264.331C243.24 263.972 243.531 263.681 243.89 263.681ZM271.035 263.681H290.279C290.638 263.681 290.929 263.972 290.929 264.331V281.215C290.929 281.574 290.638 281.865 290.279 281.865H271.035C270.676 281.865 270.385 281.574 270.385 281.215V264.331C270.385 263.972 270.676 263.681 271.035 263.681ZM298.18 263.681H317.424C317.783 263.681 318.074 263.972 318.074 264.331V281.215C318.074 281.574 317.783 281.865 317.424 281.865H298.18C297.821 281.865 297.53 281.574 297.53 281.215V264.331C297.53 263.972 297.821 263.681 298.18 263.681Z" stroke="black" stroke-width="0.7"/>
</g>
<g id="square4">
<g id="Rectangle 31">
<path d="M215.744 214.762C215.744 214.209 216.192 213.762 216.744 213.762H235.988C236.541 213.762 236.988 214.209 236.988 214.762V231.645C236.988 232.198 236.541 232.645 235.988 232.645H216.744C216.192 232.645 215.744 232.198 215.744 231.645V214.762Z" fill="#D8FF9E"/>
<path d="M242.89 214.762C242.89 214.209 243.337 213.762 243.89 213.762H263.134C263.686 213.762 264.134 214.209 264.134 214.762V231.645C264.134 232.198 263.686 232.645 263.134 232.645H243.89C243.337 232.645 242.89 232.198 242.89 231.645V214.762Z" fill="#B8FF98"/>
<path d="M270.035 214.762C270.035 214.209 270.483 213.762 271.035 213.762H290.279C290.831 213.762 291.279 214.209 291.279 214.762V231.645C291.279 232.198 290.831 232.645 290.279 232.645H271.035C270.483 232.645 270.035 232.198 270.035 231.645V214.762Z" fill="#D8FF9E"/>
<path d="M297.18 214.762C297.18 214.209 297.628 213.762 298.18 213.762H317.424C317.977 213.762 318.424 214.209 318.424 214.762V231.645C318.424 232.198 317.977 232.645 317.424 232.645H298.18C297.628 232.645 297.18 232.198 297.18 231.645V214.762Z" fill="#FFF58E"/>
<path d="M216.744 214.112H235.988C236.347 214.112 236.638 214.403 236.638 214.762V231.645C236.638 232.004 236.347 232.295 235.988 232.295H216.744C216.385 232.295 216.094 232.004 216.094 231.645V214.762C216.094 214.403 216.385 214.112 216.744 214.112ZM243.89 214.112H263.134C263.493 214.112 263.784 214.403 263.784 214.762V231.645C263.784 232.004 263.493 232.295 263.134 232.295H243.89C243.531 232.295 243.24 232.004 243.24 231.645V214.762C243.24 214.403 243.531 214.112 243.89 214.112ZM271.035 214.112H290.279C290.638 214.112 290.929 214.403 290.929 214.762V231.645C290.929 232.004 290.638 232.295 290.279 232.295H271.035C270.676 232.295 270.385 232.004 270.385 231.645V214.762C270.385 214.403 270.676 214.112 271.035 214.112ZM298.18 214.112H317.424C317.783 214.112 318.074 214.403 318.074 214.762V231.645C318.074 232.004 317.783 232.295 317.424 232.295H298.18C297.821 232.295 297.53 232.004 297.53 231.645V214.762C297.53 214.403 297.821 214.112 298.18 214.112Z" stroke="black" stroke-width="0.7"/>
</g>
<g id="Rectangle 32">
<path d="M215.744 239.547C215.744 238.994 216.192 238.547 216.744 238.547H235.988C236.541 238.547 236.988 238.994 236.988 239.547V256.43C236.988 256.983 236.541 257.43 235.988 257.43H216.744C216.192 257.43 215.744 256.983 215.744 256.43V239.547Z" fill="#FFF484"/>
<path d="M242.89 239.547C242.89 238.994 243.337 238.547 243.89 238.547H263.134C263.686 238.547 264.134 238.994 264.134 239.547V256.43C264.134 256.983 263.686 257.43 263.134 257.43H243.89C243.337 257.43 242.89 256.983 242.89 256.43V239.547Z" fill="#94D677"/>
<path d="M270.035 239.547C270.035 238.994 270.483 238.547 271.035 238.547H290.279C290.831 238.547 291.279 238.994 291.279 239.547V256.43C291.279 256.983 290.831 257.43 290.279 257.43H271.035C270.483 257.43 270.035 256.983 270.035 256.43V239.547Z" fill="#EFD900"/>
<path d="M297.18 239.547C297.18 238.994 297.628 238.547 298.18 238.547H317.424C317.977 238.547 318.424 238.994 318.424 239.547V256.43C318.424 256.983 317.977 257.43 317.424 257.43H298.18C297.628 257.43 297.18 256.983 297.18 256.43V239.547Z" fill="#B8FF98"/>
<path d="M216.744 238.897H235.988C236.347 238.897 236.638 239.188 236.638 239.547V256.43C236.638 256.789 236.347 257.08 235.988 257.08H216.744C216.385 257.08 216.094 256.789 216.094 256.43V239.547C216.094 239.188 216.385 238.897 216.744 238.897ZM243.89 238.897H263.134C263.493 238.897 263.784 239.188 263.784 239.547V256.43C263.784 256.789 263.493 257.08 263.134 257.08H243.89C243.531 257.08 243.24 256.789 243.24 256.43V239.547C243.24 239.188 243.531 238.897 243.89 238.897ZM271.035 238.897H290.279C290.638 238.897 290.929 239.188 290.929 239.547V256.43C290.929 256.789 290.638 257.08 290.279 257.08H271.035C270.676 257.08 270.385 256.789 270.385 256.43V239.547C270.385 239.188 270.676 238.897 271.035 238.897ZM298.18 238.897H317.424C317.783 238.897 318.074 239.188 318.074 239.547V256.43C318.074 256.789 317.783 257.08 317.424 257.08H298.18C297.821 257.08 297.53 256.789 297.53 256.43V239.547C297.53 239.188 297.821 238.897 298.18 238.897Z" stroke="black" stroke-width="0.7"/>
</g>
<g id="Rectangle 33">
<path d="M215.744 289.116C215.744 288.564 216.192 288.116 216.744 288.116H235.988C236.541 288.116 236.988 288.564 236.988 289.116V306C236.988 306.552 236.541 307 235.988 307H216.744C216.192 307 215.744 306.552 215.744 306V289.116Z" fill="#FFF485"/>
<path d="M242.89 289.116C242.89 288.564 243.337 288.116 243.89 288.116H263.134C263.686 288.116 264.134 288.564 264.134 289.116V306C264.134 306.552 263.686 307 263.134 307H243.89C243.337 307 242.89 306.552 242.89 306V289.116Z" fill="#94D677"/>
<path d="M270.035 289.116C270.035 288.564 270.483 288.116 271.035 288.116H290.279C290.831 288.116 291.279 288.564 291.279 289.116V306C291.279 306.552 290.831 307 290.279 307H271.035C270.483 307 270.035 306.552 270.035 306V289.116Z" fill="#EFD900"/>
<path d="M297.18 289.116C297.18 288.564 297.628 288.116 298.18 288.116H317.424C317.977 288.116 318.424 288.564 318.424 289.116V306C318.424 306.552 317.977 307 317.424 307H298.18C297.628 307 297.18 306.552 297.18 306V289.116Z" fill="#B8FF98"/>
<path d="M216.744 288.466H235.988C236.347 288.466 236.638 288.757 236.638 289.116V306C236.638 306.359 236.347 306.65 235.988 306.65H216.744C216.385 306.65 216.094 306.359 216.094 306V289.116C216.094 288.757 216.385 288.466 216.744 288.466ZM243.89 288.466H263.134C263.493 288.466 263.784 288.757 263.784 289.116V306C263.784 306.359 263.493 306.65 263.134 306.65H243.89C243.531 306.65 243.24 306.359 243.24 306V289.116C243.24 288.757 243.531 288.466 243.89 288.466ZM271.035 288.466H290.279C290.638 288.466 290.929 288.757 290.929 289.116V306C290.929 306.359 290.638 306.65 290.279 306.65H271.035C270.676 306.65 270.385 306.359 270.385 306V289.116C270.385 288.757 270.676 288.466 271.035 288.466ZM298.18 288.466H317.424C317.783 288.466 318.074 288.757 318.074 289.116V306C318.074 306.359 317.783 306.65 317.424 306.65H298.18C297.821 306.65 297.53 306.359 297.53 306V289.116C297.53 288.757 297.821 288.466 298.18 288.466Z" stroke="black" stroke-width="0.7"/>
</g>
<g id="Rectangle 34">
<path d="M215.744 264.331C215.744 263.779 216.192 263.331 216.744 263.331H235.988C236.541 263.331 236.988 263.779 236.988 264.331V281.215C236.988 281.767 236.541 282.215 235.988 282.215H216.744C216.192 282.215 215.744 281.767 215.744 281.215V264.331Z" fill="#BCEC74"/>
<path d="M242.89 264.331C242.89 263.779 243.337 263.331 243.89 263.331H263.134C263.686 263.331 264.134 263.779 264.134 264.331V281.215C264.134 281.767 263.686 282.215 263.134 282.215H243.89C243.337 282.215 242.89 281.767 242.89 281.215V264.331Z" fill="#B8FF98"/>
<path d="M270.035 264.331C270.035 263.779 270.483 263.331 271.035 263.331H290.279C290.831 263.331 291.279 263.779 291.279 264.331V281.215C291.279 281.767 290.831 282.215 290.279 282.215H271.035C270.483 282.215 270.035 281.767 270.035 281.215V264.331Z" fill="#BCEC74"/>
<path d="M297.18 264.331C297.18 263.779 297.628 263.331 298.18 263.331H317.424C317.977 263.331 318.424 263.779 318.424 264.331V281.215C318.424 281.767 317.977 282.215 317.424 282.215H298.18C297.628 282.215 297.18 281.767 297.18 281.215V264.331Z" fill="#FFF58E"/>
<path d="M216.744 263.681H235.988C236.347 263.681 236.638 263.972 236.638 264.331V281.215C236.638 281.574 236.347 281.865 235.988 281.865H216.744C216.385 281.865 216.094 281.574 216.094 281.215V264.331C216.094 263.972 216.385 263.681 216.744 263.681ZM243.89 263.681H263.134C263.493 263.681 263.784 263.972 263.784 264.331V281.215C263.784 281.574 263.493 281.865 263.134 281.865H243.89C243.531 281.865 243.24 281.574 243.24 281.215V264.331C243.24 263.972 243.531 263.681 243.89 263.681ZM271.035 263.681H290.279C290.638 263.681 290.929 263.972 290.929 264.331V281.215C290.929 281.574 290.638 281.865 290.279 281.865H271.035C270.676 281.865 270.385 281.574 270.385 281.215V264.331C270.385 263.972 270.676 263.681 271.035 263.681ZM298.18 263.681H317.424C317.783 263.681 318.074 263.972 318.074 264.331V281.215C318.074 281.574 317.783 281.865 317.424 281.865H298.18C297.821 281.865 297.53 281.574 297.53 281.215V264.331C297.53 263.972 297.821 263.681 298.18 263.681Z" stroke="black" stroke-width="0.7"/>
</g>
</g>
</g>
<g id="small-circs">
<circle id="Ellipse 1" cx="98" cy="65" r="8.65" fill="#FFF58E" stroke="black" stroke-width="0.7"/>
<circle id="Ellipse 8" cx="385" cy="210" r="8.65" fill="#FFF58E" stroke="black" stroke-width="0.7"/>
<path id="Ellipse 5" d="M282.462 320.645C282.462 325.422 278.59 329.295 273.812 329.295C269.035 329.295 265.162 325.422 265.162 320.645C265.162 315.867 269.035 311.995 273.812 311.995C278.59 311.995 282.462 315.867 282.462 320.645Z" fill="#FFF58E" stroke="black" stroke-width="0.7"/>
<path id="Ellipse 9" d="M40.65 197C40.65 201.777 36.7773 205.65 32 205.65C27.2227 205.65 23.35 201.777 23.35 197C23.35 192.223 27.2227 188.35 32 188.35C36.7773 188.35 40.65 192.223 40.65 197Z" fill="#FFF58E" stroke="black" stroke-width="0.7"/>
</g>
<g id="big-circs">
<circle id="Ellipse 6" cx="246" cy="31" r="11.65" fill="#C0E9FF" stroke="black" stroke-width="0.7"/>
<circle id="Ellipse 7" cx="23" cy="113" r="11.65" fill="#C0E9FF" stroke="black" stroke-width="0.7"/>
<circle id="Ellipse 3" cx="226" cy="369" r="11.65" fill="#C0E9FF" stroke="black" stroke-width="0.7"/>
<circle id="Ellipse 4" cx="61" cy="245" r="11.65" fill="#C0E9FF" stroke="black" stroke-width="0.7"/>
<circle id="Ellipse 2" cx="357" cy="129" r="11.65" fill="#C0E9FF" stroke="black" stroke-width="0.7"/>
</g>
<g id="small-stars">
<path id="Vector" d="M88.7495 301.853L88.9169 302.358L89.3143 302.005L97.0896 295.088L94.0873 305.209L93.9401 305.705L94.4553 305.657L104.604 304.712L96.4368 311.216L96.0501 311.524L96.4691 311.786L105.122 317.206L94.9207 317.566L94.4263 317.583L94.6073 318.044L98.4277 327.76L90.1119 321.867L89.6897 321.568L89.5692 322.071L87.1085 332.338L83.8333 322.46L83.6659 321.955L83.2685 322.309L75.4933 329.225L78.4956 319.104L78.6427 318.608L78.1275 318.656L67.9793 319.601L76.146 313.097L76.533 312.789L76.1135 312.527L67.4584 307.114L77.6624 306.747L78.1564 306.729L77.9755 306.269L74.1551 296.553L82.4709 302.446L82.8931 302.745L83.0137 302.242L85.4743 291.976L88.7495 301.853Z" fill="white" stroke="black" stroke-width="0.7"/>
<path id="Vector_2" d="M303.749 343.853L303.917 344.358L304.314 344.005L312.09 337.088L309.087 347.209L308.94 347.705L309.455 347.657L319.604 346.712L311.437 353.216L311.05 353.524L311.469 353.786L320.122 359.206L309.921 359.566L309.426 359.583L309.607 360.044L313.428 369.76L305.112 363.867L304.69 363.568L304.569 364.071L302.108 374.338L298.833 364.46L298.666 363.955L298.268 364.309L290.493 371.225L293.496 361.104L293.643 360.608L293.128 360.656L282.979 361.601L291.146 355.097L291.533 354.789L291.113 354.527L282.458 349.114L292.662 348.747L293.156 348.729L292.975 348.269L289.155 338.553L297.471 344.446L297.893 344.745L298.014 344.242L300.474 333.976L303.749 343.853Z" fill="white" stroke="black" stroke-width="0.7"/>
<path id="Vector_3" d="M254.749 75.8532L254.917 76.3581L255.314 76.0046L263.09 69.0878L260.087 79.2093L259.94 79.7053L260.455 79.6573L270.604 78.7117L262.437 85.216L262.05 85.524L262.469 85.7864L271.122 91.2064L260.921 91.566L260.426 91.5835L260.607 92.0439L264.428 101.76L256.112 95.8671L255.69 95.5679L255.569 96.0711L253.108 106.338L249.833 96.46L249.666 95.9551L249.268 96.3086L241.493 103.225L244.496 93.1039L244.643 92.6079L244.128 92.6559L233.979 93.6015L242.146 87.0972L242.533 86.789L242.113 86.5267L233.458 81.1144L243.662 80.7472L244.156 80.7294L243.975 80.2693L240.155 70.5531L248.471 76.4461L248.893 76.7453L249.014 76.2421L251.474 65.9755L254.749 75.8532Z" fill="white" stroke="black" stroke-width="0.7"/>
</g>
<g id="big-stars">
<path id="Vector_4" d="M343.752 219.275L343.919 219.785L344.318 219.427L356.425 208.565L351.724 224.424L351.577 224.921L352.094 224.872L367.857 223.355L355.158 233.561L354.775 233.868L355.19 234.13L368.601 242.579L352.766 243.178L352.275 243.197L352.453 243.654L358.348 258.843L345.455 249.648L345.032 249.346L344.911 249.851L341.052 265.936L335.999 250.476L335.832 249.965L335.432 250.324L323.326 261.186L328.026 245.327L328.173 244.829L327.657 244.879L311.893 246.396L324.593 236.189L324.976 235.882L324.56 235.62L311.146 227.184L326.985 226.572L327.475 226.553L327.297 226.096L321.402 210.907L334.296 220.103L334.718 220.404L334.839 219.899L338.698 203.815L343.752 219.275Z" fill="#DD7037" stroke="black" stroke-width="0.7"/>
<path id="Vector_5" d="M170.996 50.8623L171.163 51.3727L171.562 51.0141L183.669 40.1521L178.968 56.0114L178.821 56.5089L179.338 56.4592L195.101 54.9423L182.402 65.1487L182.019 65.4561L182.434 65.7176L195.845 74.1662L180.01 74.7656L179.519 74.7842L179.697 75.242L185.592 90.4308L172.699 81.2353L172.276 80.934L172.155 81.4386L168.296 97.5232L163.243 82.0632L163.076 81.5529L162.676 81.9115L150.57 92.7735L155.27 76.9142L155.417 76.4167L154.901 76.4664L139.137 77.9833L151.837 67.7769L152.22 67.4693L151.804 67.2078L138.39 58.7713L154.229 58.16L154.719 58.141L154.541 57.6836L148.647 42.4948L161.54 51.6903L161.962 51.9916L162.083 51.487L165.942 35.4024L170.996 50.8623Z" fill="#DD7037" stroke="black" stroke-width="0.7"/>
</g>
<g id="sparkles">
<path id="Stickers V03" d="M365.328 314.52C361.539 315.616 359.012 316.837 357.205 318.925C355.403 321.007 354.353 323.907 353.406 328.263C353.378 328.387 353.317 328.487 353.242 328.554C353.168 328.62 353.084 328.65 353.006 328.65C352.928 328.65 352.845 328.62 352.77 328.554L352.538 328.815L352.77 328.554C352.695 328.487 352.634 328.387 352.606 328.263C351.659 323.907 350.606 321.007 348.801 318.925C346.99 316.837 344.461 315.616 340.672 314.52C340.593 314.495 340.513 314.439 340.451 314.346C340.388 314.251 340.35 314.13 340.35 314C340.35 313.87 340.388 313.749 340.451 313.654C340.513 313.561 340.593 313.505 340.672 313.48C344.461 312.384 346.99 311.163 348.801 309.075C350.606 306.993 351.659 304.093 352.606 299.737C352.634 299.613 352.695 299.513 352.77 299.446C352.845 299.38 352.928 299.35 353.006 299.35C353.084 299.35 353.168 299.38 353.242 299.446C353.317 299.513 353.378 299.613 353.406 299.737C354.353 304.093 355.403 306.993 357.205 309.075C359.012 311.163 361.539 312.384 365.328 313.48M365.328 314.52L365.326 313.48C365.327 313.48 365.327 313.48 365.328 313.48M365.328 314.52C365.407 314.495 365.487 314.439 365.549 314.346C365.612 314.251 365.65 314.13 365.65 314C365.65 313.87 365.612 313.749 365.549 313.654L365.84 313.46L365.549 313.654C365.487 313.561 365.407 313.505 365.328 313.48M365.328 314.52V313.48" fill="#FF928B" stroke="#26103D" stroke-width="0.7"/>
<path id="Stickers V03_2" d="M166.328 339.52C162.539 340.616 160.012 341.837 158.205 343.925C156.403 346.007 155.353 348.907 154.406 353.263C154.378 353.387 154.317 353.487 154.242 353.554C154.168 353.62 154.084 353.65 154.006 353.65C153.928 353.65 153.845 353.62 153.77 353.554C153.695 353.487 153.634 353.387 153.606 353.263C152.659 348.907 151.606 346.007 149.801 343.925C147.99 341.837 145.461 340.616 141.672 339.52C141.593 339.495 141.513 339.439 141.451 339.346C141.388 339.251 141.35 339.13 141.35 339C141.35 338.87 141.388 338.749 141.451 338.654C141.513 338.561 141.593 338.505 141.672 338.48C145.461 337.384 147.99 336.163 149.801 334.075C151.606 331.993 152.659 329.093 153.606 324.737C153.634 324.613 153.695 324.513 153.77 324.446C153.845 324.38 153.928 324.35 154.006 324.35C154.084 324.35 154.168 324.38 154.242 324.446C154.317 324.513 154.378 324.613 154.406 324.737C155.353 329.093 156.403 331.993 158.205 334.075C160.012 336.163 162.539 337.384 166.328 338.48C166.407 338.505 166.487 338.561 166.549 338.654C166.612 338.749 166.65 338.87 166.65 339C166.65 339.13 166.612 339.251 166.549 339.346C166.487 339.439 166.407 339.495 166.328 339.52Z" fill="#FF928B" stroke="#26103D" stroke-width="0.7"/>
<path id="Stickers V03_3" d="M79.3275 144.52C75.5387 145.616 73.0124 146.837 71.2046 148.925C69.4028 151.007 68.3535 153.907 67.406 158.263C67.3779 158.387 67.317 158.487 67.2419 158.554C67.1676 158.62 67.0845 158.65 67.0062 158.65C66.9279 158.65 66.8447 158.62 66.7705 158.554C66.6954 158.487 66.6344 158.387 66.6063 158.263C65.6588 153.907 64.6063 151.007 62.8013 148.925C60.9905 146.837 58.4612 145.616 54.6725 144.52C54.5935 144.495 54.5131 144.439 54.4507 144.346C54.3876 144.251 54.35 144.13 54.35 144C54.35 143.87 54.3876 143.749 54.4507 143.654C54.5131 143.561 54.5935 143.505 54.6725 143.48C58.4612 142.384 60.9905 141.163 62.8013 139.075C64.6063 136.993 65.6588 134.093 66.6063 129.737C66.6344 129.613 66.6954 129.513 66.7705 129.446C66.8447 129.38 66.9279 129.35 67.0062 129.35C67.0844 129.35 67.1676 129.38 67.2419 129.446C67.317 129.513 67.3779 129.613 67.406 129.737C68.3535 134.093 69.4028 136.993 71.2046 139.075C73.0124 141.163 75.5387 142.384 79.3275 143.48C79.4066 143.505 79.4869 143.561 79.5493 143.654C79.6124 143.749 79.65 143.87 79.65 144C79.65 144.13 79.6124 144.251 79.5493 144.346C79.4869 144.439 79.4066 144.495 79.3275 144.52Z" fill="#FF928B" stroke="#26103D" stroke-width="0.7"/>
<path id="Stickers V03_4" d="M352.328 80.5196C348.539 81.6157 346.012 82.8367 344.205 84.9253C342.403 87.0071 341.353 89.9071 340.406 94.2631C340.378 94.3866 340.317 94.4873 340.242 94.5542C340.168 94.6204 340.084 94.65 340.006 94.65C339.928 94.65 339.845 94.6204 339.77 94.5542C339.695 94.4873 339.634 94.3866 339.606 94.2631C338.659 89.9068 337.606 87.0068 335.801 84.9251C333.99 82.8366 331.461 81.6157 327.672 80.5196C327.593 80.4955 327.513 80.4387 327.451 80.3456C327.388 80.2515 327.35 80.1299 327.35 80C327.35 79.8701 327.388 79.7486 327.451 79.6544C327.513 79.5613 327.593 79.5045 327.672 79.4804C331.461 78.3843 333.99 77.1634 335.801 75.0749C337.606 72.9932 338.659 70.0932 339.606 65.7369C339.634 65.6134 339.695 65.5127 339.77 65.4458C339.845 65.3796 339.928 65.35 340.006 65.35C340.084 65.35 340.168 65.3796 340.242 65.4458C340.317 65.5127 340.378 65.6134 340.406 65.7369C341.353 70.0929 342.403 72.9929 344.205 75.0747C346.012 77.1633 348.539 78.3843 352.328 79.4804M352.328 80.5196L352.326 79.48C352.327 79.4802 352.327 79.4803 352.328 79.4804M352.328 80.5196C352.407 80.4955 352.487 80.4387 352.549 80.3456C352.612 80.2515 352.65 80.1299 352.65 80C352.65 79.8701 352.612 79.7486 352.549 79.6544C352.487 79.5613 352.407 79.5046 352.328 79.4804M352.328 80.5196V79.4804" fill="#FF928B" stroke="#26103D" stroke-width="0.7"/>
</g>
</g>
</svg>
